<?xml version="1.0" encoding="utf-8" standalone="no"?>
<!DOCTYPE svg PUBLIC "-//W3C//DTD SVG 1.1//EN"
  "http://www.w3.org/Graphics/SVG/1.1/DTD/svg11.dtd">
<svg xmlns:xlink="http://www.w3.org/1999/xlink" width="505.4225pt" height="295.717969pt" viewBox="0 0 505.4225 295.717969" xmlns="http://www.w3.org/2000/svg" version="1.1">
 <metadata>
  <rdf:RDF xmlns:dc="http://purl.org/dc/elements/1.1/" xmlns:cc="http://creativecommons.org/ns#" xmlns:rdf="http://www.w3.org/1999/02/22-rdf-syntax-ns#">
   <cc:Work>
    <dc:type rdf:resource="http://purl.org/dc/dcmitype/StillImage"/>
    <dc:date>2026-06-21T20:46:55.251466</dc:date>
    <dc:format>image/svg+xml</dc:format>
    <dc:creator>
     <cc:Agent>
      <dc:title>Matplotlib v3.11.0, https://matplotlib.org/</dc:title>
     </cc:Agent>
    </dc:creator>
   </cc:Work>
  </rdf:RDF>
 </metadata>
 <defs>
  <style type="text/css">*{stroke-linejoin: round; stroke-linecap: butt}</style>
 </defs>
 <g id="figure_1">
  <g id="patch_1">
   <path d="M 0 295.717969 
L 505.4225 295.717969 
L 505.4225 0 
L 0 0 
L 0 295.717969 
z
" style="fill: none"/>
  </g>
  <g id="axes_1">
   <g id="patch_2">
    <path d="M 44.2425 255.016953 
L 498.2225 255.016953 
L 498.2225 7.2 
L 44.2425 7.2 
L 44.2425 255.016953 
z
" style="fill: none"/>
   </g>
   <g id="patch_3">
    <path d="M 64.877955 255.016953 
L 74.049268 255.016953 
L 74.049268 255.016953 
L 64.877955 255.016953 
z
" clip-path="url(#p8efce64484)" style="fill: #0b6e7a; opacity: 0.92; stroke: #ffffff; stroke-linejoin: miter"/>
   </g>
   <g id="patch_4">
    <path d="M 74.049268 255.016953 
L 83.220581 255.016953 
L 83.220581 255.016953 
L 74.049268 255.016953 
z
" clip-path="url(#p8efce64484)" style="fill: #0b6e7a; opacity: 0.92; stroke: #ffffff; stroke-linejoin: miter"/>
   </g>
   <g id="patch_5">
    <path d="M 83.220581 255.016953 
L 92.391894 255.016953 
L 92.391894 250.802379 
L 83.220581 250.802379 
z
" clip-path="url(#p8efce64484)" style="fill: #0b6e7a; opacity: 0.92; stroke: #ffffff; stroke-linejoin: miter"/>
   </g>
   <g id="patch_6">
    <path d="M 92.391894 255.016953 
L 101.563207 255.016953 
L 101.563207 250.802379 
L 92.391894 250.802379 
z
" clip-path="url(#p8efce64484)" style="fill: #0b6e7a; opacity: 0.92; stroke: #ffffff; stroke-linejoin: miter"/>
   </g>
   <g id="patch_7">
    <path d="M 101.563207 255.016953 
L 110.73452 255.016953 
L 110.73452 242.373231 
L 101.563207 242.373231 
z
" clip-path="url(#p8efce64484)" style="fill: #0b6e7a; opacity: 0.92; stroke: #ffffff; stroke-linejoin: miter"/>
   </g>
   <g id="patch_8">
    <path d="M 110.73452 255.016953 
L 119.905833 255.016953 
L 119.905833 233.944083 
L 110.73452 233.944083 
z
" clip-path="url(#p8efce64484)" style="fill: #0b6e7a; opacity: 0.92; stroke: #ffffff; stroke-linejoin: miter"/>
   </g>
   <g id="patch_9">
    <path d="M 119.905833 255.016953 
L 129.077146 255.016953 
L 129.077146 242.373231 
L 119.905833 242.373231 
z
" clip-path="url(#p8efce64484)" style="fill: #0b6e7a; opacity: 0.92; stroke: #ffffff; stroke-linejoin: miter"/>
   </g>
   <g id="patch_10">
    <path d="M 129.077146 255.016953 
L 138.24846 255.016953 
L 138.24846 208.656639 
L 129.077146 208.656639 
z
" clip-path="url(#p8efce64484)" style="fill: #0b6e7a; opacity: 0.92; stroke: #ffffff; stroke-linejoin: miter"/>
   </g>
   <g id="patch_11">
    <path d="M 138.24846 255.016953 
L 147.419773 255.016953 
L 147.419773 204.442065 
L 138.24846 204.442065 
z
" clip-path="url(#p8efce64484)" style="fill: #0b6e7a; opacity: 0.92; stroke: #ffffff; stroke-linejoin: miter"/>
   </g>
   <g id="patch_12">
    <path d="M 147.419773 255.016953 
L 156.591086 255.016953 
L 156.591086 191.798343 
L 147.419773 191.798343 
z
" clip-path="url(#p8efce64484)" style="fill: #0b6e7a; opacity: 0.92; stroke: #ffffff; stroke-linejoin: miter"/>
   </g>
   <g id="patch_13">
    <path d="M 156.591086 255.016953 
L 165.762399 255.016953 
L 165.762399 145.438028 
L 156.591086 145.438028 
z
" clip-path="url(#p8efce64484)" style="fill: #0b6e7a; opacity: 0.92; stroke: #ffffff; stroke-linejoin: miter"/>
   </g>
   <g id="patch_14">
    <path d="M 165.762399 255.016953 
L 174.933712 255.016953 
L 174.933712 124.365158 
L 165.762399 124.365158 
z
" clip-path="url(#p8efce64484)" style="fill: #0b6e7a; opacity: 0.92; stroke: #ffffff; stroke-linejoin: miter"/>
   </g>
   <g id="patch_15">
    <path d="M 174.933712 255.016953 
L 184.105025 255.016953 
L 184.105025 149.652602 
L 174.933712 149.652602 
z
" clip-path="url(#p8efce64484)" style="fill: #0b6e7a; opacity: 0.92; stroke: #ffffff; stroke-linejoin: miter"/>
   </g>
   <g id="patch_16">
    <path d="M 184.105025 255.016953 
L 193.276338 255.016953 
L 193.276338 99.077714 
L 184.105025 99.077714 
z
" clip-path="url(#p8efce64484)" style="fill: #0b6e7a; opacity: 0.92; stroke: #ffffff; stroke-linejoin: miter"/>
   </g>
   <g id="patch_17">
    <path d="M 193.276338 255.016953 
L 202.447652 255.016953 
L 202.447652 65.361122 
L 193.276338 65.361122 
z
" clip-path="url(#p8efce64484)" style="fill: #0b6e7a; opacity: 0.92; stroke: #ffffff; stroke-linejoin: miter"/>
   </g>
   <g id="patch_18">
    <path d="M 202.447652 255.016953 
L 211.618965 255.016953 
L 211.618965 35.859103 
L 202.447652 35.859103 
z
" clip-path="url(#p8efce64484)" style="fill: #0b6e7a; opacity: 0.92; stroke: #ffffff; stroke-linejoin: miter"/>
   </g>
   <g id="patch_19">
    <path d="M 211.618965 255.016953 
L 220.790278 255.016953 
L 220.790278 61.146548 
L 211.618965 61.146548 
z
" clip-path="url(#p8efce64484)" style="fill: #0b6e7a; opacity: 0.92; stroke: #ffffff; stroke-linejoin: miter"/>
   </g>
   <g id="patch_20">
    <path d="M 220.790278 255.016953 
L 229.961591 255.016953 
L 229.961591 19.000807 
L 220.790278 19.000807 
z
" clip-path="url(#p8efce64484)" style="fill: #0b6e7a; opacity: 0.92; stroke: #ffffff; stroke-linejoin: miter"/>
   </g>
   <g id="patch_21">
    <path d="M 229.961591 255.016953 
L 239.132904 255.016953 
L 239.132904 94.86314 
L 229.961591 94.86314 
z
" clip-path="url(#p8efce64484)" style="fill: #0b6e7a; opacity: 0.92; stroke: #ffffff; stroke-linejoin: miter"/>
   </g>
   <g id="patch_22">
    <path d="M 239.132904 255.016953 
L 248.304217 255.016953 
L 248.304217 137.00888 
L 239.132904 137.00888 
z
" clip-path="url(#p8efce64484)" style="fill: #0b6e7a; opacity: 0.92; stroke: #ffffff; stroke-linejoin: miter"/>
   </g>
   <g id="patch_23">
    <path d="M 248.304217 255.016953 
L 257.47553 255.016953 
L 257.47553 153.867176 
L 248.304217 153.867176 
z
" clip-path="url(#p8efce64484)" style="fill: #0b6e7a; opacity: 0.92; stroke: #ffffff; stroke-linejoin: miter"/>
   </g>
   <g id="patch_24">
    <path d="M 257.47553 255.016953 
L 266.646843 255.016953 
L 266.646843 170.725472 
L 257.47553 170.725472 
z
" clip-path="url(#p8efce64484)" style="fill: #0b6e7a; opacity: 0.92; stroke: #ffffff; stroke-linejoin: miter"/>
   </g>
   <g id="patch_25">
    <path d="M 266.646843 255.016953 
L 275.818157 255.016953 
L 275.818157 183.369195 
L 266.646843 183.369195 
z
" clip-path="url(#p8efce64484)" style="fill: #0b6e7a; opacity: 0.92; stroke: #ffffff; stroke-linejoin: miter"/>
   </g>
   <g id="patch_26">
    <path d="M 275.818157 255.016953 
L 284.98947 255.016953 
L 284.98947 212.871213 
L 275.818157 212.871213 
z
" clip-path="url(#p8efce64484)" style="fill: #0b6e7a; opacity: 0.92; stroke: #ffffff; stroke-linejoin: miter"/>
   </g>
   <g id="patch_27">
    <path d="M 284.98947 255.016953 
L 294.160783 255.016953 
L 294.160783 229.729509 
L 284.98947 229.729509 
z
" clip-path="url(#p8efce64484)" style="fill: #0b6e7a; opacity: 0.92; stroke: #ffffff; stroke-linejoin: miter"/>
   </g>
   <g id="patch_28">
    <path d="M 294.160783 255.016953 
L 303.332096 255.016953 
L 303.332096 246.587805 
L 294.160783 246.587805 
z
" clip-path="url(#p8efce64484)" style="fill: #0b6e7a; opacity: 0.92; stroke: #ffffff; stroke-linejoin: miter"/>
   </g>
   <g id="patch_29">
    <path d="M 303.332096 255.016953 
L 312.503409 255.016953 
L 312.503409 246.587805 
L 303.332096 246.587805 
z
" clip-path="url(#p8efce64484)" style="fill: #0b6e7a; opacity: 0.92; stroke: #ffffff; stroke-linejoin: miter"/>
   </g>
   <g id="patch_30">
    <path d="M 312.503409 255.016953 
L 321.674722 255.016953 
L 321.674722 250.802379 
L 312.503409 250.802379 
z
" clip-path="url(#p8efce64484)" style="fill: #0b6e7a; opacity: 0.92; stroke: #ffffff; stroke-linejoin: miter"/>
   </g>
   <g id="patch_31">
    <path d="M 321.674722 255.016953 
L 330.846035 255.016953 
L 330.846035 250.802379 
L 321.674722 250.802379 
z
" clip-path="url(#p8efce64484)" style="fill: #0b6e7a; opacity: 0.92; stroke: #ffffff; stroke-linejoin: miter"/>
   </g>
   <g id="patch_32">
    <path d="M 330.846035 255.016953 
L 340.017348 255.016953 
L 340.017348 255.016953 
L 330.846035 255.016953 
z
" clip-path="url(#p8efce64484)" style="fill: #0b6e7a; opacity: 0.92; stroke: #ffffff; stroke-linejoin: miter"/>
   </g>
   <g id="patch_33">
    <path d="M 340.017348 255.016953 
L 349.188662 255.016953 
L 349.188662 250.802379 
L 340.017348 250.802379 
z
" clip-path="url(#p8efce64484)" style="fill: #0b6e7a; opacity: 0.92; stroke: #ffffff; stroke-linejoin: miter"/>
   </g>
   <g id="patch_34">
    <path d="M 349.188662 255.016953 
L 358.359975 255.016953 
L 358.359975 255.016953 
L 349.188662 255.016953 
z
" clip-path="url(#p8efce64484)" style="fill: #0b6e7a; opacity: 0.92; stroke: #ffffff; stroke-linejoin: miter"/>
   </g>
   <g id="patch_35">
    <path d="M 358.359975 255.016953 
L 367.531288 255.016953 
L 367.531288 255.016953 
L 358.359975 255.016953 
z
" clip-path="url(#p8efce64484)" style="fill: #0b6e7a; opacity: 0.92; stroke: #ffffff; stroke-linejoin: miter"/>
   </g>
   <g id="patch_36">
    <path d="M 367.531288 255.016953 
L 376.702601 255.016953 
L 376.702601 255.016953 
L 367.531288 255.016953 
z
" clip-path="url(#p8efce64484)" style="fill: #0b6e7a; opacity: 0.92; stroke: #ffffff; stroke-linejoin: miter"/>
   </g>
   <g id="patch_37">
    <path d="M 376.702601 255.016953 
L 385.873914 255.016953 
L 385.873914 255.016953 
L 376.702601 255.016953 
z
" clip-path="url(#p8efce64484)" style="fill: #0b6e7a; opacity: 0.92; stroke: #ffffff; stroke-linejoin: miter"/>
   </g>
   <g id="patch_38">
    <path d="M 385.873914 255.016953 
L 395.045227 255.016953 
L 395.045227 255.016953 
L 385.873914 255.016953 
z
" clip-path="url(#p8efce64484)" style="fill: #0b6e7a; opacity: 0.92; stroke: #ffffff; stroke-linejoin: miter"/>
   </g>
   <g id="patch_39">
    <path d="M 395.045227 255.016953 
L 404.21654 255.016953 
L 404.21654 255.016953 
L 395.045227 255.016953 
z
" clip-path="url(#p8efce64484)" style="fill: #0b6e7a; opacity: 0.92; stroke: #ffffff; stroke-linejoin: miter"/>
   </g>
   <g id="patch_40">
    <path d="M 404.21654 255.016953 
L 413.387854 255.016953 
L 413.387854 255.016953 
L 404.21654 255.016953 
z
" clip-path="url(#p8efce64484)" style="fill: #0b6e7a; opacity: 0.92; stroke: #ffffff; stroke-linejoin: miter"/>
   </g>
   <g id="patch_41">
    <path d="M 413.387854 255.016953 
L 422.559167 255.016953 
L 422.559167 255.016953 
L 413.387854 255.016953 
z
" clip-path="url(#p8efce64484)" style="fill: #0b6e7a; opacity: 0.92; stroke: #ffffff; stroke-linejoin: miter"/>
   </g>
   <g id="patch_42">
    <path d="M 422.559167 255.016953 
L 431.73048 255.016953 
L 431.73048 255.016953 
L 422.559167 255.016953 
z
" clip-path="url(#p8efce64484)" style="fill: #0b6e7a; opacity: 0.92; stroke: #ffffff; stroke-linejoin: miter"/>
   </g>
   <g id="patch_43">
    <path d="M 431.73048 255.016953 
L 440.901793 255.016953 
L 440.901793 255.016953 
L 431.73048 255.016953 
z
" clip-path="url(#p8efce64484)" style="fill: #0b6e7a; opacity: 0.92; stroke: #ffffff; stroke-linejoin: miter"/>
   </g>
   <g id="patch_44">
    <path d="M 440.901793 255.016953 
L 450.073106 255.016953 
L 450.073106 255.016953 
L 440.901793 255.016953 
z
" clip-path="url(#p8efce64484)" style="fill: #0b6e7a; opacity: 0.92; stroke: #ffffff; stroke-linejoin: miter"/>
   </g>
   <g id="patch_45">
    <path d="M 450.073106 255.016953 
L 459.244419 255.016953 
L 459.244419 255.016953 
L 450.073106 255.016953 
z
" clip-path="url(#p8efce64484)" style="fill: #0b6e7a; opacity: 0.92; stroke: #ffffff; stroke-linejoin: miter"/>
   </g>
   <g id="patch_46">
    <path d="M 459.244419 255.016953 
L 468.415732 255.016953 
L 468.415732 255.016953 
L 459.244419 255.016953 
z
" clip-path="url(#p8efce64484)" style="fill: #0b6e7a; opacity: 0.92; stroke: #ffffff; stroke-linejoin: miter"/>
   </g>
   <g id="patch_47">
    <path d="M 468.415732 255.016953 
L 477.587045 255.016953 
L 477.587045 255.016953 
L 468.415732 255.016953 
z
" clip-path="url(#p8efce64484)" style="fill: #0b6e7a; opacity: 0.92; stroke: #ffffff; stroke-linejoin: miter"/>
   </g>
   <g id="patch_48">
    <path d="M 64.877955 255.016953 
L 74.049268 255.016953 
L 74.049268 255.016953 
L 64.877955 255.016953 
z
" clip-path="url(#p8efce64484)" style="fill: #b3433a; opacity: 0.92; stroke: #ffffff; stroke-linejoin: miter"/>
   </g>
   <g id="patch_49">
    <path d="M 74.049268 255.016953 
L 83.220581 255.016953 
L 83.220581 255.016953 
L 74.049268 255.016953 
z
" clip-path="url(#p8efce64484)" style="fill: #b3433a; opacity: 0.92; stroke: #ffffff; stroke-linejoin: miter"/>
   </g>
   <g id="patch_50">
    <path d="M 83.220581 255.016953 
L 92.391894 255.016953 
L 92.391894 255.016953 
L 83.220581 255.016953 
z
" clip-path="url(#p8efce64484)" style="fill: #b3433a; opacity: 0.92; stroke: #ffffff; stroke-linejoin: miter"/>
   </g>
   <g id="patch_51">
    <path d="M 92.391894 255.016953 
L 101.563207 255.016953 
L 101.563207 255.016953 
L 92.391894 255.016953 
z
" clip-path="url(#p8efce64484)" style="fill: #b3433a; opacity: 0.92; stroke: #ffffff; stroke-linejoin: miter"/>
   </g>
   <g id="patch_52">
    <path d="M 101.563207 255.016953 
L 110.73452 255.016953 
L 110.73452 255.016953 
L 101.563207 255.016953 
z
" clip-path="url(#p8efce64484)" style="fill: #b3433a; opacity: 0.92; stroke: #ffffff; stroke-linejoin: miter"/>
   </g>
   <g id="patch_53">
    <path d="M 110.73452 255.016953 
L 119.905833 255.016953 
L 119.905833 255.016953 
L 110.73452 255.016953 
z
" clip-path="url(#p8efce64484)" style="fill: #b3433a; opacity: 0.92; stroke: #ffffff; stroke-linejoin: miter"/>
   </g>
   <g id="patch_54">
    <path d="M 119.905833 255.016953 
L 129.077146 255.016953 
L 129.077146 255.016953 
L 119.905833 255.016953 
z
" clip-path="url(#p8efce64484)" style="fill: #b3433a; opacity: 0.92; stroke: #ffffff; stroke-linejoin: miter"/>
   </g>
   <g id="patch_55">
    <path d="M 129.077146 255.016953 
L 138.24846 255.016953 
L 138.24846 255.016953 
L 129.077146 255.016953 
z
" clip-path="url(#p8efce64484)" style="fill: #b3433a; opacity: 0.92; stroke: #ffffff; stroke-linejoin: miter"/>
   </g>
   <g id="patch_56">
    <path d="M 138.24846 255.016953 
L 147.419773 255.016953 
L 147.419773 255.016953 
L 138.24846 255.016953 
z
" clip-path="url(#p8efce64484)" style="fill: #b3433a; opacity: 0.92; stroke: #ffffff; stroke-linejoin: miter"/>
   </g>
   <g id="patch_57">
    <path d="M 147.419773 255.016953 
L 156.591086 255.016953 
L 156.591086 255.016953 
L 147.419773 255.016953 
z
" clip-path="url(#p8efce64484)" style="fill: #b3433a; opacity: 0.92; stroke: #ffffff; stroke-linejoin: miter"/>
   </g>
   <g id="patch_58">
    <path d="M 156.591086 255.016953 
L 165.762399 255.016953 
L 165.762399 255.016953 
L 156.591086 255.016953 
z
" clip-path="url(#p8efce64484)" style="fill: #b3433a; opacity: 0.92; stroke: #ffffff; stroke-linejoin: miter"/>
   </g>
   <g id="patch_59">
    <path d="M 165.762399 255.016953 
L 174.933712 255.016953 
L 174.933712 255.016953 
L 165.762399 255.016953 
z
" clip-path="url(#p8efce64484)" style="fill: #b3433a; opacity: 0.92; stroke: #ffffff; stroke-linejoin: miter"/>
   </g>
   <g id="patch_60">
    <path d="M 174.933712 255.016953 
L 184.105025 255.016953 
L 184.105025 255.016953 
L 174.933712 255.016953 
z
" clip-path="url(#p8efce64484)" style="fill: #b3433a; opacity: 0.92; stroke: #ffffff; stroke-linejoin: miter"/>
   </g>
   <g id="patch_61">
    <path d="M 184.105025 255.016953 
L 193.276338 255.016953 
L 193.276338 255.016953 
L 184.105025 255.016953 
z
" clip-path="url(#p8efce64484)" style="fill: #b3433a; opacity: 0.92; stroke: #ffffff; stroke-linejoin: miter"/>
   </g>
   <g id="patch_62">
    <path d="M 193.276338 255.016953 
L 202.447652 255.016953 
L 202.447652 255.016953 
L 193.276338 255.016953 
z
" clip-path="url(#p8efce64484)" style="fill: #b3433a; opacity: 0.92; stroke: #ffffff; stroke-linejoin: miter"/>
   </g>
   <g id="patch_63">
    <path d="M 202.447652 255.016953 
L 211.618965 255.016953 
L 211.618965 255.016953 
L 202.447652 255.016953 
z
" clip-path="url(#p8efce64484)" style="fill: #b3433a; opacity: 0.92; stroke: #ffffff; stroke-linejoin: miter"/>
   </g>
   <g id="patch_64">
    <path d="M 211.618965 255.016953 
L 220.790278 255.016953 
L 220.790278 255.016953 
L 211.618965 255.016953 
z
" clip-path="url(#p8efce64484)" style="fill: #b3433a; opacity: 0.92; stroke: #ffffff; stroke-linejoin: miter"/>
   </g>
   <g id="patch_65">
    <path d="M 220.790278 255.016953 
L 229.961591 255.016953 
L 229.961591 255.016953 
L 220.790278 255.016953 
z
" clip-path="url(#p8efce64484)" style="fill: #b3433a; opacity: 0.92; stroke: #ffffff; stroke-linejoin: miter"/>
   </g>
   <g id="patch_66">
    <path d="M 229.961591 255.016953 
L 239.132904 255.016953 
L 239.132904 255.016953 
L 229.961591 255.016953 
z
" clip-path="url(#p8efce64484)" style="fill: #b3433a; opacity: 0.92; stroke: #ffffff; stroke-linejoin: miter"/>
   </g>
   <g id="patch_67">
    <path d="M 239.132904 255.016953 
L 248.304217 255.016953 
L 248.304217 255.016953 
L 239.132904 255.016953 
z
" clip-path="url(#p8efce64484)" style="fill: #b3433a; opacity: 0.92; stroke: #ffffff; stroke-linejoin: miter"/>
   </g>
   <g id="patch_68">
    <path d="M 248.304217 255.016953 
L 257.47553 255.016953 
L 257.47553 255.016953 
L 248.304217 255.016953 
z
" clip-path="url(#p8efce64484)" style="fill: #b3433a; opacity: 0.92; stroke: #ffffff; stroke-linejoin: miter"/>
   </g>
   <g id="patch_69">
    <path d="M 257.47553 255.016953 
L 266.646843 255.016953 
L 266.646843 255.016953 
L 257.47553 255.016953 
z
" clip-path="url(#p8efce64484)" style="fill: #b3433a; opacity: 0.92; stroke: #ffffff; stroke-linejoin: miter"/>
   </g>
   <g id="patch_70">
    <path d="M 266.646843 255.016953 
L 275.818157 255.016953 
L 275.818157 255.016953 
L 266.646843 255.016953 
z
" clip-path="url(#p8efce64484)" style="fill: #b3433a; opacity: 0.92; stroke: #ffffff; stroke-linejoin: miter"/>
   </g>
   <g id="patch_71">
    <path d="M 275.818157 255.016953 
L 284.98947 255.016953 
L 284.98947 255.016953 
L 275.818157 255.016953 
z
" clip-path="url(#p8efce64484)" style="fill: #b3433a; opacity: 0.92; stroke: #ffffff; stroke-linejoin: miter"/>
   </g>
   <g id="patch_72">
    <path d="M 284.98947 255.016953 
L 294.160783 255.016953 
L 294.160783 255.016953 
L 284.98947 255.016953 
z
" clip-path="url(#p8efce64484)" style="fill: #b3433a; opacity: 0.92; stroke: #ffffff; stroke-linejoin: miter"/>
   </g>
   <g id="patch_73">
    <path d="M 294.160783 255.016953 
L 303.332096 255.016953 
L 303.332096 255.016953 
L 294.160783 255.016953 
z
" clip-path="url(#p8efce64484)" style="fill: #b3433a; opacity: 0.92; stroke: #ffffff; stroke-linejoin: miter"/>
   </g>
   <g id="patch_74">
    <path d="M 303.332096 255.016953 
L 312.503409 255.016953 
L 312.503409 255.016953 
L 303.332096 255.016953 
z
" clip-path="url(#p8efce64484)" style="fill: #b3433a; opacity: 0.92; stroke: #ffffff; stroke-linejoin: miter"/>
   </g>
   <g id="patch_75">
    <path d="M 312.503409 255.016953 
L 321.674722 255.016953 
L 321.674722 250.802379 
L 312.503409 250.802379 
z
" clip-path="url(#p8efce64484)" style="fill: #b3433a; opacity: 0.92; stroke: #ffffff; stroke-linejoin: miter"/>
   </g>
   <g id="patch_76">
    <path d="M 321.674722 255.016953 
L 330.846035 255.016953 
L 330.846035 246.587805 
L 321.674722 246.587805 
z
" clip-path="url(#p8efce64484)" style="fill: #b3433a; opacity: 0.92; stroke: #ffffff; stroke-linejoin: miter"/>
   </g>
   <g id="patch_77">
    <path d="M 330.846035 255.016953 
L 340.017348 255.016953 
L 340.017348 255.016953 
L 330.846035 255.016953 
z
" clip-path="url(#p8efce64484)" style="fill: #b3433a; opacity: 0.92; stroke: #ffffff; stroke-linejoin: miter"/>
   </g>
   <g id="patch_78">
    <path d="M 340.017348 255.016953 
L 349.188662 255.016953 
L 349.188662 255.016953 
L 340.017348 255.016953 
z
" clip-path="url(#p8efce64484)" style="fill: #b3433a; opacity: 0.92; stroke: #ffffff; stroke-linejoin: miter"/>
   </g>
   <g id="patch_79">
    <path d="M 349.188662 255.016953 
L 358.359975 255.016953 
L 358.359975 250.802379 
L 349.188662 250.802379 
z
" clip-path="url(#p8efce64484)" style="fill: #b3433a; opacity: 0.92; stroke: #ffffff; stroke-linejoin: miter"/>
   </g>
   <g id="patch_80">
    <path d="M 358.359975 255.016953 
L 367.531288 255.016953 
L 367.531288 242.373231 
L 358.359975 242.373231 
z
" clip-path="url(#p8efce64484)" style="fill: #b3433a; opacity: 0.92; stroke: #ffffff; stroke-linejoin: miter"/>
   </g>
   <g id="patch_81">
    <path d="M 367.531288 255.016953 
L 376.702601 255.016953 
L 376.702601 250.802379 
L 367.531288 250.802379 
z
" clip-path="url(#p8efce64484)" style="fill: #b3433a; opacity: 0.92; stroke: #ffffff; stroke-linejoin: miter"/>
   </g>
   <g id="patch_82">
    <path d="M 376.702601 255.016953 
L 385.873914 255.016953 
L 385.873914 221.300361 
L 376.702601 221.300361 
z
" clip-path="url(#p8efce64484)" style="fill: #b3433a; opacity: 0.92; stroke: #ffffff; stroke-linejoin: miter"/>
   </g>
   <g id="patch_83">
    <path d="M 385.873914 255.016953 
L 395.045227 255.016953 
L 395.045227 238.158657 
L 385.873914 238.158657 
z
" clip-path="url(#p8efce64484)" style="fill: #b3433a; opacity: 0.92; stroke: #ffffff; stroke-linejoin: miter"/>
   </g>
   <g id="patch_84">
    <path d="M 395.045227 255.016953 
L 404.21654 255.016953 
L 404.21654 246.587805 
L 395.045227 246.587805 
z
" clip-path="url(#p8efce64484)" style="fill: #b3433a; opacity: 0.92; stroke: #ffffff; stroke-linejoin: miter"/>
   </g>
   <g id="patch_85">
    <path d="M 404.21654 255.016953 
L 413.387854 255.016953 
L 413.387854 255.016953 
L 404.21654 255.016953 
z
" clip-path="url(#p8efce64484)" style="fill: #b3433a; opacity: 0.92; stroke: #ffffff; stroke-linejoin: miter"/>
   </g>
   <g id="patch_86">
    <path d="M 413.387854 255.016953 
L 422.559167 255.016953 
L 422.559167 255.016953 
L 413.387854 255.016953 
z
" clip-path="url(#p8efce64484)" style="fill: #b3433a; opacity: 0.92; stroke: #ffffff; stroke-linejoin: miter"/>
   </g>
   <g id="patch_87">
    <path d="M 422.559167 255.016953 
L 431.73048 255.016953 
L 431.73048 246.587805 
L 422.559167 246.587805 
z
" clip-path="url(#p8efce64484)" style="fill: #b3433a; opacity: 0.92; stroke: #ffffff; stroke-linejoin: miter"/>
   </g>
   <g id="patch_88">
    <path d="M 431.73048 255.016953 
L 440.901793 255.016953 
L 440.901793 246.587805 
L 431.73048 246.587805 
z
" clip-path="url(#p8efce64484)" style="fill: #b3433a; opacity: 0.92; stroke: #ffffff; stroke-linejoin: miter"/>
   </g>
   <g id="patch_89">
    <path d="M 440.901793 255.016953 
L 450.073106 255.016953 
L 450.073106 255.016953 
L 440.901793 255.016953 
z
" clip-path="url(#p8efce64484)" style="fill: #b3433a; opacity: 0.92; stroke: #ffffff; stroke-linejoin: miter"/>
   </g>
   <g id="patch_90">
    <path d="M 450.073106 255.016953 
L 459.244419 255.016953 
L 459.244419 255.016953 
L 450.073106 255.016953 
z
" clip-path="url(#p8efce64484)" style="fill: #b3433a; opacity: 0.92; stroke: #ffffff; stroke-linejoin: miter"/>
   </g>
   <g id="patch_91">
    <path d="M 459.244419 255.016953 
L 468.415732 255.016953 
L 468.415732 255.016953 
L 459.244419 255.016953 
z
" clip-path="url(#p8efce64484)" style="fill: #b3433a; opacity: 0.92; stroke: #ffffff; stroke-linejoin: miter"/>
   </g>
   <g id="patch_92">
    <path d="M 468.415732 255.016953 
L 477.587045 255.016953 
L 477.587045 255.016953 
L 468.415732 255.016953 
z
" clip-path="url(#p8efce64484)" style="fill: #b3433a; opacity: 0.92; stroke: #ffffff; stroke-linejoin: miter"/>
   </g>
   <g id="matplotlib.axis_1">
    <g id="xtick_1">
     <g id="line2d_1">
      <path d="M 44.2425 255.016953 
L 44.2425 7.2 
" clip-path="url(#p8efce64484)" style="fill: none; stroke: #d7dee5; stroke-opacity: 0; stroke-width: 0.8; stroke-linecap: square"/>
     </g>
     <g id="line2d_2"/>
     <g id="text_1">
      <!-- −4 -->
      <g style="fill: #56657a" transform="translate(34.660078 268.393906) scale(0.13 -0.13)">
       <defs>
        <path id="DejaVuSans-c9c" d="M 678 2272 
L 4684 2272 
L 4684 1741 
L 678 1741 
L 678 2272 
z
" transform="scale(0.015625)"/>
        <path id="DejaVuSans-17" d="M 2419 4116 
L 825 1625 
L 2419 1625 
L 2419 4116 
z
M 2253 4666 
L 3047 4666 
L 3047 1625 
L 3713 1625 
L 3713 1100 
L 3047 1100 
L 3047 0 
L 2419 0 
L 2419 1100 
L 313 1100 
L 313 1709 
L 2253 4666 
z
" transform="scale(0.015625)"/>
       </defs>
       <use xlink:href="#DejaVuSans-c9c"/>
       <use xlink:href="#DejaVuSans-17" transform="translate(83.796875 0)"/>
      </g>
     </g>
    </g>
    <g id="xtick_2">
     <g id="line2d_3">
      <path d="M 126.784318 255.016953 
L 126.784318 7.2 
" clip-path="url(#p8efce64484)" style="fill: none; stroke: #d7dee5; stroke-opacity: 0; stroke-width: 0.8; stroke-linecap: square"/>
     </g>
     <g id="line2d_4"/>
     <g id="text_2">
      <!-- −2 -->
      <g style="fill: #56657a" transform="translate(117.201896 268.393906) scale(0.13 -0.13)">
       <defs>
        <path id="DejaVuSans-15" d="M 1228 531 
L 3431 531 
L 3431 0 
L 469 0 
L 469 531 
Q 828 903 1448 1529 
Q 2069 2156 2228 2338 
Q 2531 2678 2651 2914 
Q 2772 3150 2772 3378 
Q 2772 3750 2511 3984 
Q 2250 4219 1831 4219 
Q 1534 4219 1204 4116 
Q 875 4013 500 3803 
L 500 4441 
Q 881 4594 1212 4672 
Q 1544 4750 1819 4750 
Q 2544 4750 2975 4387 
Q 3406 4025 3406 3419 
Q 3406 3131 3298 2873 
Q 3191 2616 2906 2266 
Q 2828 2175 2409 1742 
Q 1991 1309 1228 531 
z
" transform="scale(0.015625)"/>
       </defs>
       <use xlink:href="#DejaVuSans-c9c"/>
       <use xlink:href="#DejaVuSans-15" transform="translate(83.796875 0)"/>
      </g>
     </g>
    </g>
    <g id="xtick_3">
     <g id="line2d_5">
      <path d="M 209.326136 255.016953 
L 209.326136 7.2 
" clip-path="url(#p8efce64484)" style="fill: none; stroke: #d7dee5; stroke-opacity: 0; stroke-width: 0.8; stroke-linecap: square"/>
     </g>
     <g id="line2d_6"/>
     <g id="text_3">
      <!-- 0 -->
      <g style="fill: #56657a" transform="translate(205.190511 268.393906) scale(0.13 -0.13)">
       <defs>
        <path id="DejaVuSans-13" d="M 2034 4250 
Q 1547 4250 1301 3770 
Q 1056 3291 1056 2328 
Q 1056 1369 1301 889 
Q 1547 409 2034 409 
Q 2525 409 2770 889 
Q 3016 1369 3016 2328 
Q 3016 3291 2770 3770 
Q 2525 4250 2034 4250 
z
M 2034 4750 
Q 2819 4750 3233 4129 
Q 3647 3509 3647 2328 
Q 3647 1150 3233 529 
Q 2819 -91 2034 -91 
Q 1250 -91 836 529 
Q 422 1150 422 2328 
Q 422 3509 836 4129 
Q 1250 4750 2034 4750 
z
" transform="scale(0.015625)"/>
       </defs>
       <use xlink:href="#DejaVuSans-13"/>
      </g>
     </g>
    </g>
    <g id="xtick_4">
     <g id="line2d_7">
      <path d="M 291.867955 255.016953 
L 291.867955 7.2 
" clip-path="url(#p8efce64484)" style="fill: none; stroke: #d7dee5; stroke-opacity: 0; stroke-width: 0.8; stroke-linecap: square"/>
     </g>
     <g id="line2d_8"/>
     <g id="text_4">
      <!-- 2 -->
      <g style="fill: #56657a" transform="translate(287.73233 268.393906) scale(0.13 -0.13)">
       <use xlink:href="#DejaVuSans-15"/>
      </g>
     </g>
    </g>
    <g id="xtick_5">
     <g id="line2d_9">
      <path d="M 374.409773 255.016953 
L 374.409773 7.2 
" clip-path="url(#p8efce64484)" style="fill: none; stroke: #d7dee5; stroke-opacity: 0; stroke-width: 0.8; stroke-linecap: square"/>
     </g>
     <g id="line2d_10"/>
     <g id="text_5">
      <!-- 4 -->
      <g style="fill: #56657a" transform="translate(370.274148 268.393906) scale(0.13 -0.13)">
       <use xlink:href="#DejaVuSans-17"/>
      </g>
     </g>
    </g>
    <g id="xtick_6">
     <g id="line2d_11">
      <path d="M 456.951591 255.016953 
L 456.951591 7.2 
" clip-path="url(#p8efce64484)" style="fill: none; stroke: #d7dee5; stroke-opacity: 0; stroke-width: 0.8; stroke-linecap: square"/>
     </g>
     <g id="line2d_12"/>
     <g id="text_6">
      <!-- 6 -->
      <g style="fill: #56657a" transform="translate(452.815966 268.393906) scale(0.13 -0.13)">
       <defs>
        <path id="DejaVuSans-19" d="M 2113 2584 
Q 1688 2584 1439 2293 
Q 1191 2003 1191 1497 
Q 1191 994 1439 701 
Q 1688 409 2113 409 
Q 2538 409 2786 701 
Q 3034 994 3034 1497 
Q 3034 2003 2786 2293 
Q 2538 2584 2113 2584 
z
M 3366 4563 
L 3366 3988 
Q 3128 4100 2886 4159 
Q 2644 4219 2406 4219 
Q 1781 4219 1451 3797 
Q 1122 3375 1075 2522 
Q 1259 2794 1537 2939 
Q 1816 3084 2150 3084 
Q 2853 3084 3261 2657 
Q 3669 2231 3669 1497 
Q 3669 778 3244 343 
Q 2819 -91 2113 -91 
Q 1303 -91 875 529 
Q 447 1150 447 2328 
Q 447 3434 972 4092 
Q 1497 4750 2381 4750 
Q 2619 4750 2861 4703 
Q 3103 4656 3366 4563 
z
" transform="scale(0.015625)"/>
       </defs>
       <use xlink:href="#DejaVuSans-19"/>
      </g>
     </g>
    </g>
    <g id="text_7">
     <!-- "How unusual is this machine?"  (anomaly score) -->
     <g style="fill: #1c2630" transform="translate(111.938828 285.394922) scale(0.13 -0.13)">
      <defs>
       <path id="DejaVuSans-5" d="M 1147 4666 
L 1147 2931 
L 616 2931 
L 616 4666 
L 1147 4666 
z
M 2328 4666 
L 2328 2931 
L 1797 2931 
L 1797 4666 
L 2328 4666 
z
" transform="scale(0.015625)"/>
       <path id="DejaVuSans-2b" d="M 628 4666 
L 1259 4666 
L 1259 2753 
L 3553 2753 
L 3553 4666 
L 4184 4666 
L 4184 0 
L 3553 0 
L 3553 2222 
L 1259 2222 
L 1259 0 
L 628 0 
L 628 4666 
z
" transform="scale(0.015625)"/>
       <path id="DejaVuSans-52" d="M 1959 3097 
Q 1497 3097 1228 2736 
Q 959 2375 959 1747 
Q 959 1119 1226 758 
Q 1494 397 1959 397 
Q 2419 397 2687 759 
Q 2956 1122 2956 1747 
Q 2956 2369 2687 2733 
Q 2419 3097 1959 3097 
z
M 1959 3584 
Q 2709 3584 3137 3096 
Q 3566 2609 3566 1747 
Q 3566 888 3137 398 
Q 2709 -91 1959 -91 
Q 1206 -91 779 398 
Q 353 888 353 1747 
Q 353 2609 779 3096 
Q 1206 3584 1959 3584 
z
" transform="scale(0.015625)"/>
       <path id="DejaVuSans-5a" d="M 269 3500 
L 844 3500 
L 1563 769 
L 2278 3500 
L 2956 3500 
L 3675 769 
L 4391 3500 
L 4966 3500 
L 4050 0 
L 3372 0 
L 2619 2869 
L 1863 0 
L 1184 0 
L 269 3500 
z
" transform="scale(0.015625)"/>
       <path id="DejaVuSans-3" transform="scale(0.015625)"/>
       <path id="DejaVuSans-58" d="M 544 1381 
L 544 3500 
L 1119 3500 
L 1119 1403 
Q 1119 906 1312 657 
Q 1506 409 1894 409 
Q 2359 409 2629 706 
Q 2900 1003 2900 1516 
L 2900 3500 
L 3475 3500 
L 3475 0 
L 2900 0 
L 2900 538 
Q 2691 219 2414 64 
Q 2138 -91 1772 -91 
Q 1169 -91 856 284 
Q 544 659 544 1381 
z
M 1991 3584 
L 1991 3584 
z
" transform="scale(0.015625)"/>
       <path id="DejaVuSans-51" d="M 3513 2113 
L 3513 0 
L 2938 0 
L 2938 2094 
Q 2938 2591 2744 2837 
Q 2550 3084 2163 3084 
Q 1697 3084 1428 2787 
Q 1159 2491 1159 1978 
L 1159 0 
L 581 0 
L 581 3500 
L 1159 3500 
L 1159 2956 
Q 1366 3272 1645 3428 
Q 1925 3584 2291 3584 
Q 2894 3584 3203 3211 
Q 3513 2838 3513 2113 
z
" transform="scale(0.015625)"/>
       <path id="DejaVuSans-56" d="M 2834 3397 
L 2834 2853 
Q 2591 2978 2328 3040 
Q 2066 3103 1784 3103 
Q 1356 3103 1142 2972 
Q 928 2841 928 2578 
Q 928 2378 1081 2264 
Q 1234 2150 1697 2047 
L 1894 2003 
Q 2506 1872 2764 1633 
Q 3022 1394 3022 966 
Q 3022 478 2636 193 
Q 2250 -91 1575 -91 
Q 1294 -91 989 -36 
Q 684 19 347 128 
L 347 722 
Q 666 556 975 473 
Q 1284 391 1588 391 
Q 1994 391 2212 530 
Q 2431 669 2431 922 
Q 2431 1156 2273 1281 
Q 2116 1406 1581 1522 
L 1381 1569 
Q 847 1681 609 1914 
Q 372 2147 372 2553 
Q 372 3047 722 3315 
Q 1072 3584 1716 3584 
Q 2034 3584 2315 3537 
Q 2597 3491 2834 3397 
z
" transform="scale(0.015625)"/>
       <path id="DejaVuSans-44" d="M 2194 1759 
Q 1497 1759 1228 1600 
Q 959 1441 959 1056 
Q 959 750 1161 570 
Q 1363 391 1709 391 
Q 2188 391 2477 730 
Q 2766 1069 2766 1631 
L 2766 1759 
L 2194 1759 
z
M 3341 1997 
L 3341 0 
L 2766 0 
L 2766 531 
Q 2569 213 2275 61 
Q 1981 -91 1556 -91 
Q 1019 -91 701 211 
Q 384 513 384 1019 
Q 384 1609 779 1909 
Q 1175 2209 1959 2209 
L 2766 2209 
L 2766 2266 
Q 2766 2663 2505 2880 
Q 2244 3097 1772 3097 
Q 1472 3097 1187 3025 
Q 903 2953 641 2809 
L 641 3341 
Q 956 3463 1253 3523 
Q 1550 3584 1831 3584 
Q 2591 3584 2966 3190 
Q 3341 2797 3341 1997 
z
" transform="scale(0.015625)"/>
       <path id="DejaVuSans-4f" d="M 603 4863 
L 1178 4863 
L 1178 0 
L 603 0 
L 603 4863 
z
" transform="scale(0.015625)"/>
       <path id="DejaVuSans-4c" d="M 603 3500 
L 1178 3500 
L 1178 0 
L 603 0 
L 603 3500 
z
M 603 4863 
L 1178 4863 
L 1178 4134 
L 603 4134 
L 603 4863 
z
" transform="scale(0.015625)"/>
       <path id="DejaVuSans-57" d="M 1172 4494 
L 1172 3500 
L 2356 3500 
L 2356 3053 
L 1172 3053 
L 1172 1153 
Q 1172 725 1289 603 
Q 1406 481 1766 481 
L 2356 481 
L 2356 0 
L 1766 0 
Q 1100 0 847 248 
Q 594 497 594 1153 
L 594 3053 
L 172 3053 
L 172 3500 
L 594 3500 
L 594 4494 
L 1172 4494 
z
" transform="scale(0.015625)"/>
       <path id="DejaVuSans-4b" d="M 3513 2113 
L 3513 0 
L 2938 0 
L 2938 2094 
Q 2938 2591 2744 2837 
Q 2550 3084 2163 3084 
Q 1697 3084 1428 2787 
Q 1159 2491 1159 1978 
L 1159 0 
L 581 0 
L 581 4863 
L 1159 4863 
L 1159 2956 
Q 1366 3272 1645 3428 
Q 1925 3584 2291 3584 
Q 2894 3584 3203 3211 
Q 3513 2838 3513 2113 
z
" transform="scale(0.015625)"/>
       <path id="DejaVuSans-50" d="M 3328 2828 
Q 3544 3216 3844 3400 
Q 4144 3584 4550 3584 
Q 5097 3584 5394 3201 
Q 5691 2819 5691 2113 
L 5691 0 
L 5113 0 
L 5113 2094 
Q 5113 2597 4934 2840 
Q 4756 3084 4391 3084 
Q 3944 3084 3684 2787 
Q 3425 2491 3425 1978 
L 3425 0 
L 2847 0 
L 2847 2094 
Q 2847 2600 2669 2842 
Q 2491 3084 2119 3084 
Q 1678 3084 1418 2786 
Q 1159 2488 1159 1978 
L 1159 0 
L 581 0 
L 581 3500 
L 1159 3500 
L 1159 2956 
Q 1356 3278 1631 3431 
Q 1906 3584 2284 3584 
Q 2666 3584 2933 3390 
Q 3200 3197 3328 2828 
z
" transform="scale(0.015625)"/>
       <path id="DejaVuSans-46" d="M 3122 3366 
L 3122 2828 
Q 2878 2963 2633 3030 
Q 2388 3097 2138 3097 
Q 1578 3097 1268 2742 
Q 959 2388 959 1747 
Q 959 1106 1268 751 
Q 1578 397 2138 397 
Q 2388 397 2633 464 
Q 2878 531 3122 666 
L 3122 134 
Q 2881 22 2623 -34 
Q 2366 -91 2075 -91 
Q 1284 -91 818 406 
Q 353 903 353 1747 
Q 353 2603 823 3093 
Q 1294 3584 2113 3584 
Q 2378 3584 2631 3529 
Q 2884 3475 3122 3366 
z
" transform="scale(0.015625)"/>
       <path id="DejaVuSans-48" d="M 3597 1894 
L 3597 1613 
L 953 1613 
Q 991 1019 1311 708 
Q 1631 397 2203 397 
Q 2534 397 2845 478 
Q 3156 559 3463 722 
L 3463 178 
Q 3153 47 2828 -22 
Q 2503 -91 2169 -91 
Q 1331 -91 842 396 
Q 353 884 353 1716 
Q 353 2575 817 3079 
Q 1281 3584 2069 3584 
Q 2775 3584 3186 3129 
Q 3597 2675 3597 1894 
z
M 3022 2063 
Q 3016 2534 2758 2815 
Q 2500 3097 2075 3097 
Q 1594 3097 1305 2825 
Q 1016 2553 972 2059 
L 3022 2063 
z
" transform="scale(0.015625)"/>
       <path id="DejaVuSans-22" d="M 1222 794 
L 1856 794 
L 1856 0 
L 1222 0 
L 1222 794 
z
M 1838 1253 
L 1241 1253 
L 1241 1734 
Q 1241 2050 1328 2253 
Q 1416 2456 1697 2725 
L 1978 3003 
Q 2156 3169 2236 3316 
Q 2316 3463 2316 3616 
Q 2316 3894 2111 4066 
Q 1906 4238 1569 4238 
Q 1322 4238 1042 4128 
Q 763 4019 459 3809 
L 459 4397 
Q 753 4575 1054 4662 
Q 1356 4750 1678 4750 
Q 2253 4750 2601 4447 
Q 2950 4144 2950 3647 
Q 2950 3409 2837 3195 
Q 2725 2981 2444 2713 
L 2169 2444 
Q 2022 2297 1961 2214 
Q 1900 2131 1875 2053 
Q 1856 1988 1847 1894 
Q 1838 1800 1838 1638 
L 1838 1253 
z
" transform="scale(0.015625)"/>
       <path id="DejaVuSans-b" d="M 1984 4856 
Q 1566 4138 1362 3434 
Q 1159 2731 1159 2009 
Q 1159 1288 1364 580 
Q 1569 -128 1984 -844 
L 1484 -844 
Q 1016 -109 783 600 
Q 550 1309 550 2009 
Q 550 2706 781 3412 
Q 1013 4119 1484 4856 
L 1984 4856 
z
" transform="scale(0.015625)"/>
       <path id="DejaVuSans-5c" d="M 2059 -325 
Q 1816 -950 1584 -1140 
Q 1353 -1331 966 -1331 
L 506 -1331 
L 506 -850 
L 844 -850 
Q 1081 -850 1212 -737 
Q 1344 -625 1503 -206 
L 1606 56 
L 191 3500 
L 800 3500 
L 1894 763 
L 2988 3500 
L 3597 3500 
L 2059 -325 
z
" transform="scale(0.015625)"/>
       <path id="DejaVuSans-55" d="M 2631 2963 
Q 2534 3019 2420 3045 
Q 2306 3072 2169 3072 
Q 1681 3072 1420 2755 
Q 1159 2438 1159 1844 
L 1159 0 
L 581 0 
L 581 3500 
L 1159 3500 
L 1159 2956 
Q 1341 3275 1631 3429 
Q 1922 3584 2338 3584 
Q 2397 3584 2469 3576 
Q 2541 3569 2628 3553 
L 2631 2963 
z
" transform="scale(0.015625)"/>
       <path id="DejaVuSans-c" d="M 513 4856 
L 1013 4856 
Q 1481 4119 1714 3412 
Q 1947 2706 1947 2009 
Q 1947 1309 1714 600 
Q 1481 -109 1013 -844 
L 513 -844 
Q 928 -128 1133 580 
Q 1338 1288 1338 2009 
Q 1338 2731 1133 3434 
Q 928 4138 513 4856 
z
" transform="scale(0.015625)"/>
      </defs>
      <use xlink:href="#DejaVuSans-5"/>
      <use xlink:href="#DejaVuSans-2b" transform="translate(46 0)"/>
      <use xlink:href="#DejaVuSans-52" transform="translate(121.203125 0)"/>
      <use xlink:href="#DejaVuSans-5a" transform="translate(182.390625 0)"/>
      <use xlink:href="#DejaVuSans-3" transform="translate(264.171875 0)"/>
      <use xlink:href="#DejaVuSans-58" transform="translate(295.953125 0)"/>
      <use xlink:href="#DejaVuSans-51" transform="translate(359.328125 0)"/>
      <use xlink:href="#DejaVuSans-58" transform="translate(422.703125 0)"/>
      <use xlink:href="#DejaVuSans-56" transform="translate(486.078125 0)"/>
      <use xlink:href="#DejaVuSans-58" transform="translate(538.171875 0)"/>
      <use xlink:href="#DejaVuSans-44" transform="translate(601.546875 0)"/>
      <use xlink:href="#DejaVuSans-4f" transform="translate(662.828125 0)"/>
      <use xlink:href="#DejaVuSans-3" transform="translate(690.609375 0)"/>
      <use xlink:href="#DejaVuSans-4c" transform="translate(722.390625 0)"/>
      <use xlink:href="#DejaVuSans-56" transform="translate(750.171875 0)"/>
      <use xlink:href="#DejaVuSans-3" transform="translate(802.265625 0)"/>
      <use xlink:href="#DejaVuSans-57" transform="translate(834.046875 0)"/>
      <use xlink:href="#DejaVuSans-4b" transform="translate(873.25 0)"/>
      <use xlink:href="#DejaVuSans-4c" transform="translate(936.625 0)"/>
      <use xlink:href="#DejaVuSans-56" transform="translate(964.40625 0)"/>
      <use xlink:href="#DejaVuSans-3" transform="translate(1016.5 0)"/>
      <use xlink:href="#DejaVuSans-50" transform="translate(1048.28125 0)"/>
      <use xlink:href="#DejaVuSans-44" transform="translate(1145.6875 0)"/>
      <use xlink:href="#DejaVuSans-46" transform="translate(1206.96875 0)"/>
      <use xlink:href="#DejaVuSans-4b" transform="translate(1261.953125 0)"/>
      <use xlink:href="#DejaVuSans-4c" transform="translate(1325.328125 0)"/>
      <use xlink:href="#DejaVuSans-51" transform="translate(1353.109375 0)"/>
      <use xlink:href="#DejaVuSans-48" transform="translate(1416.484375 0)"/>
      <use xlink:href="#DejaVuSans-22" transform="translate(1478.015625 0)"/>
      <use xlink:href="#DejaVuSans-5" transform="translate(1531.09375 0)"/>
      <use xlink:href="#DejaVuSans-3" transform="translate(1577.09375 0)"/>
      <use xlink:href="#DejaVuSans-3" transform="translate(1608.875 0)"/>
      <use xlink:href="#DejaVuSans-b" transform="translate(1640.65625 0)"/>
      <use xlink:href="#DejaVuSans-44" transform="translate(1679.671875 0)"/>
      <use xlink:href="#DejaVuSans-51" transform="translate(1740.953125 0)"/>
      <use xlink:href="#DejaVuSans-52" transform="translate(1804.328125 0)"/>
      <use xlink:href="#DejaVuSans-50" transform="translate(1865.515625 0)"/>
      <use xlink:href="#DejaVuSans-44" transform="translate(1962.921875 0)"/>
      <use xlink:href="#DejaVuSans-4f" transform="translate(2024.203125 0)"/>
      <use xlink:href="#DejaVuSans-5c" transform="translate(2051.984375 0)"/>
      <use xlink:href="#DejaVuSans-3" transform="translate(2111.171875 0)"/>
      <use xlink:href="#DejaVuSans-56" transform="translate(2142.953125 0)"/>
      <use xlink:href="#DejaVuSans-46" transform="translate(2195.046875 0)"/>
      <use xlink:href="#DejaVuSans-52" transform="translate(2250.03125 0)"/>
      <use xlink:href="#DejaVuSans-55" transform="translate(2311.21875 0)"/>
      <use xlink:href="#DejaVuSans-48" transform="translate(2350.125 0)"/>
      <use xlink:href="#DejaVuSans-c" transform="translate(2411.65625 0)"/>
     </g>
    </g>
   </g>
   <g id="matplotlib.axis_2">
    <g id="ytick_1">
     <g id="line2d_13">
      <path d="M 44.2425 255.016953 
L 498.2225 255.016953 
" clip-path="url(#p8efce64484)" style="fill: none; stroke: #d7dee5; stroke-opacity: 0.5; stroke-width: 0.8; stroke-linecap: square"/>
     </g>
     <g id="line2d_14"/>
     <g id="text_8">
      <!-- 0 -->
      <g style="fill: #56657a" transform="translate(32.47125 259.95543) scale(0.13 -0.13)">
       <use xlink:href="#DejaVuSans-13"/>
      </g>
     </g>
    </g>
    <g id="ytick_2">
     <g id="line2d_15">
      <path d="M 44.2425 212.871213 
L 498.2225 212.871213 
" clip-path="url(#p8efce64484)" style="fill: none; stroke: #d7dee5; stroke-opacity: 0.5; stroke-width: 0.8; stroke-linecap: square"/>
     </g>
     <g id="line2d_16"/>
     <g id="text_9">
      <!-- 10 -->
      <g style="fill: #56657a" transform="translate(24.2 217.809689) scale(0.13 -0.13)">
       <defs>
        <path id="DejaVuSans-14" d="M 794 531 
L 1825 531 
L 1825 4091 
L 703 3866 
L 703 4441 
L 1819 4666 
L 2450 4666 
L 2450 531 
L 3481 531 
L 3481 0 
L 794 0 
L 794 531 
z
" transform="scale(0.015625)"/>
       </defs>
       <use xlink:href="#DejaVuSans-14"/>
       <use xlink:href="#DejaVuSans-13" transform="translate(63.625 0)"/>
      </g>
     </g>
    </g>
    <g id="ytick_3">
     <g id="line2d_17">
      <path d="M 44.2425 170.725472 
L 498.2225 170.725472 
" clip-path="url(#p8efce64484)" style="fill: none; stroke: #d7dee5; stroke-opacity: 0.5; stroke-width: 0.8; stroke-linecap: square"/>
     </g>
     <g id="line2d_18"/>
     <g id="text_10">
      <!-- 20 -->
      <g style="fill: #56657a" transform="translate(24.2 175.663949) scale(0.13 -0.13)">
       <use xlink:href="#DejaVuSans-15"/>
       <use xlink:href="#DejaVuSans-13" transform="translate(63.625 0)"/>
      </g>
     </g>
    </g>
    <g id="ytick_4">
     <g id="line2d_19">
      <path d="M 44.2425 128.579732 
L 498.2225 128.579732 
" clip-path="url(#p8efce64484)" style="fill: none; stroke: #d7dee5; stroke-opacity: 0.5; stroke-width: 0.8; stroke-linecap: square"/>
     </g>
     <g id="line2d_20"/>
     <g id="text_11">
      <!-- 30 -->
      <g style="fill: #56657a" transform="translate(24.2 133.518209) scale(0.13 -0.13)">
       <defs>
        <path id="DejaVuSans-16" d="M 2597 2516 
Q 3050 2419 3304 2112 
Q 3559 1806 3559 1356 
Q 3559 666 3084 287 
Q 2609 -91 1734 -91 
Q 1441 -91 1130 -33 
Q 819 25 488 141 
L 488 750 
Q 750 597 1062 519 
Q 1375 441 1716 441 
Q 2309 441 2620 675 
Q 2931 909 2931 1356 
Q 2931 1769 2642 2001 
Q 2353 2234 1838 2234 
L 1294 2234 
L 1294 2753 
L 1863 2753 
Q 2328 2753 2575 2939 
Q 2822 3125 2822 3475 
Q 2822 3834 2567 4026 
Q 2313 4219 1838 4219 
Q 1578 4219 1281 4162 
Q 984 4106 628 3988 
L 628 4550 
Q 988 4650 1302 4700 
Q 1616 4750 1894 4750 
Q 2613 4750 3031 4423 
Q 3450 4097 3450 3541 
Q 3450 3153 3228 2886 
Q 3006 2619 2597 2516 
z
" transform="scale(0.015625)"/>
       </defs>
       <use xlink:href="#DejaVuSans-16"/>
       <use xlink:href="#DejaVuSans-13" transform="translate(63.625 0)"/>
      </g>
     </g>
    </g>
    <g id="ytick_5">
     <g id="line2d_21">
      <path d="M 44.2425 86.433992 
L 498.2225 86.433992 
" clip-path="url(#p8efce64484)" style="fill: none; stroke: #d7dee5; stroke-opacity: 0.5; stroke-width: 0.8; stroke-linecap: square"/>
     </g>
     <g id="line2d_22"/>
     <g id="text_12">
      <!-- 40 -->
      <g style="fill: #56657a" transform="translate(24.2 91.372468) scale(0.13 -0.13)">
       <use xlink:href="#DejaVuSans-17"/>
       <use xlink:href="#DejaVuSans-13" transform="translate(63.625 0)"/>
      </g>
     </g>
    </g>
    <g id="ytick_6">
     <g id="line2d_23">
      <path d="M 44.2425 44.288251 
L 498.2225 44.288251 
" clip-path="url(#p8efce64484)" style="fill: none; stroke: #d7dee5; stroke-opacity: 0.5; stroke-width: 0.8; stroke-linecap: square"/>
     </g>
     <g id="line2d_24"/>
     <g id="text_13">
      <!-- 50 -->
      <g style="fill: #56657a" transform="translate(24.2 49.226728) scale(0.13 -0.13)">
       <defs>
        <path id="DejaVuSans-18" d="M 691 4666 
L 3169 4666 
L 3169 4134 
L 1269 4134 
L 1269 2991 
Q 1406 3038 1543 3061 
Q 1681 3084 1819 3084 
Q 2600 3084 3056 2656 
Q 3513 2228 3513 1497 
Q 3513 744 3044 326 
Q 2575 -91 1722 -91 
Q 1428 -91 1123 -41 
Q 819 9 494 109 
L 494 744 
Q 775 591 1075 516 
Q 1375 441 1709 441 
Q 2250 441 2565 725 
Q 2881 1009 2881 1497 
Q 2881 1984 2565 2268 
Q 2250 2553 1709 2553 
Q 1456 2553 1204 2497 
Q 953 2441 691 2322 
L 691 4666 
z
" transform="scale(0.015625)"/>
       </defs>
       <use xlink:href="#DejaVuSans-18"/>
       <use xlink:href="#DejaVuSans-13" transform="translate(63.625 0)"/>
      </g>
     </g>
    </g>
    <g id="text_14">
     <!-- Count -->
     <g style="fill: #1c2630" transform="translate(17.076953 150.411445) rotate(-90) scale(0.13 -0.13)">
      <defs>
       <path id="DejaVuSans-26" d="M 4122 4306 
L 4122 3641 
Q 3803 3938 3442 4084 
Q 3081 4231 2675 4231 
Q 1875 4231 1450 3742 
Q 1025 3253 1025 2328 
Q 1025 1406 1450 917 
Q 1875 428 2675 428 
Q 3081 428 3442 575 
Q 3803 722 4122 1019 
L 4122 359 
Q 3791 134 3420 21 
Q 3050 -91 2638 -91 
Q 1578 -91 968 557 
Q 359 1206 359 2328 
Q 359 3453 968 4101 
Q 1578 4750 2638 4750 
Q 3056 4750 3426 4639 
Q 3797 4528 4122 4306 
z
" transform="scale(0.015625)"/>
      </defs>
      <use xlink:href="#DejaVuSans-26"/>
      <use xlink:href="#DejaVuSans-52" transform="translate(69.828125 0)"/>
      <use xlink:href="#DejaVuSans-58" transform="translate(131.015625 0)"/>
      <use xlink:href="#DejaVuSans-51" transform="translate(194.390625 0)"/>
      <use xlink:href="#DejaVuSans-57" transform="translate(257.765625 0)"/>
     </g>
    </g>
   </g>
   <g id="line2d_25">
    <path d="M 316.6305 255.016953 
L 316.6305 7.2 
" clip-path="url(#p8efce64484)" style="fill: none; stroke-dasharray: 8.14,3.52; stroke-dashoffset: 0; stroke: #b26a00; stroke-width: 2.2"/>
   </g>
   <g id="patch_93">
    <path d="M 44.2425 255.016953 
L 44.2425 7.2 
" style="fill: none; stroke: #9fb0bd; stroke-width: 1.1; stroke-linejoin: miter; stroke-linecap: square"/>
   </g>
   <g id="patch_94">
    <path d="M 44.2425 255.016953 
L 498.2225 255.016953 
" style="fill: none; stroke: #9fb0bd; stroke-width: 1.1; stroke-linejoin: miter; stroke-linecap: square"/>
   </g>
   <g id="text_15">
    <!--  alarm line -->
    <g style="fill: #b26a00" transform="translate(320.757591 27.025356) scale(0.11 -0.11)">
     <use xlink:href="#DejaVuSans-3"/>
     <use xlink:href="#DejaVuSans-44" transform="translate(31.78125 0)"/>
     <use xlink:href="#DejaVuSans-4f" transform="translate(93.0625 0)"/>
     <use xlink:href="#DejaVuSans-44" transform="translate(120.84375 0)"/>
     <use xlink:href="#DejaVuSans-55" transform="translate(182.125 0)"/>
     <use xlink:href="#DejaVuSans-50" transform="translate(221.484375 0)"/>
     <use xlink:href="#DejaVuSans-3" transform="translate(318.890625 0)"/>
     <use xlink:href="#DejaVuSans-4f" transform="translate(350.671875 0)"/>
     <use xlink:href="#DejaVuSans-4c" transform="translate(378.453125 0)"/>
     <use xlink:href="#DejaVuSans-51" transform="translate(406.234375 0)"/>
     <use xlink:href="#DejaVuSans-48" transform="translate(469.609375 0)"/>
    </g>
   </g>
   <g id="legend_1">
    <g id="patch_95">
     <path d="M 55.9425 28.777969 
L 81.9425 28.777969 
L 81.9425 19.677969 
L 55.9425 19.677969 
z
" style="fill: #0b6e7a; opacity: 0.92; stroke: #ffffff; stroke-linejoin: miter"/>
    </g>
    <g id="text_16">
     <!-- Normal machines -->
     <g style="fill: #1c2630" transform="translate(92.3425 28.777969) scale(0.13 -0.13)">
      <defs>
       <path id="DejaVuSans-31" d="M 628 4666 
L 1478 4666 
L 3547 763 
L 3547 4666 
L 4159 4666 
L 4159 0 
L 3309 0 
L 1241 3903 
L 1241 0 
L 628 0 
L 628 4666 
z
" transform="scale(0.015625)"/>
      </defs>
      <use xlink:href="#DejaVuSans-31"/>
      <use xlink:href="#DejaVuSans-52" transform="translate(74.8125 0)"/>
      <use xlink:href="#DejaVuSans-55" transform="translate(136 0)"/>
      <use xlink:href="#DejaVuSans-50" transform="translate(175.359375 0)"/>
      <use xlink:href="#DejaVuSans-44" transform="translate(272.765625 0)"/>
      <use xlink:href="#DejaVuSans-4f" transform="translate(334.046875 0)"/>
      <use xlink:href="#DejaVuSans-3" transform="translate(361.828125 0)"/>
      <use xlink:href="#DejaVuSans-50" transform="translate(393.609375 0)"/>
      <use xlink:href="#DejaVuSans-44" transform="translate(491.015625 0)"/>
      <use xlink:href="#DejaVuSans-46" transform="translate(552.296875 0)"/>
      <use xlink:href="#DejaVuSans-4b" transform="translate(607.28125 0)"/>
      <use xlink:href="#DejaVuSans-4c" transform="translate(670.65625 0)"/>
      <use xlink:href="#DejaVuSans-51" transform="translate(698.4375 0)"/>
      <use xlink:href="#DejaVuSans-48" transform="translate(761.8125 0)"/>
      <use xlink:href="#DejaVuSans-56" transform="translate(823.34375 0)"/>
     </g>
    </g>
    <g id="patch_96">
     <path d="M 55.9425 48.278984 
L 81.9425 48.278984 
L 81.9425 39.178984 
L 55.9425 39.178984 
z
" style="fill: #b3433a; opacity: 0.92; stroke: #ffffff; stroke-linejoin: miter"/>
    </g>
    <g id="text_17">
     <!-- Flagged as unusual -->
     <g style="fill: #1c2630" transform="translate(92.3425 48.278984) scale(0.13 -0.13)">
      <defs>
       <path id="DejaVuSans-29" d="M 628 4666 
L 3309 4666 
L 3309 4134 
L 1259 4134 
L 1259 2759 
L 3109 2759 
L 3109 2228 
L 1259 2228 
L 1259 0 
L 628 0 
L 628 4666 
z
" transform="scale(0.015625)"/>
       <path id="DejaVuSans-4a" d="M 2906 1791 
Q 2906 2416 2648 2759 
Q 2391 3103 1925 3103 
Q 1463 3103 1205 2759 
Q 947 2416 947 1791 
Q 947 1169 1205 825 
Q 1463 481 1925 481 
Q 2391 481 2648 825 
Q 2906 1169 2906 1791 
z
M 3481 434 
Q 3481 -459 3084 -895 
Q 2688 -1331 1869 -1331 
Q 1566 -1331 1297 -1286 
Q 1028 -1241 775 -1147 
L 775 -588 
Q 1028 -725 1275 -790 
Q 1522 -856 1778 -856 
Q 2344 -856 2625 -561 
Q 2906 -266 2906 331 
L 2906 616 
Q 2728 306 2450 153 
Q 2172 0 1784 0 
Q 1141 0 747 490 
Q 353 981 353 1791 
Q 353 2603 747 3093 
Q 1141 3584 1784 3584 
Q 2172 3584 2450 3431 
Q 2728 3278 2906 2969 
L 2906 3500 
L 3481 3500 
L 3481 434 
z
" transform="scale(0.015625)"/>
       <path id="DejaVuSans-47" d="M 2906 2969 
L 2906 4863 
L 3481 4863 
L 3481 0 
L 2906 0 
L 2906 525 
Q 2725 213 2448 61 
Q 2172 -91 1784 -91 
Q 1150 -91 751 415 
Q 353 922 353 1747 
Q 353 2572 751 3078 
Q 1150 3584 1784 3584 
Q 2172 3584 2448 3432 
Q 2725 3281 2906 2969 
z
M 947 1747 
Q 947 1113 1208 752 
Q 1469 391 1925 391 
Q 2381 391 2643 752 
Q 2906 1113 2906 1747 
Q 2906 2381 2643 2742 
Q 2381 3103 1925 3103 
Q 1469 3103 1208 2742 
Q 947 2381 947 1747 
z
" transform="scale(0.015625)"/>
      </defs>
      <use xlink:href="#DejaVuSans-29"/>
      <use xlink:href="#DejaVuSans-4f" transform="translate(57.515625 0)"/>
      <use xlink:href="#DejaVuSans-44" transform="translate(85.296875 0)"/>
      <use xlink:href="#DejaVuSans-4a" transform="translate(146.578125 0)"/>
      <use xlink:href="#DejaVuSans-4a" transform="translate(210.0625 0)"/>
      <use xlink:href="#DejaVuSans-48" transform="translate(273.546875 0)"/>
      <use xlink:href="#DejaVuSans-47" transform="translate(335.078125 0)"/>
      <use xlink:href="#DejaVuSans-3" transform="translate(398.5625 0)"/>
      <use xlink:href="#DejaVuSans-44" transform="translate(430.34375 0)"/>
      <use xlink:href="#DejaVuSans-56" transform="translate(491.625 0)"/>
      <use xlink:href="#DejaVuSans-3" transform="translate(543.71875 0)"/>
      <use xlink:href="#DejaVuSans-58" transform="translate(575.5 0)"/>
      <use xlink:href="#DejaVuSans-51" transform="translate(638.875 0)"/>
      <use xlink:href="#DejaVuSans-58" transform="translate(702.25 0)"/>
      <use xlink:href="#DejaVuSans-56" transform="translate(765.625 0)"/>
      <use xlink:href="#DejaVuSans-58" transform="translate(817.71875 0)"/>
      <use xlink:href="#DejaVuSans-44" transform="translate(881.09375 0)"/>
      <use xlink:href="#DejaVuSans-4f" transform="translate(942.375 0)"/>
     </g>
    </g>
   </g>
  </g>
 </g>
 <defs>
  <clipPath id="p8efce64484">
   <rect x="44.2425" y="7.2" width="453.98" height="247.816953"/>
  </clipPath>
 </defs>
</svg>
