<?xml version="1.0" encoding="utf-8" standalone="no"?>
<!DOCTYPE svg PUBLIC "-//W3C//DTD SVG 1.1//EN"
  "http://www.w3.org/Graphics/SVG/1.1/DTD/svg11.dtd">
<svg xmlns:xlink="http://www.w3.org/1999/xlink" width="438.349091pt" height="310.278687pt" viewBox="0 0 438.349091 310.278687" xmlns="http://www.w3.org/2000/svg" version="1.1">
 <metadata>
  <rdf:RDF xmlns:dc="http://purl.org/dc/elements/1.1/" xmlns:cc="http://creativecommons.org/ns#" xmlns:rdf="http://www.w3.org/1999/02/22-rdf-syntax-ns#">
   <cc:Work>
    <dc:type rdf:resource="http://purl.org/dc/dcmitype/StillImage"/>
    <dc:date>2026-06-22T23:14:09.921035</dc:date>
    <dc:format>image/svg+xml</dc:format>
    <dc:creator>
     <cc:Agent>
      <dc:title>Matplotlib v3.11.0, https://matplotlib.org/</dc:title>
     </cc:Agent>
    </dc:creator>
   </cc:Work>
  </rdf:RDF>
 </metadata>
 <defs>
  <style type="text/css">*{stroke-linejoin: round; stroke-linecap: butt}</style>
 </defs>
 <g id="figure_1">
  <g id="patch_1">
   <path d="M 0 310.278687 
L 438.349091 310.278687 
L 438.349091 0 
L 0 0 
z
" style="fill: #ffffff"/>
  </g>
  <g id="axes_1">
   <g id="patch_2">
    <path d="M 37.835938 268.07775 
L 428.435938 268.07775 
L 428.435938 24.14175 
L 37.835938 24.14175 
z
" style="fill: #ffffff"/>
   </g>
   <g id="patch_3">
    <path d="M 55.590483 268.07775 
L 72.857457 268.07775 
L 72.857457 180.95775 
L 55.590483 180.95775 
z
" clip-path="url(#p504f96ec34)" style="fill: #0b6e7a; opacity: 0.7"/>
   </g>
   <g id="patch_4">
    <path d="M 72.857457 268.07775 
L 90.12443 268.07775 
L 90.12443 180.95775 
L 72.857457 180.95775 
z
" clip-path="url(#p504f96ec34)" style="fill: #0b6e7a; opacity: 0.7"/>
   </g>
   <g id="patch_5">
    <path d="M 90.12443 268.07775 
L 107.391404 268.07775 
L 107.391404 122.87775 
L 90.12443 122.87775 
z
" clip-path="url(#p504f96ec34)" style="fill: #0b6e7a; opacity: 0.7"/>
   </g>
   <g id="patch_6">
    <path d="M 107.391404 268.07775 
L 124.658377 268.07775 
L 124.658377 180.95775 
L 107.391404 180.95775 
z
" clip-path="url(#p504f96ec34)" style="fill: #0b6e7a; opacity: 0.7"/>
   </g>
   <g id="patch_7">
    <path d="M 124.658377 268.07775 
L 141.925351 268.07775 
L 141.925351 35.75775 
L 124.658377 35.75775 
z
" clip-path="url(#p504f96ec34)" style="fill: #0b6e7a; opacity: 0.7"/>
   </g>
   <g id="patch_8">
    <path d="M 141.925351 268.07775 
L 159.192324 268.07775 
L 159.192324 93.83775 
L 141.925351 93.83775 
z
" clip-path="url(#p504f96ec34)" style="fill: #0b6e7a; opacity: 0.7"/>
   </g>
   <g id="patch_9">
    <path d="M 159.192324 268.07775 
L 176.459298 268.07775 
L 176.459298 122.87775 
L 159.192324 122.87775 
z
" clip-path="url(#p504f96ec34)" style="fill: #0b6e7a; opacity: 0.7"/>
   </g>
   <g id="patch_10">
    <path d="M 176.459298 268.07775 
L 193.726272 268.07775 
L 193.726272 180.95775 
L 176.459298 180.95775 
z
" clip-path="url(#p504f96ec34)" style="fill: #0b6e7a; opacity: 0.7"/>
   </g>
   <g id="patch_11">
    <path d="M 193.726272 268.07775 
L 210.993245 268.07775 
L 210.993245 209.99775 
L 193.726272 209.99775 
z
" clip-path="url(#p504f96ec34)" style="fill: #0b6e7a; opacity: 0.7"/>
   </g>
   <g id="patch_12">
    <path d="M 210.993245 268.07775 
L 228.260219 268.07775 
L 228.260219 180.95775 
L 210.993245 180.95775 
z
" clip-path="url(#p504f96ec34)" style="fill: #0b6e7a; opacity: 0.7"/>
   </g>
   <g id="patch_13">
    <path d="M 228.260219 268.07775 
L 245.527192 268.07775 
L 245.527192 180.95775 
L 228.260219 180.95775 
z
" clip-path="url(#p504f96ec34)" style="fill: #0b6e7a; opacity: 0.7"/>
   </g>
   <g id="patch_14">
    <path d="M 245.527192 268.07775 
L 262.794166 268.07775 
L 262.794166 239.03775 
L 245.527192 239.03775 
z
" clip-path="url(#p504f96ec34)" style="fill: #0b6e7a; opacity: 0.7"/>
   </g>
   <g id="patch_15">
    <path d="M 262.794166 268.07775 
L 280.06114 268.07775 
L 280.06114 151.91775 
L 262.794166 151.91775 
z
" clip-path="url(#p504f96ec34)" style="fill: #0b6e7a; opacity: 0.7"/>
   </g>
   <g id="patch_16">
    <path d="M 280.06114 268.07775 
L 297.328113 268.07775 
L 297.328113 209.99775 
L 280.06114 209.99775 
z
" clip-path="url(#p504f96ec34)" style="fill: #0b6e7a; opacity: 0.7"/>
   </g>
   <g id="patch_17">
    <path d="M 297.328113 268.07775 
L 314.595087 268.07775 
L 314.595087 239.03775 
L 297.328113 239.03775 
z
" clip-path="url(#p504f96ec34)" style="fill: #0b6e7a; opacity: 0.7"/>
   </g>
   <g id="patch_18">
    <path d="M 314.595087 268.07775 
L 331.86206 268.07775 
L 331.86206 239.03775 
L 314.595087 239.03775 
z
" clip-path="url(#p504f96ec34)" style="fill: #0b6e7a; opacity: 0.7"/>
   </g>
   <g id="patch_19">
    <path d="M 331.86206 268.07775 
L 349.129034 268.07775 
L 349.129034 209.99775 
L 331.86206 209.99775 
z
" clip-path="url(#p504f96ec34)" style="fill: #0b6e7a; opacity: 0.7"/>
   </g>
   <g id="patch_20">
    <path d="M 349.129034 268.07775 
L 366.396007 268.07775 
L 366.396007 239.03775 
L 349.129034 239.03775 
z
" clip-path="url(#p504f96ec34)" style="fill: #0b6e7a; opacity: 0.7"/>
   </g>
   <g id="patch_21">
    <path d="M 366.396007 268.07775 
L 383.662981 268.07775 
L 383.662981 268.07775 
L 366.396007 268.07775 
z
" clip-path="url(#p504f96ec34)" style="fill: #0b6e7a; opacity: 0.7"/>
   </g>
   <g id="patch_22">
    <path d="M 383.662981 268.07775 
L 400.929955 268.07775 
L 400.929955 151.91775 
L 383.662981 151.91775 
z
" clip-path="url(#p504f96ec34)" style="fill: #0b6e7a; opacity: 0.7"/>
   </g>
   <g id="patch_23">
    <path d="M 124.638424 268.07775 
L 138.940572 268.07775 
L 138.940572 239.03775 
L 124.638424 239.03775 
z
" clip-path="url(#p504f96ec34)" style="fill: #b3433a; opacity: 0.7"/>
   </g>
   <g id="patch_24">
    <path d="M 138.940572 268.07775 
L 153.242721 268.07775 
L 153.242721 239.03775 
L 138.940572 239.03775 
z
" clip-path="url(#p504f96ec34)" style="fill: #b3433a; opacity: 0.7"/>
   </g>
   <g id="patch_25">
    <path d="M 153.242721 268.07775 
L 167.544869 268.07775 
L 167.544869 239.03775 
L 153.242721 239.03775 
z
" clip-path="url(#p504f96ec34)" style="fill: #b3433a; opacity: 0.7"/>
   </g>
   <g id="patch_26">
    <path d="M 167.544869 268.07775 
L 181.847017 268.07775 
L 181.847017 93.83775 
L 167.544869 93.83775 
z
" clip-path="url(#p504f96ec34)" style="fill: #b3433a; opacity: 0.7"/>
   </g>
   <g id="patch_27">
    <path d="M 181.847017 268.07775 
L 196.149166 268.07775 
L 196.149166 239.03775 
L 181.847017 239.03775 
z
" clip-path="url(#p504f96ec34)" style="fill: #b3433a; opacity: 0.7"/>
   </g>
   <g id="patch_28">
    <path d="M 196.149166 268.07775 
L 210.451314 268.07775 
L 210.451314 122.87775 
L 196.149166 122.87775 
z
" clip-path="url(#p504f96ec34)" style="fill: #b3433a; opacity: 0.7"/>
   </g>
   <g id="patch_29">
    <path d="M 210.451314 268.07775 
L 224.753463 268.07775 
L 224.753463 93.83775 
L 210.451314 93.83775 
z
" clip-path="url(#p504f96ec34)" style="fill: #b3433a; opacity: 0.7"/>
   </g>
   <g id="patch_30">
    <path d="M 224.753463 268.07775 
L 239.055611 268.07775 
L 239.055611 209.99775 
L 224.753463 209.99775 
z
" clip-path="url(#p504f96ec34)" style="fill: #b3433a; opacity: 0.7"/>
   </g>
   <g id="patch_31">
    <path d="M 239.055611 268.07775 
L 253.357759 268.07775 
L 253.357759 151.91775 
L 239.055611 151.91775 
z
" clip-path="url(#p504f96ec34)" style="fill: #b3433a; opacity: 0.7"/>
   </g>
   <g id="patch_32">
    <path d="M 253.357759 268.07775 
L 267.659908 268.07775 
L 267.659908 209.99775 
L 253.357759 209.99775 
z
" clip-path="url(#p504f96ec34)" style="fill: #b3433a; opacity: 0.7"/>
   </g>
   <g id="patch_33">
    <path d="M 267.659908 268.07775 
L 281.962056 268.07775 
L 281.962056 64.79775 
L 267.659908 64.79775 
z
" clip-path="url(#p504f96ec34)" style="fill: #b3433a; opacity: 0.7"/>
   </g>
   <g id="patch_34">
    <path d="M 281.962056 268.07775 
L 296.264205 268.07775 
L 296.264205 64.79775 
L 281.962056 64.79775 
z
" clip-path="url(#p504f96ec34)" style="fill: #b3433a; opacity: 0.7"/>
   </g>
   <g id="patch_35">
    <path d="M 296.264205 268.07775 
L 310.566353 268.07775 
L 310.566353 180.95775 
L 296.264205 180.95775 
z
" clip-path="url(#p504f96ec34)" style="fill: #b3433a; opacity: 0.7"/>
   </g>
   <g id="patch_36">
    <path d="M 310.566353 268.07775 
L 324.868502 268.07775 
L 324.868502 180.95775 
L 310.566353 180.95775 
z
" clip-path="url(#p504f96ec34)" style="fill: #b3433a; opacity: 0.7"/>
   </g>
   <g id="patch_37">
    <path d="M 324.868502 268.07775 
L 339.17065 268.07775 
L 339.17065 209.99775 
L 324.868502 209.99775 
z
" clip-path="url(#p504f96ec34)" style="fill: #b3433a; opacity: 0.7"/>
   </g>
   <g id="patch_38">
    <path d="M 339.17065 268.07775 
L 353.472798 268.07775 
L 353.472798 180.95775 
L 339.17065 180.95775 
z
" clip-path="url(#p504f96ec34)" style="fill: #b3433a; opacity: 0.7"/>
   </g>
   <g id="patch_39">
    <path d="M 353.472798 268.07775 
L 367.774947 268.07775 
L 367.774947 180.95775 
L 353.472798 180.95775 
z
" clip-path="url(#p504f96ec34)" style="fill: #b3433a; opacity: 0.7"/>
   </g>
   <g id="patch_40">
    <path d="M 367.774947 268.07775 
L 382.077095 268.07775 
L 382.077095 239.03775 
L 367.774947 239.03775 
z
" clip-path="url(#p504f96ec34)" style="fill: #b3433a; opacity: 0.7"/>
   </g>
   <g id="patch_41">
    <path d="M 382.077095 268.07775 
L 396.379244 268.07775 
L 396.379244 268.07775 
L 382.077095 268.07775 
z
" clip-path="url(#p504f96ec34)" style="fill: #b3433a; opacity: 0.7"/>
   </g>
   <g id="patch_42">
    <path d="M 396.379244 268.07775 
L 410.681392 268.07775 
L 410.681392 209.99775 
L 396.379244 209.99775 
z
" clip-path="url(#p504f96ec34)" style="fill: #b3433a; opacity: 0.7"/>
   </g>
   <g id="matplotlib.axis_1">
    <g id="xtick_1">
     <g id="line2d_1">
      <path d="M 41.055972 268.07775 
L 41.055972 24.14175 
" clip-path="url(#p504f96ec34)" style="fill: none; stroke: #9fb0bd; stroke-opacity: 0.18; stroke-width: 0.8; stroke-linecap: square"/>
     </g>
     <g id="line2d_2">
      <defs>
       <path id="m1be5b0e0e0" d="M 0 0 
L 0 3.5 
" style="stroke: #56657a; stroke-width: 0.8"/>
      </defs>
      <g>
       <use xlink:href="#m1be5b0e0e0" x="41.055972" y="268.07775" style="fill: #56657a; stroke: #56657a; stroke-width: 0.8"/>
      </g>
     </g>
     <g id="text_1">
      <text style="font-size: 12px; font-family: 'DejaVu Sans'; text-anchor: middle; fill: #56657a" x="41.055972" y="284.194937" transform="rotate(-0 41.055972 284.194937)">0.400</text>
     </g>
    </g>
    <g id="xtick_2">
     <g id="line2d_3">
      <path d="M 87.670503 268.07775 
L 87.670503 24.14175 
" clip-path="url(#p504f96ec34)" style="fill: none; stroke: #9fb0bd; stroke-opacity: 0.18; stroke-width: 0.8; stroke-linecap: square"/>
     </g>
     <g id="line2d_4">
      <g>
       <use xlink:href="#m1be5b0e0e0" x="87.670503" y="268.07775" style="fill: #56657a; stroke: #56657a; stroke-width: 0.8"/>
      </g>
     </g>
     <g id="text_2">
      <text style="font-size: 12px; font-family: 'DejaVu Sans'; text-anchor: middle; fill: #56657a" x="87.670503" y="284.194937" transform="rotate(-0 87.670503 284.194937)">0.425</text>
     </g>
    </g>
    <g id="xtick_3">
     <g id="line2d_5">
      <path d="M 134.285033 268.07775 
L 134.285033 24.14175 
" clip-path="url(#p504f96ec34)" style="fill: none; stroke: #9fb0bd; stroke-opacity: 0.18; stroke-width: 0.8; stroke-linecap: square"/>
     </g>
     <g id="line2d_6">
      <g>
       <use xlink:href="#m1be5b0e0e0" x="134.285033" y="268.07775" style="fill: #56657a; stroke: #56657a; stroke-width: 0.8"/>
      </g>
     </g>
     <g id="text_3">
      <text style="font-size: 12px; font-family: 'DejaVu Sans'; text-anchor: middle; fill: #56657a" x="134.285033" y="284.194937" transform="rotate(-0 134.285033 284.194937)">0.450</text>
     </g>
    </g>
    <g id="xtick_4">
     <g id="line2d_7">
      <path d="M 180.899564 268.07775 
L 180.899564 24.14175 
" clip-path="url(#p504f96ec34)" style="fill: none; stroke: #9fb0bd; stroke-opacity: 0.18; stroke-width: 0.8; stroke-linecap: square"/>
     </g>
     <g id="line2d_8">
      <g>
       <use xlink:href="#m1be5b0e0e0" x="180.899564" y="268.07775" style="fill: #56657a; stroke: #56657a; stroke-width: 0.8"/>
      </g>
     </g>
     <g id="text_4">
      <text style="font-size: 12px; font-family: 'DejaVu Sans'; text-anchor: middle; fill: #56657a" x="180.899564" y="284.194937" transform="rotate(-0 180.899564 284.194937)">0.475</text>
     </g>
    </g>
    <g id="xtick_5">
     <g id="line2d_9">
      <path d="M 227.514094 268.07775 
L 227.514094 24.14175 
" clip-path="url(#p504f96ec34)" style="fill: none; stroke: #9fb0bd; stroke-opacity: 0.18; stroke-width: 0.8; stroke-linecap: square"/>
     </g>
     <g id="line2d_10">
      <g>
       <use xlink:href="#m1be5b0e0e0" x="227.514094" y="268.07775" style="fill: #56657a; stroke: #56657a; stroke-width: 0.8"/>
      </g>
     </g>
     <g id="text_5">
      <text style="font-size: 12px; font-family: 'DejaVu Sans'; text-anchor: middle; fill: #56657a" x="227.514094" y="284.194937" transform="rotate(-0 227.514094 284.194937)">0.500</text>
     </g>
    </g>
    <g id="xtick_6">
     <g id="line2d_11">
      <path d="M 274.128625 268.07775 
L 274.128625 24.14175 
" clip-path="url(#p504f96ec34)" style="fill: none; stroke: #9fb0bd; stroke-opacity: 0.18; stroke-width: 0.8; stroke-linecap: square"/>
     </g>
     <g id="line2d_12">
      <g>
       <use xlink:href="#m1be5b0e0e0" x="274.128625" y="268.07775" style="fill: #56657a; stroke: #56657a; stroke-width: 0.8"/>
      </g>
     </g>
     <g id="text_6">
      <text style="font-size: 12px; font-family: 'DejaVu Sans'; text-anchor: middle; fill: #56657a" x="274.128625" y="284.194937" transform="rotate(-0 274.128625 284.194937)">0.525</text>
     </g>
    </g>
    <g id="xtick_7">
     <g id="line2d_13">
      <path d="M 320.743155 268.07775 
L 320.743155 24.14175 
" clip-path="url(#p504f96ec34)" style="fill: none; stroke: #9fb0bd; stroke-opacity: 0.18; stroke-width: 0.8; stroke-linecap: square"/>
     </g>
     <g id="line2d_14">
      <g>
       <use xlink:href="#m1be5b0e0e0" x="320.743155" y="268.07775" style="fill: #56657a; stroke: #56657a; stroke-width: 0.8"/>
      </g>
     </g>
     <g id="text_7">
      <text style="font-size: 12px; font-family: 'DejaVu Sans'; text-anchor: middle; fill: #56657a" x="320.743155" y="284.194937" transform="rotate(-0 320.743155 284.194937)">0.550</text>
     </g>
    </g>
    <g id="xtick_8">
     <g id="line2d_15">
      <path d="M 367.357686 268.07775 
L 367.357686 24.14175 
" clip-path="url(#p504f96ec34)" style="fill: none; stroke: #9fb0bd; stroke-opacity: 0.18; stroke-width: 0.8; stroke-linecap: square"/>
     </g>
     <g id="line2d_16">
      <g>
       <use xlink:href="#m1be5b0e0e0" x="367.357686" y="268.07775" style="fill: #56657a; stroke: #56657a; stroke-width: 0.8"/>
      </g>
     </g>
     <g id="text_8">
      <text style="font-size: 12px; font-family: 'DejaVu Sans'; text-anchor: middle; fill: #56657a" x="367.357686" y="284.194937" transform="rotate(-0 367.357686 284.194937)">0.575</text>
     </g>
    </g>
    <g id="xtick_9">
     <g id="line2d_17">
      <path d="M 413.972216 268.07775 
L 413.972216 24.14175 
" clip-path="url(#p504f96ec34)" style="fill: none; stroke: #9fb0bd; stroke-opacity: 0.18; stroke-width: 0.8; stroke-linecap: square"/>
     </g>
     <g id="line2d_18">
      <g>
       <use xlink:href="#m1be5b0e0e0" x="413.972216" y="268.07775" style="fill: #56657a; stroke: #56657a; stroke-width: 0.8"/>
      </g>
     </g>
     <g id="text_9">
      <text style="font-size: 12px; font-family: 'DejaVu Sans'; text-anchor: middle; fill: #56657a" x="413.972216" y="284.194937" transform="rotate(-0 413.972216 284.194937)">0.600</text>
     </g>
    </g>
    <g id="text_10">
     <text style="font-size: 12px; font-family: 'DejaVu Sans'; text-anchor: middle; fill: #1c2630" x="233.135938" y="300.195875" transform="rotate(-0 233.135938 300.195875)">surprise score  (how UNlike a healthy fan)</text>
    </g>
   </g>
   <g id="matplotlib.axis_2">
    <g id="ytick_1">
     <g id="line2d_19">
      <path d="M 37.835938 268.07775 
L 428.435938 268.07775 
" clip-path="url(#p504f96ec34)" style="fill: none; stroke: #9fb0bd; stroke-opacity: 0.18; stroke-width: 0.8; stroke-linecap: square"/>
     </g>
     <g id="line2d_20">
      <defs>
       <path id="m56d1cc8458" d="M 0 0 
L -3.5 0 
" style="stroke: #56657a; stroke-width: 0.8"/>
      </defs>
      <g>
       <use xlink:href="#m56d1cc8458" x="37.835938" y="268.07775" style="fill: #56657a; stroke: #56657a; stroke-width: 0.8"/>
      </g>
     </g>
     <g id="text_11">
      <text style="font-size: 12px; font-family: 'DejaVu Sans'; text-anchor: end; fill: #56657a" x="30.835938" y="272.636344" transform="rotate(-0 30.835938 272.636344)">0</text>
     </g>
    </g>
    <g id="ytick_2">
     <g id="line2d_21">
      <path d="M 37.835938 239.03775 
L 428.435938 239.03775 
" clip-path="url(#p504f96ec34)" style="fill: none; stroke: #9fb0bd; stroke-opacity: 0.18; stroke-width: 0.8; stroke-linecap: square"/>
     </g>
     <g id="line2d_22">
      <g>
       <use xlink:href="#m56d1cc8458" x="37.835938" y="239.03775" style="fill: #56657a; stroke: #56657a; stroke-width: 0.8"/>
      </g>
     </g>
     <g id="text_12">
      <text style="font-size: 12px; font-family: 'DejaVu Sans'; text-anchor: end; fill: #56657a" x="30.835938" y="243.596344" transform="rotate(-0 30.835938 243.596344)">1</text>
     </g>
    </g>
    <g id="ytick_3">
     <g id="line2d_23">
      <path d="M 37.835938 209.99775 
L 428.435938 209.99775 
" clip-path="url(#p504f96ec34)" style="fill: none; stroke: #9fb0bd; stroke-opacity: 0.18; stroke-width: 0.8; stroke-linecap: square"/>
     </g>
     <g id="line2d_24">
      <g>
       <use xlink:href="#m56d1cc8458" x="37.835938" y="209.99775" style="fill: #56657a; stroke: #56657a; stroke-width: 0.8"/>
      </g>
     </g>
     <g id="text_13">
      <text style="font-size: 12px; font-family: 'DejaVu Sans'; text-anchor: end; fill: #56657a" x="30.835938" y="214.556344" transform="rotate(-0 30.835938 214.556344)">2</text>
     </g>
    </g>
    <g id="ytick_4">
     <g id="line2d_25">
      <path d="M 37.835938 180.95775 
L 428.435938 180.95775 
" clip-path="url(#p504f96ec34)" style="fill: none; stroke: #9fb0bd; stroke-opacity: 0.18; stroke-width: 0.8; stroke-linecap: square"/>
     </g>
     <g id="line2d_26">
      <g>
       <use xlink:href="#m56d1cc8458" x="37.835938" y="180.95775" style="fill: #56657a; stroke: #56657a; stroke-width: 0.8"/>
      </g>
     </g>
     <g id="text_14">
      <text style="font-size: 12px; font-family: 'DejaVu Sans'; text-anchor: end; fill: #56657a" x="30.835938" y="185.516344" transform="rotate(-0 30.835938 185.516344)">3</text>
     </g>
    </g>
    <g id="ytick_5">
     <g id="line2d_27">
      <path d="M 37.835938 151.91775 
L 428.435938 151.91775 
" clip-path="url(#p504f96ec34)" style="fill: none; stroke: #9fb0bd; stroke-opacity: 0.18; stroke-width: 0.8; stroke-linecap: square"/>
     </g>
     <g id="line2d_28">
      <g>
       <use xlink:href="#m56d1cc8458" x="37.835938" y="151.91775" style="fill: #56657a; stroke: #56657a; stroke-width: 0.8"/>
      </g>
     </g>
     <g id="text_15">
      <text style="font-size: 12px; font-family: 'DejaVu Sans'; text-anchor: end; fill: #56657a" x="30.835938" y="156.476344" transform="rotate(-0 30.835938 156.476344)">4</text>
     </g>
    </g>
    <g id="ytick_6">
     <g id="line2d_29">
      <path d="M 37.835938 122.87775 
L 428.435938 122.87775 
" clip-path="url(#p504f96ec34)" style="fill: none; stroke: #9fb0bd; stroke-opacity: 0.18; stroke-width: 0.8; stroke-linecap: square"/>
     </g>
     <g id="line2d_30">
      <g>
       <use xlink:href="#m56d1cc8458" x="37.835938" y="122.87775" style="fill: #56657a; stroke: #56657a; stroke-width: 0.8"/>
      </g>
     </g>
     <g id="text_16">
      <text style="font-size: 12px; font-family: 'DejaVu Sans'; text-anchor: end; fill: #56657a" x="30.835938" y="127.436344" transform="rotate(-0 30.835938 127.436344)">5</text>
     </g>
    </g>
    <g id="ytick_7">
     <g id="line2d_31">
      <path d="M 37.835938 93.83775 
L 428.435938 93.83775 
" clip-path="url(#p504f96ec34)" style="fill: none; stroke: #9fb0bd; stroke-opacity: 0.18; stroke-width: 0.8; stroke-linecap: square"/>
     </g>
     <g id="line2d_32">
      <g>
       <use xlink:href="#m56d1cc8458" x="37.835938" y="93.83775" style="fill: #56657a; stroke: #56657a; stroke-width: 0.8"/>
      </g>
     </g>
     <g id="text_17">
      <text style="font-size: 12px; font-family: 'DejaVu Sans'; text-anchor: end; fill: #56657a" x="30.835938" y="98.396344" transform="rotate(-0 30.835938 98.396344)">6</text>
     </g>
    </g>
    <g id="ytick_8">
     <g id="line2d_33">
      <path d="M 37.835938 64.79775 
L 428.435938 64.79775 
" clip-path="url(#p504f96ec34)" style="fill: none; stroke: #9fb0bd; stroke-opacity: 0.18; stroke-width: 0.8; stroke-linecap: square"/>
     </g>
     <g id="line2d_34">
      <g>
       <use xlink:href="#m56d1cc8458" x="37.835938" y="64.79775" style="fill: #56657a; stroke: #56657a; stroke-width: 0.8"/>
      </g>
     </g>
     <g id="text_18">
      <text style="font-size: 12px; font-family: 'DejaVu Sans'; text-anchor: end; fill: #56657a" x="30.835938" y="69.356344" transform="rotate(-0 30.835938 69.356344)">7</text>
     </g>
    </g>
    <g id="ytick_9">
     <g id="line2d_35">
      <path d="M 37.835938 35.75775 
L 428.435938 35.75775 
" clip-path="url(#p504f96ec34)" style="fill: none; stroke: #9fb0bd; stroke-opacity: 0.18; stroke-width: 0.8; stroke-linecap: square"/>
     </g>
     <g id="line2d_36">
      <g>
       <use xlink:href="#m56d1cc8458" x="37.835938" y="35.75775" style="fill: #56657a; stroke: #56657a; stroke-width: 0.8"/>
      </g>
     </g>
     <g id="text_19">
      <text style="font-size: 12px; font-family: 'DejaVu Sans'; text-anchor: end; fill: #56657a" x="30.835938" y="40.316344" transform="rotate(-0 30.835938 40.316344)">8</text>
     </g>
    </g>
    <g id="text_20">
     <text style="font-size: 12px; font-family: 'DejaVu Sans'; text-anchor: middle; fill: #1c2630" x="16.318125" y="146.10975" transform="rotate(-90 16.318125 146.10975)">number of clips</text>
    </g>
   </g>
   <g id="line2d_37">
    <path d="M 271.866466 268.07775 
L 271.866466 24.14175 
" clip-path="url(#p504f96ec34)" style="fill: none; stroke-dasharray: 7.4,3.2; stroke-dashoffset: 0; stroke: #b26a00; stroke-width: 2"/>
   </g>
   <g id="patch_43">
    <path d="M 37.835938 268.07775 
L 37.835938 24.14175 
" style="fill: none; stroke: #56657a; stroke-width: 0.8; stroke-linejoin: miter; stroke-linecap: square"/>
   </g>
   <g id="patch_44">
    <path d="M 428.435938 268.07775 
L 428.435938 24.14175 
" style="fill: none; stroke: #56657a; stroke-width: 0.8; stroke-linejoin: miter; stroke-linecap: square"/>
   </g>
   <g id="patch_45">
    <path d="M 37.835938 268.07775 
L 428.435938 268.07775 
" style="fill: none; stroke: #56657a; stroke-width: 0.8; stroke-linejoin: miter; stroke-linecap: square"/>
   </g>
   <g id="patch_46">
    <path d="M 37.835938 24.14175 
L 428.435938 24.14175 
" style="fill: none; stroke: #56657a; stroke-width: 0.8; stroke-linejoin: miter; stroke-linecap: square"/>
   </g>
   <g id="text_21">
    <text style="font-size: 14.4px; font-family: 'DejaVu Sans'; text-anchor: middle; fill: #1c2630" x="233.135938" y="18.14175" transform="rotate(-0 233.135938 18.14175)">Learn normal, then flag the surprising  ·  AUC ≈ 0.74</text>
   </g>
   <g id="legend_1">
    <g id="patch_47">
     <path d="M 46.235937 87.744562 
L 200.027187 87.744562 
Q 202.427188 87.744562 202.427188 85.344562 
L 202.427188 32.54175 
Q 202.427188 30.14175 200.027187 30.14175 
L 46.235937 30.14175 
Q 43.835938 30.14175 43.835938 32.54175 
L 43.835938 85.344562 
Q 43.835938 87.744562 46.235937 87.744562 
L 46.235937 87.744562 
z
" style="fill: none; opacity: 0.8; stroke: #56657a; stroke-linejoin: miter"/>
    </g>
    <g id="patch_48">
     <path d="M 48.635937 44.059875 
L 72.635937 44.059875 
L 72.635937 35.659875 
L 48.635937 35.659875 
z
" style="fill: #0b6e7a; opacity: 0.7"/>
    </g>
    <g id="text_22">
     <text style="font-size: 12px; font-family: 'DejaVu Sans'; text-anchor: start; fill: #1c2630" x="82.235938" y="44.059875" transform="rotate(-0 82.235938 44.059875)">normal</text>
    </g>
    <g id="patch_49">
     <path d="M 48.635937 62.060812 
L 72.635937 62.060812 
L 72.635937 53.660812 
L 48.635937 53.660812 
z
" style="fill: #b3433a; opacity: 0.7"/>
    </g>
    <g id="text_23">
     <text style="font-size: 12px; font-family: 'DejaVu Sans'; text-anchor: start; fill: #1c2630" x="82.235938" y="62.060812" transform="rotate(-0 82.235938 62.060812)">faulty</text>
    </g>
    <g id="line2d_38">
     <path d="M 48.635937 75.86175 
L 60.635937 75.86175 
L 72.635937 75.86175 
" style="fill: none; stroke-dasharray: 7.4,3.2; stroke-dashoffset: 0; stroke: #b26a00; stroke-width: 2"/>
    </g>
    <g id="text_24">
     <text style="font-size: 12px; font-family: 'DejaVu Sans'; text-anchor: start; fill: #1c2630" x="82.235938" y="80.06175" transform="rotate(-0 82.235938 80.06175)">example alarm line</text>
    </g>
   </g>
  </g>
 </g>
 <defs>
  <clipPath id="p504f96ec34">
   <rect x="37.835938" y="24.14175" width="390.6" height="243.936"/>
  </clipPath>
 </defs>
</svg>
