<?xml version="1.0" encoding="utf-8" standalone="no"?>
<!DOCTYPE svg PUBLIC "-//W3C//DTD SVG 1.1//EN"
  "http://www.w3.org/Graphics/SVG/1.1/DTD/svg11.dtd">
<svg xmlns:xlink="http://www.w3.org/1999/xlink" width="384.819648pt" height="418.120156pt" viewBox="0 0 384.819648 418.120156" xmlns="http://www.w3.org/2000/svg" version="1.1">
 <metadata>
  <rdf:RDF xmlns:dc="http://purl.org/dc/elements/1.1/" xmlns:cc="http://creativecommons.org/ns#" xmlns:rdf="http://www.w3.org/1999/02/22-rdf-syntax-ns#">
   <cc:Work>
    <dc:type rdf:resource="http://purl.org/dc/dcmitype/StillImage"/>
    <dc:date>2026-06-21T14:53:17.649525</dc:date>
    <dc:format>image/svg+xml</dc:format>
    <dc:creator>
     <cc:Agent>
      <dc:title>Matplotlib v3.11.0, https://matplotlib.org/</dc:title>
     </cc:Agent>
    </dc:creator>
   </cc:Work>
  </rdf:RDF>
 </metadata>
 <defs>
  <style type="text/css">*{stroke-linejoin: round; stroke-linecap: butt}</style>
 </defs>
 <g id="figure_1">
  <g id="patch_1">
   <path d="M 0 418.120156 
L 384.819648 418.120156 
L 384.819648 0 
L 0 0 
L 0 418.120156 
z
" style="fill: none"/>
  </g>
  <g id="axes_1">
   <g id="patch_2">
    <path d="M 44.243516 377.419141 
L 377.619648 377.419141 
L 377.619648 44.043008 
L 44.243516 44.043008 
L 44.243516 377.419141 
z
" style="fill: none"/>
   </g>
   <g id="matplotlib.axis_1">
    <g id="xtick_1">
     <g id="line2d_1">
      <path d="M 44.243516 377.419141 
L 44.243516 44.043008 
" clip-path="url(#pfd2162e271)" style="fill: none; stroke: #36b6c9; stroke-opacity: 0.16; stroke-width: 0.7; stroke-linecap: square"/>
     </g>
     <g id="line2d_2"/>
     <g id="text_1">
      <!-- 0.0 -->
      <g style="fill: #88a1b2" transform="translate(33.906484 390.796094) scale(0.13 -0.13)">
       <defs>
        <path id="DejaVuSans-13" d="M 2034 4250 
Q 1547 4250 1301 3770 
Q 1056 3291 1056 2328 
Q 1056 1369 1301 889 
Q 1547 409 2034 409 
Q 2525 409 2770 889 
Q 3016 1369 3016 2328 
Q 3016 3291 2770 3770 
Q 2525 4250 2034 4250 
z
M 2034 4750 
Q 2819 4750 3233 4129 
Q 3647 3509 3647 2328 
Q 3647 1150 3233 529 
Q 2819 -91 2034 -91 
Q 1250 -91 836 529 
Q 422 1150 422 2328 
Q 422 3509 836 4129 
Q 1250 4750 2034 4750 
z
" transform="scale(0.015625)"/>
        <path id="DejaVuSans-11" d="M 684 794 
L 1344 794 
L 1344 0 
L 684 0 
L 684 794 
z
" transform="scale(0.015625)"/>
       </defs>
       <use xlink:href="#DejaVuSans-13"/>
       <use xlink:href="#DejaVuSans-11" transform="translate(63.625 0)"/>
       <use xlink:href="#DejaVuSans-13" transform="translate(95.40625 0)"/>
      </g>
     </g>
    </g>
    <g id="xtick_2">
     <g id="line2d_3">
      <path d="M 93.544925 377.419141 
L 93.544925 44.043008 
" clip-path="url(#pfd2162e271)" style="fill: none; stroke: #36b6c9; stroke-opacity: 0.16; stroke-width: 0.7; stroke-linecap: square"/>
     </g>
     <g id="line2d_4"/>
     <g id="text_2">
      <!-- 2.5 -->
      <g style="fill: #88a1b2" transform="translate(83.207894 390.796094) scale(0.13 -0.13)">
       <defs>
        <path id="DejaVuSans-15" d="M 1228 531 
L 3431 531 
L 3431 0 
L 469 0 
L 469 531 
Q 828 903 1448 1529 
Q 2069 2156 2228 2338 
Q 2531 2678 2651 2914 
Q 2772 3150 2772 3378 
Q 2772 3750 2511 3984 
Q 2250 4219 1831 4219 
Q 1534 4219 1204 4116 
Q 875 4013 500 3803 
L 500 4441 
Q 881 4594 1212 4672 
Q 1544 4750 1819 4750 
Q 2544 4750 2975 4387 
Q 3406 4025 3406 3419 
Q 3406 3131 3298 2873 
Q 3191 2616 2906 2266 
Q 2828 2175 2409 1742 
Q 1991 1309 1228 531 
z
" transform="scale(0.015625)"/>
        <path id="DejaVuSans-18" d="M 691 4666 
L 3169 4666 
L 3169 4134 
L 1269 4134 
L 1269 2991 
Q 1406 3038 1543 3061 
Q 1681 3084 1819 3084 
Q 2600 3084 3056 2656 
Q 3513 2228 3513 1497 
Q 3513 744 3044 326 
Q 2575 -91 1722 -91 
Q 1428 -91 1123 -41 
Q 819 9 494 109 
L 494 744 
Q 775 591 1075 516 
Q 1375 441 1709 441 
Q 2250 441 2565 725 
Q 2881 1009 2881 1497 
Q 2881 1984 2565 2268 
Q 2250 2553 1709 2553 
Q 1456 2553 1204 2497 
Q 953 2441 691 2322 
L 691 4666 
z
" transform="scale(0.015625)"/>
       </defs>
       <use xlink:href="#DejaVuSans-15"/>
       <use xlink:href="#DejaVuSans-11" transform="translate(63.625 0)"/>
       <use xlink:href="#DejaVuSans-18" transform="translate(95.40625 0)"/>
      </g>
     </g>
    </g>
    <g id="xtick_3">
     <g id="line2d_5">
      <path d="M 142.846335 377.419141 
L 142.846335 44.043008 
" clip-path="url(#pfd2162e271)" style="fill: none; stroke: #36b6c9; stroke-opacity: 0.16; stroke-width: 0.7; stroke-linecap: square"/>
     </g>
     <g id="line2d_6"/>
     <g id="text_3">
      <!-- 5.0 -->
      <g style="fill: #88a1b2" transform="translate(132.509304 390.796094) scale(0.13 -0.13)">
       <use xlink:href="#DejaVuSans-18"/>
       <use xlink:href="#DejaVuSans-11" transform="translate(63.625 0)"/>
       <use xlink:href="#DejaVuSans-13" transform="translate(95.40625 0)"/>
      </g>
     </g>
    </g>
    <g id="xtick_4">
     <g id="line2d_7">
      <path d="M 192.147745 377.419141 
L 192.147745 44.043008 
" clip-path="url(#pfd2162e271)" style="fill: none; stroke: #36b6c9; stroke-opacity: 0.16; stroke-width: 0.7; stroke-linecap: square"/>
     </g>
     <g id="line2d_8"/>
     <g id="text_4">
      <!-- 7.5 -->
      <g style="fill: #88a1b2" transform="translate(181.810714 390.796094) scale(0.13 -0.13)">
       <defs>
        <path id="DejaVuSans-1a" d="M 525 4666 
L 3525 4666 
L 3525 4397 
L 1831 0 
L 1172 0 
L 2766 4134 
L 525 4134 
L 525 4666 
z
" transform="scale(0.015625)"/>
       </defs>
       <use xlink:href="#DejaVuSans-1a"/>
       <use xlink:href="#DejaVuSans-11" transform="translate(63.625 0)"/>
       <use xlink:href="#DejaVuSans-18" transform="translate(95.40625 0)"/>
      </g>
     </g>
    </g>
    <g id="xtick_5">
     <g id="line2d_9">
      <path d="M 241.449155 377.419141 
L 241.449155 44.043008 
" clip-path="url(#pfd2162e271)" style="fill: none; stroke: #36b6c9; stroke-opacity: 0.16; stroke-width: 0.7; stroke-linecap: square"/>
     </g>
     <g id="line2d_10"/>
     <g id="text_5">
      <!-- 10.0 -->
      <g style="fill: #88a1b2" transform="translate(226.976498 390.796094) scale(0.13 -0.13)">
       <defs>
        <path id="DejaVuSans-14" d="M 794 531 
L 1825 531 
L 1825 4091 
L 703 3866 
L 703 4441 
L 1819 4666 
L 2450 4666 
L 2450 531 
L 3481 531 
L 3481 0 
L 794 0 
L 794 531 
z
" transform="scale(0.015625)"/>
       </defs>
       <use xlink:href="#DejaVuSans-14"/>
       <use xlink:href="#DejaVuSans-13" transform="translate(63.625 0)"/>
       <use xlink:href="#DejaVuSans-11" transform="translate(127.25 0)"/>
       <use xlink:href="#DejaVuSans-13" transform="translate(159.03125 0)"/>
      </g>
     </g>
    </g>
    <g id="xtick_6">
     <g id="line2d_11">
      <path d="M 290.750564 377.419141 
L 290.750564 44.043008 
" clip-path="url(#pfd2162e271)" style="fill: none; stroke: #36b6c9; stroke-opacity: 0.16; stroke-width: 0.7; stroke-linecap: square"/>
     </g>
     <g id="line2d_12"/>
     <g id="text_6">
      <!-- 12.5 -->
      <g style="fill: #88a1b2" transform="translate(276.277908 390.796094) scale(0.13 -0.13)">
       <use xlink:href="#DejaVuSans-14"/>
       <use xlink:href="#DejaVuSans-15" transform="translate(63.625 0)"/>
       <use xlink:href="#DejaVuSans-11" transform="translate(127.25 0)"/>
       <use xlink:href="#DejaVuSans-18" transform="translate(159.03125 0)"/>
      </g>
     </g>
    </g>
    <g id="xtick_7">
     <g id="line2d_13">
      <path d="M 340.051974 377.419141 
L 340.051974 44.043008 
" clip-path="url(#pfd2162e271)" style="fill: none; stroke: #36b6c9; stroke-opacity: 0.16; stroke-width: 0.7; stroke-linecap: square"/>
     </g>
     <g id="line2d_14"/>
     <g id="text_7">
      <!-- 15.0 -->
      <g style="fill: #88a1b2" transform="translate(325.579318 390.796094) scale(0.13 -0.13)">
       <use xlink:href="#DejaVuSans-14"/>
       <use xlink:href="#DejaVuSans-18" transform="translate(63.625 0)"/>
       <use xlink:href="#DejaVuSans-11" transform="translate(127.25 0)"/>
       <use xlink:href="#DejaVuSans-13" transform="translate(159.03125 0)"/>
      </g>
     </g>
    </g>
    <g id="text_8">
     <!-- Actual downtime  (hours) -->
     <g style="fill: #cddde6" transform="translate(128.801035 407.797109) scale(0.13 -0.13)">
      <defs>
       <path id="DejaVuSans-24" d="M 2188 4044 
L 1331 1722 
L 3047 1722 
L 2188 4044 
z
M 1831 4666 
L 2547 4666 
L 4325 0 
L 3669 0 
L 3244 1197 
L 1141 1197 
L 716 0 
L 50 0 
L 1831 4666 
z
" transform="scale(0.015625)"/>
       <path id="DejaVuSans-46" d="M 3122 3366 
L 3122 2828 
Q 2878 2963 2633 3030 
Q 2388 3097 2138 3097 
Q 1578 3097 1268 2742 
Q 959 2388 959 1747 
Q 959 1106 1268 751 
Q 1578 397 2138 397 
Q 2388 397 2633 464 
Q 2878 531 3122 666 
L 3122 134 
Q 2881 22 2623 -34 
Q 2366 -91 2075 -91 
Q 1284 -91 818 406 
Q 353 903 353 1747 
Q 353 2603 823 3093 
Q 1294 3584 2113 3584 
Q 2378 3584 2631 3529 
Q 2884 3475 3122 3366 
z
" transform="scale(0.015625)"/>
       <path id="DejaVuSans-57" d="M 1172 4494 
L 1172 3500 
L 2356 3500 
L 2356 3053 
L 1172 3053 
L 1172 1153 
Q 1172 725 1289 603 
Q 1406 481 1766 481 
L 2356 481 
L 2356 0 
L 1766 0 
Q 1100 0 847 248 
Q 594 497 594 1153 
L 594 3053 
L 172 3053 
L 172 3500 
L 594 3500 
L 594 4494 
L 1172 4494 
z
" transform="scale(0.015625)"/>
       <path id="DejaVuSans-58" d="M 544 1381 
L 544 3500 
L 1119 3500 
L 1119 1403 
Q 1119 906 1312 657 
Q 1506 409 1894 409 
Q 2359 409 2629 706 
Q 2900 1003 2900 1516 
L 2900 3500 
L 3475 3500 
L 3475 0 
L 2900 0 
L 2900 538 
Q 2691 219 2414 64 
Q 2138 -91 1772 -91 
Q 1169 -91 856 284 
Q 544 659 544 1381 
z
M 1991 3584 
L 1991 3584 
z
" transform="scale(0.015625)"/>
       <path id="DejaVuSans-44" d="M 2194 1759 
Q 1497 1759 1228 1600 
Q 959 1441 959 1056 
Q 959 750 1161 570 
Q 1363 391 1709 391 
Q 2188 391 2477 730 
Q 2766 1069 2766 1631 
L 2766 1759 
L 2194 1759 
z
M 3341 1997 
L 3341 0 
L 2766 0 
L 2766 531 
Q 2569 213 2275 61 
Q 1981 -91 1556 -91 
Q 1019 -91 701 211 
Q 384 513 384 1019 
Q 384 1609 779 1909 
Q 1175 2209 1959 2209 
L 2766 2209 
L 2766 2266 
Q 2766 2663 2505 2880 
Q 2244 3097 1772 3097 
Q 1472 3097 1187 3025 
Q 903 2953 641 2809 
L 641 3341 
Q 956 3463 1253 3523 
Q 1550 3584 1831 3584 
Q 2591 3584 2966 3190 
Q 3341 2797 3341 1997 
z
" transform="scale(0.015625)"/>
       <path id="DejaVuSans-4f" d="M 603 4863 
L 1178 4863 
L 1178 0 
L 603 0 
L 603 4863 
z
" transform="scale(0.015625)"/>
       <path id="DejaVuSans-3" transform="scale(0.015625)"/>
       <path id="DejaVuSans-47" d="M 2906 2969 
L 2906 4863 
L 3481 4863 
L 3481 0 
L 2906 0 
L 2906 525 
Q 2725 213 2448 61 
Q 2172 -91 1784 -91 
Q 1150 -91 751 415 
Q 353 922 353 1747 
Q 353 2572 751 3078 
Q 1150 3584 1784 3584 
Q 2172 3584 2448 3432 
Q 2725 3281 2906 2969 
z
M 947 1747 
Q 947 1113 1208 752 
Q 1469 391 1925 391 
Q 2381 391 2643 752 
Q 2906 1113 2906 1747 
Q 2906 2381 2643 2742 
Q 2381 3103 1925 3103 
Q 1469 3103 1208 2742 
Q 947 2381 947 1747 
z
" transform="scale(0.015625)"/>
       <path id="DejaVuSans-52" d="M 1959 3097 
Q 1497 3097 1228 2736 
Q 959 2375 959 1747 
Q 959 1119 1226 758 
Q 1494 397 1959 397 
Q 2419 397 2687 759 
Q 2956 1122 2956 1747 
Q 2956 2369 2687 2733 
Q 2419 3097 1959 3097 
z
M 1959 3584 
Q 2709 3584 3137 3096 
Q 3566 2609 3566 1747 
Q 3566 888 3137 398 
Q 2709 -91 1959 -91 
Q 1206 -91 779 398 
Q 353 888 353 1747 
Q 353 2609 779 3096 
Q 1206 3584 1959 3584 
z
" transform="scale(0.015625)"/>
       <path id="DejaVuSans-5a" d="M 269 3500 
L 844 3500 
L 1563 769 
L 2278 3500 
L 2956 3500 
L 3675 769 
L 4391 3500 
L 4966 3500 
L 4050 0 
L 3372 0 
L 2619 2869 
L 1863 0 
L 1184 0 
L 269 3500 
z
" transform="scale(0.015625)"/>
       <path id="DejaVuSans-51" d="M 3513 2113 
L 3513 0 
L 2938 0 
L 2938 2094 
Q 2938 2591 2744 2837 
Q 2550 3084 2163 3084 
Q 1697 3084 1428 2787 
Q 1159 2491 1159 1978 
L 1159 0 
L 581 0 
L 581 3500 
L 1159 3500 
L 1159 2956 
Q 1366 3272 1645 3428 
Q 1925 3584 2291 3584 
Q 2894 3584 3203 3211 
Q 3513 2838 3513 2113 
z
" transform="scale(0.015625)"/>
       <path id="DejaVuSans-4c" d="M 603 3500 
L 1178 3500 
L 1178 0 
L 603 0 
L 603 3500 
z
M 603 4863 
L 1178 4863 
L 1178 4134 
L 603 4134 
L 603 4863 
z
" transform="scale(0.015625)"/>
       <path id="DejaVuSans-50" d="M 3328 2828 
Q 3544 3216 3844 3400 
Q 4144 3584 4550 3584 
Q 5097 3584 5394 3201 
Q 5691 2819 5691 2113 
L 5691 0 
L 5113 0 
L 5113 2094 
Q 5113 2597 4934 2840 
Q 4756 3084 4391 3084 
Q 3944 3084 3684 2787 
Q 3425 2491 3425 1978 
L 3425 0 
L 2847 0 
L 2847 2094 
Q 2847 2600 2669 2842 
Q 2491 3084 2119 3084 
Q 1678 3084 1418 2786 
Q 1159 2488 1159 1978 
L 1159 0 
L 581 0 
L 581 3500 
L 1159 3500 
L 1159 2956 
Q 1356 3278 1631 3431 
Q 1906 3584 2284 3584 
Q 2666 3584 2933 3390 
Q 3200 3197 3328 2828 
z
" transform="scale(0.015625)"/>
       <path id="DejaVuSans-48" d="M 3597 1894 
L 3597 1613 
L 953 1613 
Q 991 1019 1311 708 
Q 1631 397 2203 397 
Q 2534 397 2845 478 
Q 3156 559 3463 722 
L 3463 178 
Q 3153 47 2828 -22 
Q 2503 -91 2169 -91 
Q 1331 -91 842 396 
Q 353 884 353 1716 
Q 353 2575 817 3079 
Q 1281 3584 2069 3584 
Q 2775 3584 3186 3129 
Q 3597 2675 3597 1894 
z
M 3022 2063 
Q 3016 2534 2758 2815 
Q 2500 3097 2075 3097 
Q 1594 3097 1305 2825 
Q 1016 2553 972 2059 
L 3022 2063 
z
" transform="scale(0.015625)"/>
       <path id="DejaVuSans-b" d="M 1984 4856 
Q 1566 4138 1362 3434 
Q 1159 2731 1159 2009 
Q 1159 1288 1364 580 
Q 1569 -128 1984 -844 
L 1484 -844 
Q 1016 -109 783 600 
Q 550 1309 550 2009 
Q 550 2706 781 3412 
Q 1013 4119 1484 4856 
L 1984 4856 
z
" transform="scale(0.015625)"/>
       <path id="DejaVuSans-4b" d="M 3513 2113 
L 3513 0 
L 2938 0 
L 2938 2094 
Q 2938 2591 2744 2837 
Q 2550 3084 2163 3084 
Q 1697 3084 1428 2787 
Q 1159 2491 1159 1978 
L 1159 0 
L 581 0 
L 581 4863 
L 1159 4863 
L 1159 2956 
Q 1366 3272 1645 3428 
Q 1925 3584 2291 3584 
Q 2894 3584 3203 3211 
Q 3513 2838 3513 2113 
z
" transform="scale(0.015625)"/>
       <path id="DejaVuSans-55" d="M 2631 2963 
Q 2534 3019 2420 3045 
Q 2306 3072 2169 3072 
Q 1681 3072 1420 2755 
Q 1159 2438 1159 1844 
L 1159 0 
L 581 0 
L 581 3500 
L 1159 3500 
L 1159 2956 
Q 1341 3275 1631 3429 
Q 1922 3584 2338 3584 
Q 2397 3584 2469 3576 
Q 2541 3569 2628 3553 
L 2631 2963 
z
" transform="scale(0.015625)"/>
       <path id="DejaVuSans-56" d="M 2834 3397 
L 2834 2853 
Q 2591 2978 2328 3040 
Q 2066 3103 1784 3103 
Q 1356 3103 1142 2972 
Q 928 2841 928 2578 
Q 928 2378 1081 2264 
Q 1234 2150 1697 2047 
L 1894 2003 
Q 2506 1872 2764 1633 
Q 3022 1394 3022 966 
Q 3022 478 2636 193 
Q 2250 -91 1575 -91 
Q 1294 -91 989 -36 
Q 684 19 347 128 
L 347 722 
Q 666 556 975 473 
Q 1284 391 1588 391 
Q 1994 391 2212 530 
Q 2431 669 2431 922 
Q 2431 1156 2273 1281 
Q 2116 1406 1581 1522 
L 1381 1569 
Q 847 1681 609 1914 
Q 372 2147 372 2553 
Q 372 3047 722 3315 
Q 1072 3584 1716 3584 
Q 2034 3584 2315 3537 
Q 2597 3491 2834 3397 
z
" transform="scale(0.015625)"/>
       <path id="DejaVuSans-c" d="M 513 4856 
L 1013 4856 
Q 1481 4119 1714 3412 
Q 1947 2706 1947 2009 
Q 1947 1309 1714 600 
Q 1481 -109 1013 -844 
L 513 -844 
Q 928 -128 1133 580 
Q 1338 1288 1338 2009 
Q 1338 2731 1133 3434 
Q 928 4138 513 4856 
z
" transform="scale(0.015625)"/>
      </defs>
      <use xlink:href="#DejaVuSans-24"/>
      <use xlink:href="#DejaVuSans-46" transform="translate(66.65625 0)"/>
      <use xlink:href="#DejaVuSans-57" transform="translate(121.640625 0)"/>
      <use xlink:href="#DejaVuSans-58" transform="translate(160.84375 0)"/>
      <use xlink:href="#DejaVuSans-44" transform="translate(224.21875 0)"/>
      <use xlink:href="#DejaVuSans-4f" transform="translate(285.5 0)"/>
      <use xlink:href="#DejaVuSans-3" transform="translate(313.28125 0)"/>
      <use xlink:href="#DejaVuSans-47" transform="translate(345.0625 0)"/>
      <use xlink:href="#DejaVuSans-52" transform="translate(408.546875 0)"/>
      <use xlink:href="#DejaVuSans-5a" transform="translate(469.734375 0)"/>
      <use xlink:href="#DejaVuSans-51" transform="translate(551.515625 0)"/>
      <use xlink:href="#DejaVuSans-57" transform="translate(614.890625 0)"/>
      <use xlink:href="#DejaVuSans-4c" transform="translate(654.09375 0)"/>
      <use xlink:href="#DejaVuSans-50" transform="translate(681.875 0)"/>
      <use xlink:href="#DejaVuSans-48" transform="translate(779.28125 0)"/>
      <use xlink:href="#DejaVuSans-3" transform="translate(840.8125 0)"/>
      <use xlink:href="#DejaVuSans-3" transform="translate(872.59375 0)"/>
      <use xlink:href="#DejaVuSans-b" transform="translate(904.375 0)"/>
      <use xlink:href="#DejaVuSans-4b" transform="translate(943.390625 0)"/>
      <use xlink:href="#DejaVuSans-52" transform="translate(1006.765625 0)"/>
      <use xlink:href="#DejaVuSans-58" transform="translate(1067.953125 0)"/>
      <use xlink:href="#DejaVuSans-55" transform="translate(1131.328125 0)"/>
      <use xlink:href="#DejaVuSans-56" transform="translate(1172.4375 0)"/>
      <use xlink:href="#DejaVuSans-c" transform="translate(1224.53125 0)"/>
     </g>
    </g>
   </g>
   <g id="matplotlib.axis_2">
    <g id="ytick_1">
     <g id="line2d_15">
      <path d="M 44.243516 377.419141 
L 377.619648 377.419141 
" clip-path="url(#pfd2162e271)" style="fill: none; stroke: #36b6c9; stroke-opacity: 0.16; stroke-width: 0.7; stroke-linecap: square"/>
     </g>
     <g id="line2d_16"/>
     <g id="text_9">
      <!-- 0 -->
      <g style="fill: #88a1b2" transform="translate(32.472266 382.357617) scale(0.13 -0.13)">
       <use xlink:href="#DejaVuSans-13"/>
      </g>
     </g>
    </g>
    <g id="ytick_2">
     <g id="line2d_17">
      <path d="M 44.243516 337.978013 
L 377.619648 337.978013 
" clip-path="url(#pfd2162e271)" style="fill: none; stroke: #36b6c9; stroke-opacity: 0.16; stroke-width: 0.7; stroke-linecap: square"/>
     </g>
     <g id="line2d_18"/>
     <g id="text_10">
      <!-- 2 -->
      <g style="fill: #88a1b2" transform="translate(32.472266 342.916489) scale(0.13 -0.13)">
       <use xlink:href="#DejaVuSans-15"/>
      </g>
     </g>
    </g>
    <g id="ytick_3">
     <g id="line2d_19">
      <path d="M 44.243516 298.536885 
L 377.619648 298.536885 
" clip-path="url(#pfd2162e271)" style="fill: none; stroke: #36b6c9; stroke-opacity: 0.16; stroke-width: 0.7; stroke-linecap: square"/>
     </g>
     <g id="line2d_20"/>
     <g id="text_11">
      <!-- 4 -->
      <g style="fill: #88a1b2" transform="translate(32.472266 303.475362) scale(0.13 -0.13)">
       <defs>
        <path id="DejaVuSans-17" d="M 2419 4116 
L 825 1625 
L 2419 1625 
L 2419 4116 
z
M 2253 4666 
L 3047 4666 
L 3047 1625 
L 3713 1625 
L 3713 1100 
L 3047 1100 
L 3047 0 
L 2419 0 
L 2419 1100 
L 313 1100 
L 313 1709 
L 2253 4666 
z
" transform="scale(0.015625)"/>
       </defs>
       <use xlink:href="#DejaVuSans-17"/>
      </g>
     </g>
    </g>
    <g id="ytick_4">
     <g id="line2d_21">
      <path d="M 44.243516 259.095757 
L 377.619648 259.095757 
" clip-path="url(#pfd2162e271)" style="fill: none; stroke: #36b6c9; stroke-opacity: 0.16; stroke-width: 0.7; stroke-linecap: square"/>
     </g>
     <g id="line2d_22"/>
     <g id="text_12">
      <!-- 6 -->
      <g style="fill: #88a1b2" transform="translate(32.472266 264.034234) scale(0.13 -0.13)">
       <defs>
        <path id="DejaVuSans-19" d="M 2113 2584 
Q 1688 2584 1439 2293 
Q 1191 2003 1191 1497 
Q 1191 994 1439 701 
Q 1688 409 2113 409 
Q 2538 409 2786 701 
Q 3034 994 3034 1497 
Q 3034 2003 2786 2293 
Q 2538 2584 2113 2584 
z
M 3366 4563 
L 3366 3988 
Q 3128 4100 2886 4159 
Q 2644 4219 2406 4219 
Q 1781 4219 1451 3797 
Q 1122 3375 1075 2522 
Q 1259 2794 1537 2939 
Q 1816 3084 2150 3084 
Q 2853 3084 3261 2657 
Q 3669 2231 3669 1497 
Q 3669 778 3244 343 
Q 2819 -91 2113 -91 
Q 1303 -91 875 529 
Q 447 1150 447 2328 
Q 447 3434 972 4092 
Q 1497 4750 2381 4750 
Q 2619 4750 2861 4703 
Q 3103 4656 3366 4563 
z
" transform="scale(0.015625)"/>
       </defs>
       <use xlink:href="#DejaVuSans-19"/>
      </g>
     </g>
    </g>
    <g id="ytick_5">
     <g id="line2d_23">
      <path d="M 44.243516 219.654629 
L 377.619648 219.654629 
" clip-path="url(#pfd2162e271)" style="fill: none; stroke: #36b6c9; stroke-opacity: 0.16; stroke-width: 0.7; stroke-linecap: square"/>
     </g>
     <g id="line2d_24"/>
     <g id="text_13">
      <!-- 8 -->
      <g style="fill: #88a1b2" transform="translate(32.472266 224.593106) scale(0.13 -0.13)">
       <defs>
        <path id="DejaVuSans-1b" d="M 2034 2216 
Q 1584 2216 1326 1975 
Q 1069 1734 1069 1313 
Q 1069 891 1326 650 
Q 1584 409 2034 409 
Q 2484 409 2743 651 
Q 3003 894 3003 1313 
Q 3003 1734 2745 1975 
Q 2488 2216 2034 2216 
z
M 1403 2484 
Q 997 2584 770 2862 
Q 544 3141 544 3541 
Q 544 4100 942 4425 
Q 1341 4750 2034 4750 
Q 2731 4750 3128 4425 
Q 3525 4100 3525 3541 
Q 3525 3141 3298 2862 
Q 3072 2584 2669 2484 
Q 3125 2378 3379 2068 
Q 3634 1759 3634 1313 
Q 3634 634 3220 271 
Q 2806 -91 2034 -91 
Q 1263 -91 848 271 
Q 434 634 434 1313 
Q 434 1759 690 2068 
Q 947 2378 1403 2484 
z
M 1172 3481 
Q 1172 3119 1398 2916 
Q 1625 2713 2034 2713 
Q 2441 2713 2670 2916 
Q 2900 3119 2900 3481 
Q 2900 3844 2670 4047 
Q 2441 4250 2034 4250 
Q 1625 4250 1398 4047 
Q 1172 3844 1172 3481 
z
" transform="scale(0.015625)"/>
       </defs>
       <use xlink:href="#DejaVuSans-1b"/>
      </g>
     </g>
    </g>
    <g id="ytick_6">
     <g id="line2d_25">
      <path d="M 44.243516 180.213502 
L 377.619648 180.213502 
" clip-path="url(#pfd2162e271)" style="fill: none; stroke: #36b6c9; stroke-opacity: 0.16; stroke-width: 0.7; stroke-linecap: square"/>
     </g>
     <g id="line2d_26"/>
     <g id="text_14">
      <!-- 10 -->
      <g style="fill: #88a1b2" transform="translate(24.201016 185.151978) scale(0.13 -0.13)">
       <use xlink:href="#DejaVuSans-14"/>
       <use xlink:href="#DejaVuSans-13" transform="translate(63.625 0)"/>
      </g>
     </g>
    </g>
    <g id="ytick_7">
     <g id="line2d_27">
      <path d="M 44.243516 140.772374 
L 377.619648 140.772374 
" clip-path="url(#pfd2162e271)" style="fill: none; stroke: #36b6c9; stroke-opacity: 0.16; stroke-width: 0.7; stroke-linecap: square"/>
     </g>
     <g id="line2d_28"/>
     <g id="text_15">
      <!-- 12 -->
      <g style="fill: #88a1b2" transform="translate(24.201016 145.71085) scale(0.13 -0.13)">
       <use xlink:href="#DejaVuSans-14"/>
       <use xlink:href="#DejaVuSans-15" transform="translate(63.625 0)"/>
      </g>
     </g>
    </g>
    <g id="ytick_8">
     <g id="line2d_29">
      <path d="M 44.243516 101.331246 
L 377.619648 101.331246 
" clip-path="url(#pfd2162e271)" style="fill: none; stroke: #36b6c9; stroke-opacity: 0.16; stroke-width: 0.7; stroke-linecap: square"/>
     </g>
     <g id="line2d_30"/>
     <g id="text_16">
      <!-- 14 -->
      <g style="fill: #88a1b2" transform="translate(24.201016 106.269723) scale(0.13 -0.13)">
       <use xlink:href="#DejaVuSans-14"/>
       <use xlink:href="#DejaVuSans-17" transform="translate(63.625 0)"/>
      </g>
     </g>
    </g>
    <g id="ytick_9">
     <g id="line2d_31">
      <path d="M 44.243516 61.890118 
L 377.619648 61.890118 
" clip-path="url(#pfd2162e271)" style="fill: none; stroke: #36b6c9; stroke-opacity: 0.16; stroke-width: 0.7; stroke-linecap: square"/>
     </g>
     <g id="line2d_32"/>
     <g id="text_17">
      <!-- 16 -->
      <g style="fill: #88a1b2" transform="translate(24.201016 66.828595) scale(0.13 -0.13)">
       <use xlink:href="#DejaVuSans-14"/>
       <use xlink:href="#DejaVuSans-19" transform="translate(63.625 0)"/>
      </g>
     </g>
    </g>
    <g id="text_18">
     <!-- Predicted downtime  (hours) -->
     <g style="fill: #cddde6" transform="translate(17.077969 303.012793) rotate(-90) scale(0.13 -0.13)">
      <defs>
       <path id="DejaVuSans-33" d="M 1259 4147 
L 1259 2394 
L 2053 2394 
Q 2494 2394 2734 2622 
Q 2975 2850 2975 3272 
Q 2975 3691 2734 3919 
Q 2494 4147 2053 4147 
L 1259 4147 
z
M 628 4666 
L 2053 4666 
Q 2838 4666 3239 4311 
Q 3641 3956 3641 3272 
Q 3641 2581 3239 2228 
Q 2838 1875 2053 1875 
L 1259 1875 
L 1259 0 
L 628 0 
L 628 4666 
z
" transform="scale(0.015625)"/>
      </defs>
      <use xlink:href="#DejaVuSans-33"/>
      <use xlink:href="#DejaVuSans-55" transform="translate(58.546875 0)"/>
      <use xlink:href="#DejaVuSans-48" transform="translate(97.453125 0)"/>
      <use xlink:href="#DejaVuSans-47" transform="translate(158.984375 0)"/>
      <use xlink:href="#DejaVuSans-4c" transform="translate(222.46875 0)"/>
      <use xlink:href="#DejaVuSans-46" transform="translate(250.25 0)"/>
      <use xlink:href="#DejaVuSans-57" transform="translate(305.234375 0)"/>
      <use xlink:href="#DejaVuSans-48" transform="translate(344.4375 0)"/>
      <use xlink:href="#DejaVuSans-47" transform="translate(405.96875 0)"/>
      <use xlink:href="#DejaVuSans-3" transform="translate(469.453125 0)"/>
      <use xlink:href="#DejaVuSans-47" transform="translate(501.234375 0)"/>
      <use xlink:href="#DejaVuSans-52" transform="translate(564.71875 0)"/>
      <use xlink:href="#DejaVuSans-5a" transform="translate(625.90625 0)"/>
      <use xlink:href="#DejaVuSans-51" transform="translate(707.6875 0)"/>
      <use xlink:href="#DejaVuSans-57" transform="translate(771.0625 0)"/>
      <use xlink:href="#DejaVuSans-4c" transform="translate(810.265625 0)"/>
      <use xlink:href="#DejaVuSans-50" transform="translate(838.046875 0)"/>
      <use xlink:href="#DejaVuSans-48" transform="translate(935.453125 0)"/>
      <use xlink:href="#DejaVuSans-3" transform="translate(996.984375 0)"/>
      <use xlink:href="#DejaVuSans-3" transform="translate(1028.765625 0)"/>
      <use xlink:href="#DejaVuSans-b" transform="translate(1060.546875 0)"/>
      <use xlink:href="#DejaVuSans-4b" transform="translate(1099.5625 0)"/>
      <use xlink:href="#DejaVuSans-52" transform="translate(1162.9375 0)"/>
      <use xlink:href="#DejaVuSans-58" transform="translate(1224.125 0)"/>
      <use xlink:href="#DejaVuSans-55" transform="translate(1287.5 0)"/>
      <use xlink:href="#DejaVuSans-56" transform="translate(1328.609375 0)"/>
      <use xlink:href="#DejaVuSans-c" transform="translate(1380.703125 0)"/>
     </g>
    </g>
   </g>
   <g id="line2d_33">
    <path d="M 44.243516 377.419141 
L 377.619648 44.043008 
" clip-path="url(#pfd2162e271)" style="fill: none; stroke-dasharray: 7.4,3.2; stroke-dashoffset: 0; stroke: #88a1b2; stroke-width: 2"/>
   </g>
   <g id="patch_3">
    <path d="M 44.243516 377.419141 
L 44.243516 44.043008 
" style="fill: none; stroke: #2b3f4f; stroke-width: 1.1; stroke-linejoin: miter; stroke-linecap: square"/>
   </g>
   <g id="patch_4">
    <path d="M 44.243516 377.419141 
L 377.619648 377.419141 
" style="fill: none; stroke: #2b3f4f; stroke-width: 1.1; stroke-linejoin: miter; stroke-linecap: square"/>
   </g>
   <g id="PathCollection_1">
    <defs>
     <path id="mf908a2ea3d" d="M 0 3.391165 
C 0.899347 3.391165 1.761981 3.03385 2.397916 2.397916 
C 3.03385 1.761981 3.391165 0.899347 3.391165 0 
C 3.391165 -0.899347 3.03385 -1.761981 2.397916 -2.397916 
C 1.761981 -3.03385 0.899347 -3.391165 0 -3.391165 
C -0.899347 -3.391165 -1.761981 -3.03385 -2.397916 -2.397916 
C -3.03385 -1.761981 -3.391165 -0.899347 -3.391165 0 
C -3.391165 0.899347 -3.03385 1.761981 -2.397916 2.397916 
C -1.761981 3.03385 -0.899347 3.391165 0 3.391165 
z
" style="stroke: #0c1116; stroke-opacity: 0.85; stroke-width: 0.5"/>
    </defs>
    <g clip-path="url(#pfd2162e271)">
     <use xlink:href="#mf908a2ea3d" x="117.209602" y="284.703081" style="fill: #36b6c9; fill-opacity: 0.85; stroke: #0c1116; stroke-opacity: 0.85; stroke-width: 0.5"/>
     <use xlink:href="#mf908a2ea3d" x="136.930166" y="264.433231" style="fill: #36b6c9; fill-opacity: 0.85; stroke: #0c1116; stroke-opacity: 0.85; stroke-width: 0.5"/>
     <use xlink:href="#mf908a2ea3d" x="221.728591" y="194.247053" style="fill: #36b6c9; fill-opacity: 0.85; stroke: #0c1116; stroke-opacity: 0.85; stroke-width: 0.5"/>
     <use xlink:href="#mf908a2ea3d" x="113.265489" y="284.613385" style="fill: #36b6c9; fill-opacity: 0.85; stroke: #0c1116; stroke-opacity: 0.85; stroke-width: 0.5"/>
     <use xlink:href="#mf908a2ea3d" x="172.427181" y="214.903464" style="fill: #36b6c9; fill-opacity: 0.85; stroke: #0c1116; stroke-opacity: 0.85; stroke-width: 0.5"/>
     <use xlink:href="#mf908a2ea3d" x="174.399237" y="252.309269" style="fill: #36b6c9; fill-opacity: 0.85; stroke: #0c1116; stroke-opacity: 0.85; stroke-width: 0.5"/>
     <use xlink:href="#mf908a2ea3d" x="79.740531" y="324.168081" style="fill: #36b6c9; fill-opacity: 0.85; stroke: #0c1116; stroke-opacity: 0.85; stroke-width: 0.5"/>
     <use xlink:href="#mf908a2ea3d" x="113.265489" y="287.491575" style="fill: #36b6c9; fill-opacity: 0.85; stroke: #0c1116; stroke-opacity: 0.85; stroke-width: 0.5"/>
     <use xlink:href="#mf908a2ea3d" x="95.516982" y="303.082613" style="fill: #36b6c9; fill-opacity: 0.85; stroke: #0c1116; stroke-opacity: 0.85; stroke-width: 0.5"/>
     <use xlink:href="#mf908a2ea3d" x="79.740531" y="357.973528" style="fill: #36b6c9; fill-opacity: 0.85; stroke: #0c1116; stroke-opacity: 0.85; stroke-width: 0.5"/>
     <use xlink:href="#mf908a2ea3d" x="166.511012" y="141.605738" style="fill: #36b6c9; fill-opacity: 0.85; stroke: #0c1116; stroke-opacity: 0.85; stroke-width: 0.5"/>
     <use xlink:href="#mf908a2ea3d" x="101.433151" y="306.426575" style="fill: #36b6c9; fill-opacity: 0.85; stroke: #0c1116; stroke-opacity: 0.85; stroke-width: 0.5"/>
     <use xlink:href="#mf908a2ea3d" x="75.796418" y="320.890025" style="fill: #36b6c9; fill-opacity: 0.85; stroke: #0c1116; stroke-opacity: 0.85; stroke-width: 0.5"/>
     <use xlink:href="#mf908a2ea3d" x="227.64476" y="163.652937" style="fill: #36b6c9; fill-opacity: 0.85; stroke: #0c1116; stroke-opacity: 0.85; stroke-width: 0.5"/>
     <use xlink:href="#mf908a2ea3d" x="166.511012" y="273.114461" style="fill: #36b6c9; fill-opacity: 0.85; stroke: #0c1116; stroke-opacity: 0.85; stroke-width: 0.5"/>
     <use xlink:href="#mf908a2ea3d" x="140.874279" y="246.056603" style="fill: #36b6c9; fill-opacity: 0.85; stroke: #0c1116; stroke-opacity: 0.85; stroke-width: 0.5"/>
     <use xlink:href="#mf908a2ea3d" x="172.427181" y="225.887165" style="fill: #36b6c9; fill-opacity: 0.85; stroke: #0c1116; stroke-opacity: 0.85; stroke-width: 0.5"/>
     <use xlink:href="#mf908a2ea3d" x="75.796418" y="347.517191" style="fill: #36b6c9; fill-opacity: 0.85; stroke: #0c1116; stroke-opacity: 0.85; stroke-width: 0.5"/>
     <use xlink:href="#mf908a2ea3d" x="85.6567" y="322.595944" style="fill: #36b6c9; fill-opacity: 0.85; stroke: #0c1116; stroke-opacity: 0.85; stroke-width: 0.5"/>
     <use xlink:href="#mf908a2ea3d" x="326.247579" y="174.880512" style="fill: #36b6c9; fill-opacity: 0.85; stroke: #0c1116; stroke-opacity: 0.85; stroke-width: 0.5"/>
     <use xlink:href="#mf908a2ea3d" x="123.125771" y="285.240117" style="fill: #36b6c9; fill-opacity: 0.85; stroke: #0c1116; stroke-opacity: 0.85; stroke-width: 0.5"/>
     <use xlink:href="#mf908a2ea3d" x="79.740531" y="354.000107" style="fill: #36b6c9; fill-opacity: 0.85; stroke: #0c1116; stroke-opacity: 0.85; stroke-width: 0.5"/>
     <use xlink:href="#mf908a2ea3d" x="119.181658" y="296.387098" style="fill: #36b6c9; fill-opacity: 0.85; stroke: #0c1116; stroke-opacity: 0.85; stroke-width: 0.5"/>
     <use xlink:href="#mf908a2ea3d" x="111.293433" y="289.954304" style="fill: #36b6c9; fill-opacity: 0.85; stroke: #0c1116; stroke-opacity: 0.85; stroke-width: 0.5"/>
     <use xlink:href="#mf908a2ea3d" x="89.600813" y="349.367038" style="fill: #36b6c9; fill-opacity: 0.85; stroke: #0c1116; stroke-opacity: 0.85; stroke-width: 0.5"/>
     <use xlink:href="#mf908a2ea3d" x="113.265489" y="318.036335" style="fill: #36b6c9; fill-opacity: 0.85; stroke: #0c1116; stroke-opacity: 0.85; stroke-width: 0.5"/>
     <use xlink:href="#mf908a2ea3d" x="81.712587" y="310.3684" style="fill: #36b6c9; fill-opacity: 0.85; stroke: #0c1116; stroke-opacity: 0.85; stroke-width: 0.5"/>
     <use xlink:href="#mf908a2ea3d" x="174.399237" y="149.234372" style="fill: #36b6c9; fill-opacity: 0.85; stroke: #0c1116; stroke-opacity: 0.85; stroke-width: 0.5"/>
     <use xlink:href="#mf908a2ea3d" x="91.572869" y="260.81209" style="fill: #36b6c9; fill-opacity: 0.85; stroke: #0c1116; stroke-opacity: 0.85; stroke-width: 0.5"/>
     <use xlink:href="#mf908a2ea3d" x="136.930166" y="129.561849" style="fill: #36b6c9; fill-opacity: 0.85; stroke: #0c1116; stroke-opacity: 0.85; stroke-width: 0.5"/>
     <use xlink:href="#mf908a2ea3d" x="79.740531" y="364.009852" style="fill: #36b6c9; fill-opacity: 0.85; stroke: #0c1116; stroke-opacity: 0.85; stroke-width: 0.5"/>
     <use xlink:href="#mf908a2ea3d" x="71.852305" y="352.892664" style="fill: #36b6c9; fill-opacity: 0.85; stroke: #0c1116; stroke-opacity: 0.85; stroke-width: 0.5"/>
     <use xlink:href="#mf908a2ea3d" x="95.516982" y="312.95789" style="fill: #36b6c9; fill-opacity: 0.85; stroke: #0c1116; stroke-opacity: 0.85; stroke-width: 0.5"/>
     <use xlink:href="#mf908a2ea3d" x="249.33738" y="249.990231" style="fill: #36b6c9; fill-opacity: 0.85; stroke: #0c1116; stroke-opacity: 0.85; stroke-width: 0.5"/>
     <use xlink:href="#mf908a2ea3d" x="87.628756" y="312.463123" style="fill: #36b6c9; fill-opacity: 0.85; stroke: #0c1116; stroke-opacity: 0.85; stroke-width: 0.5"/>
     <use xlink:href="#mf908a2ea3d" x="154.678673" y="239.61773" style="fill: #36b6c9; fill-opacity: 0.85; stroke: #0c1116; stroke-opacity: 0.85; stroke-width: 0.5"/>
     <use xlink:href="#mf908a2ea3d" x="186.231576" y="231.99537" style="fill: #36b6c9; fill-opacity: 0.85; stroke: #0c1116; stroke-opacity: 0.85; stroke-width: 0.5"/>
     <use xlink:href="#mf908a2ea3d" x="87.628756" y="330.438699" style="fill: #36b6c9; fill-opacity: 0.85; stroke: #0c1116; stroke-opacity: 0.85; stroke-width: 0.5"/>
     <use xlink:href="#mf908a2ea3d" x="233.560929" y="85.080503" style="fill: #36b6c9; fill-opacity: 0.85; stroke: #0c1116; stroke-opacity: 0.85; stroke-width: 0.5"/>
     <use xlink:href="#mf908a2ea3d" x="111.293433" y="327.442256" style="fill: #36b6c9; fill-opacity: 0.85; stroke: #0c1116; stroke-opacity: 0.85; stroke-width: 0.5"/>
     <use xlink:href="#mf908a2ea3d" x="87.628756" y="338.28484" style="fill: #36b6c9; fill-opacity: 0.85; stroke: #0c1116; stroke-opacity: 0.85; stroke-width: 0.5"/>
     <use xlink:href="#mf908a2ea3d" x="156.65073" y="245.269256" style="fill: #36b6c9; fill-opacity: 0.85; stroke: #0c1116; stroke-opacity: 0.85; stroke-width: 0.5"/>
     <use xlink:href="#mf908a2ea3d" x="67.908192" y="350.020194" style="fill: #36b6c9; fill-opacity: 0.85; stroke: #0c1116; stroke-opacity: 0.85; stroke-width: 0.5"/>
     <use xlink:href="#mf908a2ea3d" x="97.489038" y="306.227165" style="fill: #36b6c9; fill-opacity: 0.85; stroke: #0c1116; stroke-opacity: 0.85; stroke-width: 0.5"/>
     <use xlink:href="#mf908a2ea3d" x="115.237546" y="320.767877" style="fill: #36b6c9; fill-opacity: 0.85; stroke: #0c1116; stroke-opacity: 0.85; stroke-width: 0.5"/>
     <use xlink:href="#mf908a2ea3d" x="156.65073" y="243.934237" style="fill: #36b6c9; fill-opacity: 0.85; stroke: #0c1116; stroke-opacity: 0.85; stroke-width: 0.5"/>
     <use xlink:href="#mf908a2ea3d" x="75.796418" y="319.551559" style="fill: #36b6c9; fill-opacity: 0.85; stroke: #0c1116; stroke-opacity: 0.85; stroke-width: 0.5"/>
     <use xlink:href="#mf908a2ea3d" x="146.790448" y="224.111466" style="fill: #36b6c9; fill-opacity: 0.85; stroke: #0c1116; stroke-opacity: 0.85; stroke-width: 0.5"/>
     <use xlink:href="#mf908a2ea3d" x="144.818392" y="264.762422" style="fill: #36b6c9; fill-opacity: 0.85; stroke: #0c1116; stroke-opacity: 0.85; stroke-width: 0.5"/>
     <use xlink:href="#mf908a2ea3d" x="103.405207" y="312.385024" style="fill: #36b6c9; fill-opacity: 0.85; stroke: #0c1116; stroke-opacity: 0.85; stroke-width: 0.5"/>
     <use xlink:href="#mf908a2ea3d" x="142.846335" y="176.704084" style="fill: #36b6c9; fill-opacity: 0.85; stroke: #0c1116; stroke-opacity: 0.85; stroke-width: 0.5"/>
     <use xlink:href="#mf908a2ea3d" x="176.371294" y="199.490562" style="fill: #36b6c9; fill-opacity: 0.85; stroke: #0c1116; stroke-opacity: 0.85; stroke-width: 0.5"/>
     <use xlink:href="#mf908a2ea3d" x="129.04194" y="283.135677" style="fill: #36b6c9; fill-opacity: 0.85; stroke: #0c1116; stroke-opacity: 0.85; stroke-width: 0.5"/>
     <use xlink:href="#mf908a2ea3d" x="93.544925" y="322.082279" style="fill: #36b6c9; fill-opacity: 0.85; stroke: #0c1116; stroke-opacity: 0.85; stroke-width: 0.5"/>
     <use xlink:href="#mf908a2ea3d" x="97.489038" y="306.426575" style="fill: #36b6c9; fill-opacity: 0.85; stroke: #0c1116; stroke-opacity: 0.85; stroke-width: 0.5"/>
     <use xlink:href="#mf908a2ea3d" x="168.483068" y="220.592921" style="fill: #36b6c9; fill-opacity: 0.85; stroke: #0c1116; stroke-opacity: 0.85; stroke-width: 0.5"/>
     <use xlink:href="#mf908a2ea3d" x="251.309437" y="231.005183" style="fill: #36b6c9; fill-opacity: 0.85; stroke: #0c1116; stroke-opacity: 0.85; stroke-width: 0.5"/>
     <use xlink:href="#mf908a2ea3d" x="292.722621" y="182.351649" style="fill: #36b6c9; fill-opacity: 0.85; stroke: #0c1116; stroke-opacity: 0.85; stroke-width: 0.5"/>
     <use xlink:href="#mf908a2ea3d" x="361.744594" y="73.785147" style="fill: #36b6c9; fill-opacity: 0.85; stroke: #0c1116; stroke-opacity: 0.85; stroke-width: 0.5"/>
     <use xlink:href="#mf908a2ea3d" x="213.840365" y="243.038982" style="fill: #36b6c9; fill-opacity: 0.85; stroke: #0c1116; stroke-opacity: 0.85; stroke-width: 0.5"/>
     <use xlink:href="#mf908a2ea3d" x="95.516982" y="304.292806" style="fill: #36b6c9; fill-opacity: 0.85; stroke: #0c1116; stroke-opacity: 0.85; stroke-width: 0.5"/>
     <use xlink:href="#mf908a2ea3d" x="168.483068" y="242.215214" style="fill: #36b6c9; fill-opacity: 0.85; stroke: #0c1116; stroke-opacity: 0.85; stroke-width: 0.5"/>
     <use xlink:href="#mf908a2ea3d" x="105.377264" y="319.574973" style="fill: #36b6c9; fill-opacity: 0.85; stroke: #0c1116; stroke-opacity: 0.85; stroke-width: 0.5"/>
     <use xlink:href="#mf908a2ea3d" x="269.057944" y="142.376945" style="fill: #36b6c9; fill-opacity: 0.85; stroke: #0c1116; stroke-opacity: 0.85; stroke-width: 0.5"/>
     <use xlink:href="#mf908a2ea3d" x="304.554959" y="104.857476" style="fill: #36b6c9; fill-opacity: 0.85; stroke: #0c1116; stroke-opacity: 0.85; stroke-width: 0.5"/>
     <use xlink:href="#mf908a2ea3d" x="93.544925" y="314.269517" style="fill: #36b6c9; fill-opacity: 0.85; stroke: #0c1116; stroke-opacity: 0.85; stroke-width: 0.5"/>
     <use xlink:href="#mf908a2ea3d" x="219.756534" y="141.735781" style="fill: #36b6c9; fill-opacity: 0.85; stroke: #0c1116; stroke-opacity: 0.85; stroke-width: 0.5"/>
     <use xlink:href="#mf908a2ea3d" x="146.790448" y="228.825306" style="fill: #36b6c9; fill-opacity: 0.85; stroke: #0c1116; stroke-opacity: 0.85; stroke-width: 0.5"/>
     <use xlink:href="#mf908a2ea3d" x="113.265489" y="280.481609" style="fill: #36b6c9; fill-opacity: 0.85; stroke: #0c1116; stroke-opacity: 0.85; stroke-width: 0.5"/>
     <use xlink:href="#mf908a2ea3d" x="87.628756" y="327.791017" style="fill: #36b6c9; fill-opacity: 0.85; stroke: #0c1116; stroke-opacity: 0.85; stroke-width: 0.5"/>
     <use xlink:href="#mf908a2ea3d" x="296.666734" y="113.406579" style="fill: #36b6c9; fill-opacity: 0.85; stroke: #0c1116; stroke-opacity: 0.85; stroke-width: 0.5"/>
     <use xlink:href="#mf908a2ea3d" x="113.265489" y="290.470026" style="fill: #36b6c9; fill-opacity: 0.85; stroke: #0c1116; stroke-opacity: 0.85; stroke-width: 0.5"/>
     <use xlink:href="#mf908a2ea3d" x="233.560929" y="85.080503" style="fill: #36b6c9; fill-opacity: 0.85; stroke: #0c1116; stroke-opacity: 0.85; stroke-width: 0.5"/>
     <use xlink:href="#mf908a2ea3d" x="142.846335" y="279.887521" style="fill: #36b6c9; fill-opacity: 0.85; stroke: #0c1116; stroke-opacity: 0.85; stroke-width: 0.5"/>
     <use xlink:href="#mf908a2ea3d" x="113.265489" y="294.004265" style="fill: #36b6c9; fill-opacity: 0.85; stroke: #0c1116; stroke-opacity: 0.85; stroke-width: 0.5"/>
    </g>
   </g>
   <g id="text_19">
    <!-- Predicted vs actual repair time -->
    <g style="fill: #cddde6" transform="translate(103.426895 19.23918) scale(0.14 -0.14)">
     <defs>
      <path id="DejaVuSans-59" d="M 191 3500 
L 800 3500 
L 1894 563 
L 2988 3500 
L 3597 3500 
L 2284 0 
L 1503 0 
L 191 3500 
z
" transform="scale(0.015625)"/>
      <path id="DejaVuSans-53" d="M 1159 525 
L 1159 -1331 
L 581 -1331 
L 581 3500 
L 1159 3500 
L 1159 2969 
Q 1341 3281 1617 3432 
Q 1894 3584 2278 3584 
Q 2916 3584 3314 3078 
Q 3713 2572 3713 1747 
Q 3713 922 3314 415 
Q 2916 -91 2278 -91 
Q 1894 -91 1617 61 
Q 1341 213 1159 525 
z
M 3116 1747 
Q 3116 2381 2855 2742 
Q 2594 3103 2138 3103 
Q 1681 3103 1420 2742 
Q 1159 2381 1159 1747 
Q 1159 1113 1420 752 
Q 1681 391 2138 391 
Q 2594 391 2855 752 
Q 3116 1113 3116 1747 
z
" transform="scale(0.015625)"/>
     </defs>
     <use xlink:href="#DejaVuSans-33"/>
     <use xlink:href="#DejaVuSans-55" transform="translate(58.546875 0)"/>
     <use xlink:href="#DejaVuSans-48" transform="translate(97.453125 0)"/>
     <use xlink:href="#DejaVuSans-47" transform="translate(158.984375 0)"/>
     <use xlink:href="#DejaVuSans-4c" transform="translate(222.46875 0)"/>
     <use xlink:href="#DejaVuSans-46" transform="translate(250.25 0)"/>
     <use xlink:href="#DejaVuSans-57" transform="translate(305.234375 0)"/>
     <use xlink:href="#DejaVuSans-48" transform="translate(344.4375 0)"/>
     <use xlink:href="#DejaVuSans-47" transform="translate(405.96875 0)"/>
     <use xlink:href="#DejaVuSans-3" transform="translate(469.453125 0)"/>
     <use xlink:href="#DejaVuSans-59" transform="translate(501.234375 0)"/>
     <use xlink:href="#DejaVuSans-56" transform="translate(560.421875 0)"/>
     <use xlink:href="#DejaVuSans-3" transform="translate(612.515625 0)"/>
     <use xlink:href="#DejaVuSans-44" transform="translate(644.296875 0)"/>
     <use xlink:href="#DejaVuSans-46" transform="translate(705.578125 0)"/>
     <use xlink:href="#DejaVuSans-57" transform="translate(760.5625 0)"/>
     <use xlink:href="#DejaVuSans-58" transform="translate(799.765625 0)"/>
     <use xlink:href="#DejaVuSans-44" transform="translate(863.140625 0)"/>
     <use xlink:href="#DejaVuSans-4f" transform="translate(924.421875 0)"/>
     <use xlink:href="#DejaVuSans-3" transform="translate(952.203125 0)"/>
     <use xlink:href="#DejaVuSans-55" transform="translate(983.984375 0)"/>
     <use xlink:href="#DejaVuSans-48" transform="translate(1022.890625 0)"/>
     <use xlink:href="#DejaVuSans-53" transform="translate(1084.421875 0)"/>
     <use xlink:href="#DejaVuSans-44" transform="translate(1147.90625 0)"/>
     <use xlink:href="#DejaVuSans-4c" transform="translate(1209.1875 0)"/>
     <use xlink:href="#DejaVuSans-55" transform="translate(1236.96875 0)"/>
     <use xlink:href="#DejaVuSans-3" transform="translate(1278.078125 0)"/>
     <use xlink:href="#DejaVuSans-57" transform="translate(1309.859375 0)"/>
     <use xlink:href="#DejaVuSans-4c" transform="translate(1349.0625 0)"/>
     <use xlink:href="#DejaVuSans-50" transform="translate(1376.84375 0)"/>
     <use xlink:href="#DejaVuSans-48" transform="translate(1474.25 0)"/>
    </g>
    <!-- MAE ≈ 1.5 h   R² ≈ 0.6 -->
    <g style="fill: #cddde6" transform="translate(131.780176 36.043008) scale(0.14 -0.14)">
     <defs>
      <path id="DejaVuSans-30" d="M 628 4666 
L 1569 4666 
L 2759 1491 
L 3956 4666 
L 4897 4666 
L 4897 0 
L 4281 0 
L 4281 4097 
L 3078 897 
L 2444 897 
L 1241 4097 
L 1241 0 
L 628 0 
L 628 4666 
z
" transform="scale(0.015625)"/>
      <path id="DejaVuSans-28" d="M 628 4666 
L 3578 4666 
L 3578 4134 
L 1259 4134 
L 1259 2753 
L 3481 2753 
L 3481 2222 
L 1259 2222 
L 1259 531 
L 3634 531 
L 3634 0 
L 628 0 
L 628 4666 
z
" transform="scale(0.015625)"/>
      <path id="DejaVuSans-cd2" d="M 4684 1947 
L 4684 1388 
Q 4356 1144 4076 1036 
Q 3797 928 3494 928 
Q 3150 928 2694 1113 
Q 2663 1125 2641 1134 
Q 2622 1141 2575 1159 
Q 2091 1350 1797 1350 
Q 1522 1350 1253 1231 
Q 984 1113 678 850 
L 678 1409 
Q 1006 1653 1286 1761 
Q 1566 1869 1869 1869 
Q 2213 1869 2672 1684 
Q 2706 1669 2722 1663 
Q 2741 1656 2788 1638 
Q 3272 1447 3566 1447 
Q 3834 1447 4098 1564 
Q 4363 1681 4684 1947 
z
M 4684 3163 
L 4684 2606 
Q 4356 2359 4076 2251 
Q 3797 2144 3494 2144 
Q 3150 2144 2694 2328 
Q 2663 2341 2641 2350 
Q 2622 2356 2575 2375 
Q 2091 2566 1797 2566 
Q 1522 2566 1253 2447 
Q 984 2328 678 2069 
L 678 2625 
Q 1006 2869 1286 2976 
Q 1566 3084 1869 3084 
Q 2213 3084 2672 2900 
Q 2703 2888 2719 2881 
Q 2741 2872 2788 2853 
Q 3272 2663 3566 2663 
Q 3834 2663 4098 2780 
Q 4363 2897 4684 3163 
z
" transform="scale(0.015625)"/>
      <path id="DejaVuSans-35" d="M 2841 2188 
Q 3044 2119 3236 1894 
Q 3428 1669 3622 1275 
L 4263 0 
L 3584 0 
L 2988 1197 
Q 2756 1666 2539 1819 
Q 2322 1972 1947 1972 
L 1259 1972 
L 1259 0 
L 628 0 
L 628 4666 
L 2053 4666 
Q 2853 4666 3247 4331 
Q 3641 3997 3641 3322 
Q 3641 2881 3436 2590 
Q 3231 2300 2841 2188 
z
M 1259 4147 
L 1259 2491 
L 2053 2491 
Q 2509 2491 2742 2702 
Q 2975 2913 2975 3322 
Q 2975 3731 2742 3939 
Q 2509 4147 2053 4147 
L 1259 4147 
z
" transform="scale(0.015625)"/>
      <path id="DejaVuSans-74" d="M 838 2444 
L 2163 2444 
L 2163 2088 
L 294 2088 
L 294 2431 
Q 400 2528 597 2703 
Q 1672 3656 1672 3950 
Q 1672 4156 1509 4282 
Q 1347 4409 1081 4409 
Q 919 4409 728 4354 
Q 538 4300 313 4191 
L 313 4575 
Q 553 4663 761 4706 
Q 969 4750 1147 4750 
Q 1600 4750 1872 4544 
Q 2144 4338 2144 4000 
Q 2144 3566 1109 2678 
Q 934 2528 838 2444 
z
" transform="scale(0.015625)"/>
     </defs>
     <use xlink:href="#DejaVuSans-30"/>
     <use xlink:href="#DejaVuSans-24" transform="translate(86.28125 0)"/>
     <use xlink:href="#DejaVuSans-28" transform="translate(154.6875 0)"/>
     <use xlink:href="#DejaVuSans-3" transform="translate(217.875 0)"/>
     <use xlink:href="#DejaVuSans-cd2" transform="translate(249.65625 0)"/>
     <use xlink:href="#DejaVuSans-3" transform="translate(333.453125 0)"/>
     <use xlink:href="#DejaVuSans-14" transform="translate(365.234375 0)"/>
     <use xlink:href="#DejaVuSans-11" transform="translate(428.859375 0)"/>
     <use xlink:href="#DejaVuSans-18" transform="translate(460.640625 0)"/>
     <use xlink:href="#DejaVuSans-3" transform="translate(524.265625 0)"/>
     <use xlink:href="#DejaVuSans-4b" transform="translate(556.046875 0)"/>
     <use xlink:href="#DejaVuSans-3" transform="translate(619.421875 0)"/>
     <use xlink:href="#DejaVuSans-3" transform="translate(651.203125 0)"/>
     <use xlink:href="#DejaVuSans-3" transform="translate(682.984375 0)"/>
     <use xlink:href="#DejaVuSans-35" transform="translate(714.765625 0)"/>
     <use xlink:href="#DejaVuSans-74" transform="translate(784.25 0)"/>
     <use xlink:href="#DejaVuSans-3" transform="translate(824.34375 0)"/>
     <use xlink:href="#DejaVuSans-cd2" transform="translate(856.125 0)"/>
     <use xlink:href="#DejaVuSans-3" transform="translate(939.921875 0)"/>
     <use xlink:href="#DejaVuSans-13" transform="translate(971.703125 0)"/>
     <use xlink:href="#DejaVuSans-11" transform="translate(1035.328125 0)"/>
     <use xlink:href="#DejaVuSans-19" transform="translate(1067.109375 0)"/>
    </g>
   </g>
   <g id="legend_1">
    <g id="line2d_34">
     <path d="M 55.943516 61.070977 
L 68.943516 61.070977 
L 81.943516 61.070977 
" style="fill: none; stroke-dasharray: 7.4,3.2; stroke-dashoffset: 0; stroke: #88a1b2; stroke-width: 2"/>
    </g>
    <g id="text_20">
     <!-- perfect prediction -->
     <g style="fill: #cddde6" transform="translate(92.343516 65.620977) scale(0.13 -0.13)">
      <defs>
       <path id="DejaVuSans-49" d="M 2375 4863 
L 2375 4384 
L 1825 4384 
Q 1516 4384 1395 4259 
Q 1275 4134 1275 3809 
L 1275 3500 
L 2222 3500 
L 2222 3053 
L 1275 3053 
L 1275 0 
L 697 0 
L 697 3053 
L 147 3053 
L 147 3500 
L 697 3500 
L 697 3744 
Q 697 4328 969 4595 
Q 1241 4863 1831 4863 
L 2375 4863 
z
" transform="scale(0.015625)"/>
      </defs>
      <use xlink:href="#DejaVuSans-53"/>
      <use xlink:href="#DejaVuSans-48" transform="translate(63.484375 0)"/>
      <use xlink:href="#DejaVuSans-55" transform="translate(125.015625 0)"/>
      <use xlink:href="#DejaVuSans-49" transform="translate(166.125 0)"/>
      <use xlink:href="#DejaVuSans-48" transform="translate(201.328125 0)"/>
      <use xlink:href="#DejaVuSans-46" transform="translate(262.859375 0)"/>
      <use xlink:href="#DejaVuSans-57" transform="translate(317.84375 0)"/>
      <use xlink:href="#DejaVuSans-3" transform="translate(357.046875 0)"/>
      <use xlink:href="#DejaVuSans-53" transform="translate(388.828125 0)"/>
      <use xlink:href="#DejaVuSans-55" transform="translate(452.3125 0)"/>
      <use xlink:href="#DejaVuSans-48" transform="translate(491.21875 0)"/>
      <use xlink:href="#DejaVuSans-47" transform="translate(552.75 0)"/>
      <use xlink:href="#DejaVuSans-4c" transform="translate(616.234375 0)"/>
      <use xlink:href="#DejaVuSans-46" transform="translate(644.015625 0)"/>
      <use xlink:href="#DejaVuSans-57" transform="translate(699 0)"/>
      <use xlink:href="#DejaVuSans-4c" transform="translate(738.203125 0)"/>
      <use xlink:href="#DejaVuSans-52" transform="translate(765.984375 0)"/>
      <use xlink:href="#DejaVuSans-51" transform="translate(827.171875 0)"/>
     </g>
    </g>
   </g>
  </g>
 </g>
 <defs>
  <clipPath id="pfd2162e271">
   <rect x="44.243516" y="44.043008" width="333.376133" height="333.376133"/>
  </clipPath>
 </defs>
</svg>
