<?xml version="1.0" encoding="utf-8" standalone="no"?>
<!DOCTYPE svg PUBLIC "-//W3C//DTD SVG 1.1//EN"
  "http://www.w3.org/Graphics/SVG/1.1/DTD/svg11.dtd">
<svg xmlns:xlink="http://www.w3.org/1999/xlink" width="490.820469pt" height="317.317969pt" viewBox="0 0 490.820469 317.317969" xmlns="http://www.w3.org/2000/svg" version="1.1">
 <metadata>
  <rdf:RDF xmlns:dc="http://purl.org/dc/elements/1.1/" xmlns:cc="http://creativecommons.org/ns#" xmlns:rdf="http://www.w3.org/1999/02/22-rdf-syntax-ns#">
   <cc:Work>
    <dc:type rdf:resource="http://purl.org/dc/dcmitype/StillImage"/>
    <dc:date>2026-06-21T20:46:55.154753</dc:date>
    <dc:format>image/svg+xml</dc:format>
    <dc:creator>
     <cc:Agent>
      <dc:title>Matplotlib v3.11.0, https://matplotlib.org/</dc:title>
     </cc:Agent>
    </dc:creator>
   </cc:Work>
  </rdf:RDF>
 </metadata>
 <defs>
  <style type="text/css">*{stroke-linejoin: round; stroke-linecap: butt}</style>
 </defs>
 <g id="figure_1">
  <g id="patch_1">
   <path d="M 0 317.317969 
L 490.820469 317.317969 
L 490.820469 0 
L 0 0 
L 0 317.317969 
z
" style="fill: none"/>
  </g>
  <g id="axes_1">
   <g id="patch_2">
    <path d="M 44.243516 276.616953 
L 483.620469 276.616953 
L 483.620469 7.2 
L 44.243516 7.2 
L 44.243516 276.616953 
z
" style="fill: none"/>
   </g>
   <g id="matplotlib.axis_1">
    <g id="xtick_1">
     <g id="line2d_1">
      <path d="M 44.243516 276.616953 
L 44.243516 7.2 
" clip-path="url(#pde4dd417cb)" style="fill: none; stroke: #d7dee5; stroke-opacity: 0.5; stroke-width: 0.8; stroke-linecap: square"/>
     </g>
     <g id="line2d_2"/>
     <g id="text_1">
      <!-- 0 -->
      <g style="fill: #56657a" transform="translate(40.107891 289.993906) scale(0.13 -0.13)">
       <defs>
        <path id="DejaVuSans-13" d="M 2034 4250 
Q 1547 4250 1301 3770 
Q 1056 3291 1056 2328 
Q 1056 1369 1301 889 
Q 1547 409 2034 409 
Q 2525 409 2770 889 
Q 3016 1369 3016 2328 
Q 3016 3291 2770 3770 
Q 2525 4250 2034 4250 
z
M 2034 4750 
Q 2819 4750 3233 4129 
Q 3647 3509 3647 2328 
Q 3647 1150 3233 529 
Q 2819 -91 2034 -91 
Q 1250 -91 836 529 
Q 422 1150 422 2328 
Q 422 3509 836 4129 
Q 1250 4750 2034 4750 
z
" transform="scale(0.015625)"/>
       </defs>
       <use xlink:href="#DejaVuSans-13"/>
      </g>
     </g>
    </g>
    <g id="xtick_2">
     <g id="line2d_3">
      <path d="M 111.83997 276.616953 
L 111.83997 7.2 
" clip-path="url(#pde4dd417cb)" style="fill: none; stroke: #d7dee5; stroke-opacity: 0.5; stroke-width: 0.8; stroke-linecap: square"/>
     </g>
     <g id="line2d_4"/>
     <g id="text_2">
      <!-- 2 -->
      <g style="fill: #56657a" transform="translate(107.704345 289.993906) scale(0.13 -0.13)">
       <defs>
        <path id="DejaVuSans-15" d="M 1228 531 
L 3431 531 
L 3431 0 
L 469 0 
L 469 531 
Q 828 903 1448 1529 
Q 2069 2156 2228 2338 
Q 2531 2678 2651 2914 
Q 2772 3150 2772 3378 
Q 2772 3750 2511 3984 
Q 2250 4219 1831 4219 
Q 1534 4219 1204 4116 
Q 875 4013 500 3803 
L 500 4441 
Q 881 4594 1212 4672 
Q 1544 4750 1819 4750 
Q 2544 4750 2975 4387 
Q 3406 4025 3406 3419 
Q 3406 3131 3298 2873 
Q 3191 2616 2906 2266 
Q 2828 2175 2409 1742 
Q 1991 1309 1228 531 
z
" transform="scale(0.015625)"/>
       </defs>
       <use xlink:href="#DejaVuSans-15"/>
      </g>
     </g>
    </g>
    <g id="xtick_3">
     <g id="line2d_5">
      <path d="M 179.436424 276.616953 
L 179.436424 7.2 
" clip-path="url(#pde4dd417cb)" style="fill: none; stroke: #d7dee5; stroke-opacity: 0.5; stroke-width: 0.8; stroke-linecap: square"/>
     </g>
     <g id="line2d_6"/>
     <g id="text_3">
      <!-- 4 -->
      <g style="fill: #56657a" transform="translate(175.300799 289.993906) scale(0.13 -0.13)">
       <defs>
        <path id="DejaVuSans-17" d="M 2419 4116 
L 825 1625 
L 2419 1625 
L 2419 4116 
z
M 2253 4666 
L 3047 4666 
L 3047 1625 
L 3713 1625 
L 3713 1100 
L 3047 1100 
L 3047 0 
L 2419 0 
L 2419 1100 
L 313 1100 
L 313 1709 
L 2253 4666 
z
" transform="scale(0.015625)"/>
       </defs>
       <use xlink:href="#DejaVuSans-17"/>
      </g>
     </g>
    </g>
    <g id="xtick_4">
     <g id="line2d_7">
      <path d="M 247.032879 276.616953 
L 247.032879 7.2 
" clip-path="url(#pde4dd417cb)" style="fill: none; stroke: #d7dee5; stroke-opacity: 0.5; stroke-width: 0.8; stroke-linecap: square"/>
     </g>
     <g id="line2d_8"/>
     <g id="text_4">
      <!-- 6 -->
      <g style="fill: #56657a" transform="translate(242.897254 289.993906) scale(0.13 -0.13)">
       <defs>
        <path id="DejaVuSans-19" d="M 2113 2584 
Q 1688 2584 1439 2293 
Q 1191 2003 1191 1497 
Q 1191 994 1439 701 
Q 1688 409 2113 409 
Q 2538 409 2786 701 
Q 3034 994 3034 1497 
Q 3034 2003 2786 2293 
Q 2538 2584 2113 2584 
z
M 3366 4563 
L 3366 3988 
Q 3128 4100 2886 4159 
Q 2644 4219 2406 4219 
Q 1781 4219 1451 3797 
Q 1122 3375 1075 2522 
Q 1259 2794 1537 2939 
Q 1816 3084 2150 3084 
Q 2853 3084 3261 2657 
Q 3669 2231 3669 1497 
Q 3669 778 3244 343 
Q 2819 -91 2113 -91 
Q 1303 -91 875 529 
Q 447 1150 447 2328 
Q 447 3434 972 4092 
Q 1497 4750 2381 4750 
Q 2619 4750 2861 4703 
Q 3103 4656 3366 4563 
z
" transform="scale(0.015625)"/>
       </defs>
       <use xlink:href="#DejaVuSans-19"/>
      </g>
     </g>
    </g>
    <g id="xtick_5">
     <g id="line2d_9">
      <path d="M 314.629333 276.616953 
L 314.629333 7.2 
" clip-path="url(#pde4dd417cb)" style="fill: none; stroke: #d7dee5; stroke-opacity: 0.5; stroke-width: 0.8; stroke-linecap: square"/>
     </g>
     <g id="line2d_10"/>
     <g id="text_5">
      <!-- 8 -->
      <g style="fill: #56657a" transform="translate(310.493708 289.993906) scale(0.13 -0.13)">
       <defs>
        <path id="DejaVuSans-1b" d="M 2034 2216 
Q 1584 2216 1326 1975 
Q 1069 1734 1069 1313 
Q 1069 891 1326 650 
Q 1584 409 2034 409 
Q 2484 409 2743 651 
Q 3003 894 3003 1313 
Q 3003 1734 2745 1975 
Q 2488 2216 2034 2216 
z
M 1403 2484 
Q 997 2584 770 2862 
Q 544 3141 544 3541 
Q 544 4100 942 4425 
Q 1341 4750 2034 4750 
Q 2731 4750 3128 4425 
Q 3525 4100 3525 3541 
Q 3525 3141 3298 2862 
Q 3072 2584 2669 2484 
Q 3125 2378 3379 2068 
Q 3634 1759 3634 1313 
Q 3634 634 3220 271 
Q 2806 -91 2034 -91 
Q 1263 -91 848 271 
Q 434 634 434 1313 
Q 434 1759 690 2068 
Q 947 2378 1403 2484 
z
M 1172 3481 
Q 1172 3119 1398 2916 
Q 1625 2713 2034 2713 
Q 2441 2713 2670 2916 
Q 2900 3119 2900 3481 
Q 2900 3844 2670 4047 
Q 2441 4250 2034 4250 
Q 1625 4250 1398 4047 
Q 1172 3844 1172 3481 
z
" transform="scale(0.015625)"/>
       </defs>
       <use xlink:href="#DejaVuSans-1b"/>
      </g>
     </g>
    </g>
    <g id="xtick_6">
     <g id="line2d_11">
      <path d="M 382.225787 276.616953 
L 382.225787 7.2 
" clip-path="url(#pde4dd417cb)" style="fill: none; stroke: #d7dee5; stroke-opacity: 0.5; stroke-width: 0.8; stroke-linecap: square"/>
     </g>
     <g id="line2d_12"/>
     <g id="text_6">
      <!-- 10 -->
      <g style="fill: #56657a" transform="translate(373.954537 289.993906) scale(0.13 -0.13)">
       <defs>
        <path id="DejaVuSans-14" d="M 794 531 
L 1825 531 
L 1825 4091 
L 703 3866 
L 703 4441 
L 1819 4666 
L 2450 4666 
L 2450 531 
L 3481 531 
L 3481 0 
L 794 0 
L 794 531 
z
" transform="scale(0.015625)"/>
       </defs>
       <use xlink:href="#DejaVuSans-14"/>
       <use xlink:href="#DejaVuSans-13" transform="translate(63.625 0)"/>
      </g>
     </g>
    </g>
    <g id="xtick_7">
     <g id="line2d_13">
      <path d="M 449.822242 276.616953 
L 449.822242 7.2 
" clip-path="url(#pde4dd417cb)" style="fill: none; stroke: #d7dee5; stroke-opacity: 0.5; stroke-width: 0.8; stroke-linecap: square"/>
     </g>
     <g id="line2d_14"/>
     <g id="text_7">
      <!-- 12 -->
      <g style="fill: #56657a" transform="translate(441.550992 289.993906) scale(0.13 -0.13)">
       <use xlink:href="#DejaVuSans-14"/>
       <use xlink:href="#DejaVuSans-15" transform="translate(63.625 0)"/>
      </g>
     </g>
    </g>
    <g id="text_8">
     <!-- Actual downtime  (hours) -->
     <g style="fill: #1c2630" transform="translate(181.801445 306.994922) scale(0.13 -0.13)">
      <defs>
       <path id="DejaVuSans-24" d="M 2188 4044 
L 1331 1722 
L 3047 1722 
L 2188 4044 
z
M 1831 4666 
L 2547 4666 
L 4325 0 
L 3669 0 
L 3244 1197 
L 1141 1197 
L 716 0 
L 50 0 
L 1831 4666 
z
" transform="scale(0.015625)"/>
       <path id="DejaVuSans-46" d="M 3122 3366 
L 3122 2828 
Q 2878 2963 2633 3030 
Q 2388 3097 2138 3097 
Q 1578 3097 1268 2742 
Q 959 2388 959 1747 
Q 959 1106 1268 751 
Q 1578 397 2138 397 
Q 2388 397 2633 464 
Q 2878 531 3122 666 
L 3122 134 
Q 2881 22 2623 -34 
Q 2366 -91 2075 -91 
Q 1284 -91 818 406 
Q 353 903 353 1747 
Q 353 2603 823 3093 
Q 1294 3584 2113 3584 
Q 2378 3584 2631 3529 
Q 2884 3475 3122 3366 
z
" transform="scale(0.015625)"/>
       <path id="DejaVuSans-57" d="M 1172 4494 
L 1172 3500 
L 2356 3500 
L 2356 3053 
L 1172 3053 
L 1172 1153 
Q 1172 725 1289 603 
Q 1406 481 1766 481 
L 2356 481 
L 2356 0 
L 1766 0 
Q 1100 0 847 248 
Q 594 497 594 1153 
L 594 3053 
L 172 3053 
L 172 3500 
L 594 3500 
L 594 4494 
L 1172 4494 
z
" transform="scale(0.015625)"/>
       <path id="DejaVuSans-58" d="M 544 1381 
L 544 3500 
L 1119 3500 
L 1119 1403 
Q 1119 906 1312 657 
Q 1506 409 1894 409 
Q 2359 409 2629 706 
Q 2900 1003 2900 1516 
L 2900 3500 
L 3475 3500 
L 3475 0 
L 2900 0 
L 2900 538 
Q 2691 219 2414 64 
Q 2138 -91 1772 -91 
Q 1169 -91 856 284 
Q 544 659 544 1381 
z
M 1991 3584 
L 1991 3584 
z
" transform="scale(0.015625)"/>
       <path id="DejaVuSans-44" d="M 2194 1759 
Q 1497 1759 1228 1600 
Q 959 1441 959 1056 
Q 959 750 1161 570 
Q 1363 391 1709 391 
Q 2188 391 2477 730 
Q 2766 1069 2766 1631 
L 2766 1759 
L 2194 1759 
z
M 3341 1997 
L 3341 0 
L 2766 0 
L 2766 531 
Q 2569 213 2275 61 
Q 1981 -91 1556 -91 
Q 1019 -91 701 211 
Q 384 513 384 1019 
Q 384 1609 779 1909 
Q 1175 2209 1959 2209 
L 2766 2209 
L 2766 2266 
Q 2766 2663 2505 2880 
Q 2244 3097 1772 3097 
Q 1472 3097 1187 3025 
Q 903 2953 641 2809 
L 641 3341 
Q 956 3463 1253 3523 
Q 1550 3584 1831 3584 
Q 2591 3584 2966 3190 
Q 3341 2797 3341 1997 
z
" transform="scale(0.015625)"/>
       <path id="DejaVuSans-4f" d="M 603 4863 
L 1178 4863 
L 1178 0 
L 603 0 
L 603 4863 
z
" transform="scale(0.015625)"/>
       <path id="DejaVuSans-3" transform="scale(0.015625)"/>
       <path id="DejaVuSans-47" d="M 2906 2969 
L 2906 4863 
L 3481 4863 
L 3481 0 
L 2906 0 
L 2906 525 
Q 2725 213 2448 61 
Q 2172 -91 1784 -91 
Q 1150 -91 751 415 
Q 353 922 353 1747 
Q 353 2572 751 3078 
Q 1150 3584 1784 3584 
Q 2172 3584 2448 3432 
Q 2725 3281 2906 2969 
z
M 947 1747 
Q 947 1113 1208 752 
Q 1469 391 1925 391 
Q 2381 391 2643 752 
Q 2906 1113 2906 1747 
Q 2906 2381 2643 2742 
Q 2381 3103 1925 3103 
Q 1469 3103 1208 2742 
Q 947 2381 947 1747 
z
" transform="scale(0.015625)"/>
       <path id="DejaVuSans-52" d="M 1959 3097 
Q 1497 3097 1228 2736 
Q 959 2375 959 1747 
Q 959 1119 1226 758 
Q 1494 397 1959 397 
Q 2419 397 2687 759 
Q 2956 1122 2956 1747 
Q 2956 2369 2687 2733 
Q 2419 3097 1959 3097 
z
M 1959 3584 
Q 2709 3584 3137 3096 
Q 3566 2609 3566 1747 
Q 3566 888 3137 398 
Q 2709 -91 1959 -91 
Q 1206 -91 779 398 
Q 353 888 353 1747 
Q 353 2609 779 3096 
Q 1206 3584 1959 3584 
z
" transform="scale(0.015625)"/>
       <path id="DejaVuSans-5a" d="M 269 3500 
L 844 3500 
L 1563 769 
L 2278 3500 
L 2956 3500 
L 3675 769 
L 4391 3500 
L 4966 3500 
L 4050 0 
L 3372 0 
L 2619 2869 
L 1863 0 
L 1184 0 
L 269 3500 
z
" transform="scale(0.015625)"/>
       <path id="DejaVuSans-51" d="M 3513 2113 
L 3513 0 
L 2938 0 
L 2938 2094 
Q 2938 2591 2744 2837 
Q 2550 3084 2163 3084 
Q 1697 3084 1428 2787 
Q 1159 2491 1159 1978 
L 1159 0 
L 581 0 
L 581 3500 
L 1159 3500 
L 1159 2956 
Q 1366 3272 1645 3428 
Q 1925 3584 2291 3584 
Q 2894 3584 3203 3211 
Q 3513 2838 3513 2113 
z
" transform="scale(0.015625)"/>
       <path id="DejaVuSans-4c" d="M 603 3500 
L 1178 3500 
L 1178 0 
L 603 0 
L 603 3500 
z
M 603 4863 
L 1178 4863 
L 1178 4134 
L 603 4134 
L 603 4863 
z
" transform="scale(0.015625)"/>
       <path id="DejaVuSans-50" d="M 3328 2828 
Q 3544 3216 3844 3400 
Q 4144 3584 4550 3584 
Q 5097 3584 5394 3201 
Q 5691 2819 5691 2113 
L 5691 0 
L 5113 0 
L 5113 2094 
Q 5113 2597 4934 2840 
Q 4756 3084 4391 3084 
Q 3944 3084 3684 2787 
Q 3425 2491 3425 1978 
L 3425 0 
L 2847 0 
L 2847 2094 
Q 2847 2600 2669 2842 
Q 2491 3084 2119 3084 
Q 1678 3084 1418 2786 
Q 1159 2488 1159 1978 
L 1159 0 
L 581 0 
L 581 3500 
L 1159 3500 
L 1159 2956 
Q 1356 3278 1631 3431 
Q 1906 3584 2284 3584 
Q 2666 3584 2933 3390 
Q 3200 3197 3328 2828 
z
" transform="scale(0.015625)"/>
       <path id="DejaVuSans-48" d="M 3597 1894 
L 3597 1613 
L 953 1613 
Q 991 1019 1311 708 
Q 1631 397 2203 397 
Q 2534 397 2845 478 
Q 3156 559 3463 722 
L 3463 178 
Q 3153 47 2828 -22 
Q 2503 -91 2169 -91 
Q 1331 -91 842 396 
Q 353 884 353 1716 
Q 353 2575 817 3079 
Q 1281 3584 2069 3584 
Q 2775 3584 3186 3129 
Q 3597 2675 3597 1894 
z
M 3022 2063 
Q 3016 2534 2758 2815 
Q 2500 3097 2075 3097 
Q 1594 3097 1305 2825 
Q 1016 2553 972 2059 
L 3022 2063 
z
" transform="scale(0.015625)"/>
       <path id="DejaVuSans-b" d="M 1984 4856 
Q 1566 4138 1362 3434 
Q 1159 2731 1159 2009 
Q 1159 1288 1364 580 
Q 1569 -128 1984 -844 
L 1484 -844 
Q 1016 -109 783 600 
Q 550 1309 550 2009 
Q 550 2706 781 3412 
Q 1013 4119 1484 4856 
L 1984 4856 
z
" transform="scale(0.015625)"/>
       <path id="DejaVuSans-4b" d="M 3513 2113 
L 3513 0 
L 2938 0 
L 2938 2094 
Q 2938 2591 2744 2837 
Q 2550 3084 2163 3084 
Q 1697 3084 1428 2787 
Q 1159 2491 1159 1978 
L 1159 0 
L 581 0 
L 581 4863 
L 1159 4863 
L 1159 2956 
Q 1366 3272 1645 3428 
Q 1925 3584 2291 3584 
Q 2894 3584 3203 3211 
Q 3513 2838 3513 2113 
z
" transform="scale(0.015625)"/>
       <path id="DejaVuSans-55" d="M 2631 2963 
Q 2534 3019 2420 3045 
Q 2306 3072 2169 3072 
Q 1681 3072 1420 2755 
Q 1159 2438 1159 1844 
L 1159 0 
L 581 0 
L 581 3500 
L 1159 3500 
L 1159 2956 
Q 1341 3275 1631 3429 
Q 1922 3584 2338 3584 
Q 2397 3584 2469 3576 
Q 2541 3569 2628 3553 
L 2631 2963 
z
" transform="scale(0.015625)"/>
       <path id="DejaVuSans-56" d="M 2834 3397 
L 2834 2853 
Q 2591 2978 2328 3040 
Q 2066 3103 1784 3103 
Q 1356 3103 1142 2972 
Q 928 2841 928 2578 
Q 928 2378 1081 2264 
Q 1234 2150 1697 2047 
L 1894 2003 
Q 2506 1872 2764 1633 
Q 3022 1394 3022 966 
Q 3022 478 2636 193 
Q 2250 -91 1575 -91 
Q 1294 -91 989 -36 
Q 684 19 347 128 
L 347 722 
Q 666 556 975 473 
Q 1284 391 1588 391 
Q 1994 391 2212 530 
Q 2431 669 2431 922 
Q 2431 1156 2273 1281 
Q 2116 1406 1581 1522 
L 1381 1569 
Q 847 1681 609 1914 
Q 372 2147 372 2553 
Q 372 3047 722 3315 
Q 1072 3584 1716 3584 
Q 2034 3584 2315 3537 
Q 2597 3491 2834 3397 
z
" transform="scale(0.015625)"/>
       <path id="DejaVuSans-c" d="M 513 4856 
L 1013 4856 
Q 1481 4119 1714 3412 
Q 1947 2706 1947 2009 
Q 1947 1309 1714 600 
Q 1481 -109 1013 -844 
L 513 -844 
Q 928 -128 1133 580 
Q 1338 1288 1338 2009 
Q 1338 2731 1133 3434 
Q 928 4138 513 4856 
z
" transform="scale(0.015625)"/>
      </defs>
      <use xlink:href="#DejaVuSans-24"/>
      <use xlink:href="#DejaVuSans-46" transform="translate(66.65625 0)"/>
      <use xlink:href="#DejaVuSans-57" transform="translate(121.640625 0)"/>
      <use xlink:href="#DejaVuSans-58" transform="translate(160.84375 0)"/>
      <use xlink:href="#DejaVuSans-44" transform="translate(224.21875 0)"/>
      <use xlink:href="#DejaVuSans-4f" transform="translate(285.5 0)"/>
      <use xlink:href="#DejaVuSans-3" transform="translate(313.28125 0)"/>
      <use xlink:href="#DejaVuSans-47" transform="translate(345.0625 0)"/>
      <use xlink:href="#DejaVuSans-52" transform="translate(408.546875 0)"/>
      <use xlink:href="#DejaVuSans-5a" transform="translate(469.734375 0)"/>
      <use xlink:href="#DejaVuSans-51" transform="translate(551.515625 0)"/>
      <use xlink:href="#DejaVuSans-57" transform="translate(614.890625 0)"/>
      <use xlink:href="#DejaVuSans-4c" transform="translate(654.09375 0)"/>
      <use xlink:href="#DejaVuSans-50" transform="translate(681.875 0)"/>
      <use xlink:href="#DejaVuSans-48" transform="translate(779.28125 0)"/>
      <use xlink:href="#DejaVuSans-3" transform="translate(840.8125 0)"/>
      <use xlink:href="#DejaVuSans-3" transform="translate(872.59375 0)"/>
      <use xlink:href="#DejaVuSans-b" transform="translate(904.375 0)"/>
      <use xlink:href="#DejaVuSans-4b" transform="translate(943.390625 0)"/>
      <use xlink:href="#DejaVuSans-52" transform="translate(1006.765625 0)"/>
      <use xlink:href="#DejaVuSans-58" transform="translate(1067.953125 0)"/>
      <use xlink:href="#DejaVuSans-55" transform="translate(1131.328125 0)"/>
      <use xlink:href="#DejaVuSans-56" transform="translate(1172.4375 0)"/>
      <use xlink:href="#DejaVuSans-c" transform="translate(1224.53125 0)"/>
     </g>
    </g>
   </g>
   <g id="matplotlib.axis_2">
    <g id="ytick_1">
     <g id="line2d_15">
      <path d="M 44.243516 276.616953 
L 483.620469 276.616953 
" clip-path="url(#pde4dd417cb)" style="fill: none; stroke: #d7dee5; stroke-opacity: 0.5; stroke-width: 0.8; stroke-linecap: square"/>
     </g>
     <g id="line2d_16"/>
     <g id="text_9">
      <!-- 0 -->
      <g style="fill: #56657a" transform="translate(32.472266 281.55543) scale(0.13 -0.13)">
       <use xlink:href="#DejaVuSans-13"/>
      </g>
     </g>
    </g>
    <g id="ytick_2">
     <g id="line2d_17">
      <path d="M 44.243516 235.168191 
L 483.620469 235.168191 
" clip-path="url(#pde4dd417cb)" style="fill: none; stroke: #d7dee5; stroke-opacity: 0.5; stroke-width: 0.8; stroke-linecap: square"/>
     </g>
     <g id="line2d_18"/>
     <g id="text_10">
      <!-- 2 -->
      <g style="fill: #56657a" transform="translate(32.472266 240.106668) scale(0.13 -0.13)">
       <use xlink:href="#DejaVuSans-15"/>
      </g>
     </g>
    </g>
    <g id="ytick_3">
     <g id="line2d_19">
      <path d="M 44.243516 193.719429 
L 483.620469 193.719429 
" clip-path="url(#pde4dd417cb)" style="fill: none; stroke: #d7dee5; stroke-opacity: 0.5; stroke-width: 0.8; stroke-linecap: square"/>
     </g>
     <g id="line2d_20"/>
     <g id="text_11">
      <!-- 4 -->
      <g style="fill: #56657a" transform="translate(32.472266 198.657906) scale(0.13 -0.13)">
       <use xlink:href="#DejaVuSans-17"/>
      </g>
     </g>
    </g>
    <g id="ytick_4">
     <g id="line2d_21">
      <path d="M 44.243516 152.270667 
L 483.620469 152.270667 
" clip-path="url(#pde4dd417cb)" style="fill: none; stroke: #d7dee5; stroke-opacity: 0.5; stroke-width: 0.8; stroke-linecap: square"/>
     </g>
     <g id="line2d_22"/>
     <g id="text_12">
      <!-- 6 -->
      <g style="fill: #56657a" transform="translate(32.472266 157.209144) scale(0.13 -0.13)">
       <use xlink:href="#DejaVuSans-19"/>
      </g>
     </g>
    </g>
    <g id="ytick_5">
     <g id="line2d_23">
      <path d="M 44.243516 110.821905 
L 483.620469 110.821905 
" clip-path="url(#pde4dd417cb)" style="fill: none; stroke: #d7dee5; stroke-opacity: 0.5; stroke-width: 0.8; stroke-linecap: square"/>
     </g>
     <g id="line2d_24"/>
     <g id="text_13">
      <!-- 8 -->
      <g style="fill: #56657a" transform="translate(32.472266 115.760382) scale(0.13 -0.13)">
       <use xlink:href="#DejaVuSans-1b"/>
      </g>
     </g>
    </g>
    <g id="ytick_6">
     <g id="line2d_25">
      <path d="M 44.243516 69.373143 
L 483.620469 69.373143 
" clip-path="url(#pde4dd417cb)" style="fill: none; stroke: #d7dee5; stroke-opacity: 0.5; stroke-width: 0.8; stroke-linecap: square"/>
     </g>
     <g id="line2d_26"/>
     <g id="text_14">
      <!-- 10 -->
      <g style="fill: #56657a" transform="translate(24.201016 74.31162) scale(0.13 -0.13)">
       <use xlink:href="#DejaVuSans-14"/>
       <use xlink:href="#DejaVuSans-13" transform="translate(63.625 0)"/>
      </g>
     </g>
    </g>
    <g id="ytick_7">
     <g id="line2d_27">
      <path d="M 44.243516 27.924381 
L 483.620469 27.924381 
" clip-path="url(#pde4dd417cb)" style="fill: none; stroke: #d7dee5; stroke-opacity: 0.5; stroke-width: 0.8; stroke-linecap: square"/>
     </g>
     <g id="line2d_28"/>
     <g id="text_15">
      <!-- 12 -->
      <g style="fill: #56657a" transform="translate(24.201016 32.862858) scale(0.13 -0.13)">
       <use xlink:href="#DejaVuSans-14"/>
       <use xlink:href="#DejaVuSans-15" transform="translate(63.625 0)"/>
      </g>
     </g>
    </g>
    <g id="text_16">
     <!-- Predicted downtime  (hours) -->
     <g style="fill: #1c2630" transform="translate(17.077969 234.190195) rotate(-90) scale(0.13 -0.13)">
      <defs>
       <path id="DejaVuSans-33" d="M 1259 4147 
L 1259 2394 
L 2053 2394 
Q 2494 2394 2734 2622 
Q 2975 2850 2975 3272 
Q 2975 3691 2734 3919 
Q 2494 4147 2053 4147 
L 1259 4147 
z
M 628 4666 
L 2053 4666 
Q 2838 4666 3239 4311 
Q 3641 3956 3641 3272 
Q 3641 2581 3239 2228 
Q 2838 1875 2053 1875 
L 1259 1875 
L 1259 0 
L 628 0 
L 628 4666 
z
" transform="scale(0.015625)"/>
      </defs>
      <use xlink:href="#DejaVuSans-33"/>
      <use xlink:href="#DejaVuSans-55" transform="translate(58.546875 0)"/>
      <use xlink:href="#DejaVuSans-48" transform="translate(97.453125 0)"/>
      <use xlink:href="#DejaVuSans-47" transform="translate(158.984375 0)"/>
      <use xlink:href="#DejaVuSans-4c" transform="translate(222.46875 0)"/>
      <use xlink:href="#DejaVuSans-46" transform="translate(250.25 0)"/>
      <use xlink:href="#DejaVuSans-57" transform="translate(305.234375 0)"/>
      <use xlink:href="#DejaVuSans-48" transform="translate(344.4375 0)"/>
      <use xlink:href="#DejaVuSans-47" transform="translate(405.96875 0)"/>
      <use xlink:href="#DejaVuSans-3" transform="translate(469.453125 0)"/>
      <use xlink:href="#DejaVuSans-47" transform="translate(501.234375 0)"/>
      <use xlink:href="#DejaVuSans-52" transform="translate(564.71875 0)"/>
      <use xlink:href="#DejaVuSans-5a" transform="translate(625.90625 0)"/>
      <use xlink:href="#DejaVuSans-51" transform="translate(707.6875 0)"/>
      <use xlink:href="#DejaVuSans-57" transform="translate(771.0625 0)"/>
      <use xlink:href="#DejaVuSans-4c" transform="translate(810.265625 0)"/>
      <use xlink:href="#DejaVuSans-50" transform="translate(838.046875 0)"/>
      <use xlink:href="#DejaVuSans-48" transform="translate(935.453125 0)"/>
      <use xlink:href="#DejaVuSans-3" transform="translate(996.984375 0)"/>
      <use xlink:href="#DejaVuSans-3" transform="translate(1028.765625 0)"/>
      <use xlink:href="#DejaVuSans-b" transform="translate(1060.546875 0)"/>
      <use xlink:href="#DejaVuSans-4b" transform="translate(1099.5625 0)"/>
      <use xlink:href="#DejaVuSans-52" transform="translate(1162.9375 0)"/>
      <use xlink:href="#DejaVuSans-58" transform="translate(1224.125 0)"/>
      <use xlink:href="#DejaVuSans-55" transform="translate(1287.5 0)"/>
      <use xlink:href="#DejaVuSans-56" transform="translate(1328.609375 0)"/>
      <use xlink:href="#DejaVuSans-c" transform="translate(1380.703125 0)"/>
     </g>
    </g>
   </g>
   <g id="patch_3">
    <path d="M 44.243516 276.616953 
L 44.243516 7.2 
" style="fill: none; stroke: #9fb0bd; stroke-width: 1.1; stroke-linejoin: miter; stroke-linecap: square"/>
   </g>
   <g id="patch_4">
    <path d="M 44.243516 276.616953 
L 483.620469 276.616953 
" style="fill: none; stroke: #9fb0bd; stroke-width: 1.1; stroke-linejoin: miter; stroke-linecap: square"/>
   </g>
   <g id="PathCollection_1">
    <defs>
     <path id="m0c3a564b2c" d="M 0 3.24037 
C 0.859356 3.24037 1.683631 2.898944 2.291288 2.291288 
C 2.898944 1.683631 3.24037 0.859356 3.24037 0 
C 3.24037 -0.859356 2.898944 -1.683631 2.291288 -2.291288 
C 1.683631 -2.898944 0.859356 -3.24037 0 -3.24037 
C -0.859356 -3.24037 -1.683631 -2.898944 -2.291288 -2.291288 
C -2.898944 -1.683631 -3.24037 -0.859356 -3.24037 0 
C -3.24037 0.859356 -2.898944 1.683631 -2.291288 2.291288 
C -1.683631 2.898944 -0.859356 3.24037 0 3.24037 
z
" style="stroke: #ffffff; stroke-opacity: 0.9; stroke-width: 0.6"/>
    </defs>
    <g clip-path="url(#pde4dd417cb)">
     <use xlink:href="#m0c3a564b2c" x="365.783509" y="64.510446" style="fill: #0b6e7a; fill-opacity: 0.9; stroke: #ffffff; stroke-opacity: 0.9; stroke-width: 0.6"/>
     <use xlink:href="#m0c3a564b2c" x="241.208188" y="141.961125" style="fill: #0b6e7a; fill-opacity: 0.9; stroke: #ffffff; stroke-opacity: 0.9; stroke-width: 0.6"/>
     <use xlink:href="#m0c3a564b2c" x="397.251706" y="39.475016" style="fill: #0b6e7a; fill-opacity: 0.9; stroke: #ffffff; stroke-opacity: 0.9; stroke-width: 0.6"/>
     <use xlink:href="#m0c3a564b2c" x="337.309576" y="99.97642" style="fill: #0b6e7a; fill-opacity: 0.9; stroke: #ffffff; stroke-opacity: 0.9; stroke-width: 0.6"/>
     <use xlink:href="#m0c3a564b2c" x="113.055044" y="247.582026" style="fill: #0b6e7a; fill-opacity: 0.9; stroke: #ffffff; stroke-opacity: 0.9; stroke-width: 0.6"/>
     <use xlink:href="#m0c3a564b2c" x="440.759107" y="35.959875" style="fill: #0b6e7a; fill-opacity: 0.9; stroke: #ffffff; stroke-opacity: 0.9; stroke-width: 0.6"/>
     <use xlink:href="#m0c3a564b2c" x="361.018641" y="134.830374" style="fill: #0b6e7a; fill-opacity: 0.9; stroke: #ffffff; stroke-opacity: 0.9; stroke-width: 0.6"/>
     <use xlink:href="#m0c3a564b2c" x="370.285122" y="121.68068" style="fill: #0b6e7a; fill-opacity: 0.9; stroke: #ffffff; stroke-opacity: 0.9; stroke-width: 0.6"/>
     <use xlink:href="#m0c3a564b2c" x="125.671893" y="267.804935" style="fill: #0b6e7a; fill-opacity: 0.9; stroke: #ffffff; stroke-opacity: 0.9; stroke-width: 0.6"/>
     <use xlink:href="#m0c3a564b2c" x="245.486451" y="184.219889" style="fill: #0b6e7a; fill-opacity: 0.9; stroke: #ffffff; stroke-opacity: 0.9; stroke-width: 0.6"/>
     <use xlink:href="#m0c3a564b2c" x="215.897217" y="158.934807" style="fill: #0b6e7a; fill-opacity: 0.9; stroke: #ffffff; stroke-opacity: 0.9; stroke-width: 0.6"/>
     <use xlink:href="#m0c3a564b2c" x="422.594893" y="72.767873" style="fill: #0b6e7a; fill-opacity: 0.9; stroke: #ffffff; stroke-opacity: 0.9; stroke-width: 0.6"/>
     <use xlink:href="#m0c3a564b2c" x="317.418238" y="120.867583" style="fill: #0b6e7a; fill-opacity: 0.9; stroke: #ffffff; stroke-opacity: 0.9; stroke-width: 0.6"/>
     <use xlink:href="#m0c3a564b2c" x="383.928466" y="27.940542" style="fill: #0b6e7a; fill-opacity: 0.9; stroke: #ffffff; stroke-opacity: 0.9; stroke-width: 0.6"/>
     <use xlink:href="#m0c3a564b2c" x="242.894495" y="165.883265" style="fill: #0b6e7a; fill-opacity: 0.9; stroke: #ffffff; stroke-opacity: 0.9; stroke-width: 0.6"/>
     <use xlink:href="#m0c3a564b2c" x="162.524668" y="181.162541" style="fill: #0b6e7a; fill-opacity: 0.9; stroke: #ffffff; stroke-opacity: 0.9; stroke-width: 0.6"/>
     <use xlink:href="#m0c3a564b2c" x="284.225552" y="158.487854" style="fill: #0b6e7a; fill-opacity: 0.9; stroke: #ffffff; stroke-opacity: 0.9; stroke-width: 0.6"/>
     <use xlink:href="#m0c3a564b2c" x="101.767754" y="247.730617" style="fill: #0b6e7a; fill-opacity: 0.9; stroke: #ffffff; stroke-opacity: 0.9; stroke-width: 0.6"/>
     <use xlink:href="#m0c3a564b2c" x="385.738873" y="96.751919" style="fill: #0b6e7a; fill-opacity: 0.9; stroke: #ffffff; stroke-opacity: 0.9; stroke-width: 0.6"/>
     <use xlink:href="#m0c3a564b2c" x="312.882248" y="122.432558" style="fill: #0b6e7a; fill-opacity: 0.9; stroke: #ffffff; stroke-opacity: 0.9; stroke-width: 0.6"/>
     <use xlink:href="#m0c3a564b2c" x="359.883981" y="56.950382" style="fill: #0b6e7a; fill-opacity: 0.9; stroke: #ffffff; stroke-opacity: 0.9; stroke-width: 0.6"/>
     <use xlink:href="#m0c3a564b2c" x="209.847584" y="228.768398" style="fill: #0b6e7a; fill-opacity: 0.9; stroke: #ffffff; stroke-opacity: 0.9; stroke-width: 0.6"/>
     <use xlink:href="#m0c3a564b2c" x="438.928338" y="21.099558" style="fill: #0b6e7a; fill-opacity: 0.9; stroke: #ffffff; stroke-opacity: 0.9; stroke-width: 0.6"/>
     <use xlink:href="#m0c3a564b2c" x="410.086759" y="44.898981" style="fill: #0b6e7a; fill-opacity: 0.9; stroke: #ffffff; stroke-opacity: 0.9; stroke-width: 0.6"/>
     <use xlink:href="#m0c3a564b2c" x="367.429548" y="96.915979" style="fill: #0b6e7a; fill-opacity: 0.9; stroke: #ffffff; stroke-opacity: 0.9; stroke-width: 0.6"/>
     <use xlink:href="#m0c3a564b2c" x="150.404619" y="256.474119" style="fill: #0b6e7a; fill-opacity: 0.9; stroke: #ffffff; stroke-opacity: 0.9; stroke-width: 0.6"/>
     <use xlink:href="#m0c3a564b2c" x="251.55951" y="147.25277" style="fill: #0b6e7a; fill-opacity: 0.9; stroke: #ffffff; stroke-opacity: 0.9; stroke-width: 0.6"/>
     <use xlink:href="#m0c3a564b2c" x="94.327129" y="262.36682" style="fill: #0b6e7a; fill-opacity: 0.9; stroke: #ffffff; stroke-opacity: 0.9; stroke-width: 0.6"/>
     <use xlink:href="#m0c3a564b2c" x="135.403567" y="213.48637" style="fill: #0b6e7a; fill-opacity: 0.9; stroke: #ffffff; stroke-opacity: 0.9; stroke-width: 0.6"/>
     <use xlink:href="#m0c3a564b2c" x="331.986023" y="99.49983" style="fill: #0b6e7a; fill-opacity: 0.9; stroke: #ffffff; stroke-opacity: 0.9; stroke-width: 0.6"/>
     <use xlink:href="#m0c3a564b2c" x="354.929789" y="36.316677" style="fill: #0b6e7a; fill-opacity: 0.9; stroke: #ffffff; stroke-opacity: 0.9; stroke-width: 0.6"/>
     <use xlink:href="#m0c3a564b2c" x="437.742994" y="42.771874" style="fill: #0b6e7a; fill-opacity: 0.9; stroke: #ffffff; stroke-opacity: 0.9; stroke-width: 0.6"/>
     <use xlink:href="#m0c3a564b2c" x="199.177257" y="213.431783" style="fill: #0b6e7a; fill-opacity: 0.9; stroke: #ffffff; stroke-opacity: 0.9; stroke-width: 0.6"/>
     <use xlink:href="#m0c3a564b2c" x="215.771437" y="165.866478" style="fill: #0b6e7a; fill-opacity: 0.9; stroke: #ffffff; stroke-opacity: 0.9; stroke-width: 0.6"/>
     <use xlink:href="#m0c3a564b2c" x="252.613437" y="142.009841" style="fill: #0b6e7a; fill-opacity: 0.9; stroke: #ffffff; stroke-opacity: 0.9; stroke-width: 0.6"/>
     <use xlink:href="#m0c3a564b2c" x="148.483499" y="170.446647" style="fill: #0b6e7a; fill-opacity: 0.9; stroke: #ffffff; stroke-opacity: 0.9; stroke-width: 0.6"/>
     <use xlink:href="#m0c3a564b2c" x="126.344025" y="200.313856" style="fill: #0b6e7a; fill-opacity: 0.9; stroke: #ffffff; stroke-opacity: 0.9; stroke-width: 0.6"/>
     <use xlink:href="#m0c3a564b2c" x="254.899558" y="136.353083" style="fill: #0b6e7a; fill-opacity: 0.9; stroke: #ffffff; stroke-opacity: 0.9; stroke-width: 0.6"/>
     <use xlink:href="#m0c3a564b2c" x="162.402214" y="158.675388" style="fill: #0b6e7a; fill-opacity: 0.9; stroke: #ffffff; stroke-opacity: 0.9; stroke-width: 0.6"/>
     <use xlink:href="#m0c3a564b2c" x="327.065524" y="140.150855" style="fill: #0b6e7a; fill-opacity: 0.9; stroke: #ffffff; stroke-opacity: 0.9; stroke-width: 0.6"/>
     <use xlink:href="#m0c3a564b2c" x="240.566301" y="176.123522" style="fill: #0b6e7a; fill-opacity: 0.9; stroke: #ffffff; stroke-opacity: 0.9; stroke-width: 0.6"/>
     <use xlink:href="#m0c3a564b2c" x="387.615258" y="94.872499" style="fill: #0b6e7a; fill-opacity: 0.9; stroke: #ffffff; stroke-opacity: 0.9; stroke-width: 0.6"/>
     <use xlink:href="#m0c3a564b2c" x="338.386652" y="108.372254" style="fill: #0b6e7a; fill-opacity: 0.9; stroke: #ffffff; stroke-opacity: 0.9; stroke-width: 0.6"/>
     <use xlink:href="#m0c3a564b2c" x="194.173569" y="227.479366" style="fill: #0b6e7a; fill-opacity: 0.9; stroke: #ffffff; stroke-opacity: 0.9; stroke-width: 0.6"/>
     <use xlink:href="#m0c3a564b2c" x="387.459707" y="46.419145" style="fill: #0b6e7a; fill-opacity: 0.9; stroke: #ffffff; stroke-opacity: 0.9; stroke-width: 0.6"/>
     <use xlink:href="#m0c3a564b2c" x="377.237437" y="79.340039" style="fill: #0b6e7a; fill-opacity: 0.9; stroke: #ffffff; stroke-opacity: 0.9; stroke-width: 0.6"/>
     <use xlink:href="#m0c3a564b2c" x="222.098648" y="213.282152" style="fill: #0b6e7a; fill-opacity: 0.9; stroke: #ffffff; stroke-opacity: 0.9; stroke-width: 0.6"/>
     <use xlink:href="#m0c3a564b2c" x="185.236509" y="221.733808" style="fill: #0b6e7a; fill-opacity: 0.9; stroke: #ffffff; stroke-opacity: 0.9; stroke-width: 0.6"/>
     <use xlink:href="#m0c3a564b2c" x="331.780262" y="90.559236" style="fill: #0b6e7a; fill-opacity: 0.9; stroke: #ffffff; stroke-opacity: 0.9; stroke-width: 0.6"/>
     <use xlink:href="#m0c3a564b2c" x="129.998991" y="197.97897" style="fill: #0b6e7a; fill-opacity: 0.9; stroke: #ffffff; stroke-opacity: 0.9; stroke-width: 0.6"/>
     <use xlink:href="#m0c3a564b2c" x="152.363714" y="148.248343" style="fill: #0b6e7a; fill-opacity: 0.9; stroke: #ffffff; stroke-opacity: 0.9; stroke-width: 0.6"/>
     <use xlink:href="#m0c3a564b2c" x="80.778891" y="163.632215" style="fill: #0b6e7a; fill-opacity: 0.9; stroke: #ffffff; stroke-opacity: 0.9; stroke-width: 0.6"/>
     <use xlink:href="#m0c3a564b2c" x="370.60488" y="63.616277" style="fill: #0b6e7a; fill-opacity: 0.9; stroke: #ffffff; stroke-opacity: 0.9; stroke-width: 0.6"/>
     <use xlink:href="#m0c3a564b2c" x="325.220326" y="135.089073" style="fill: #0b6e7a; fill-opacity: 0.9; stroke: #ffffff; stroke-opacity: 0.9; stroke-width: 0.6"/>
     <use xlink:href="#m0c3a564b2c" x="340.208479" y="161.415305" style="fill: #0b6e7a; fill-opacity: 0.9; stroke: #ffffff; stroke-opacity: 0.9; stroke-width: 0.6"/>
     <use xlink:href="#m0c3a564b2c" x="368.301571" y="69.588956" style="fill: #0b6e7a; fill-opacity: 0.9; stroke: #ffffff; stroke-opacity: 0.9; stroke-width: 0.6"/>
     <use xlink:href="#m0c3a564b2c" x="248.657679" y="176.545924" style="fill: #0b6e7a; fill-opacity: 0.9; stroke: #ffffff; stroke-opacity: 0.9; stroke-width: 0.6"/>
     <use xlink:href="#m0c3a564b2c" x="289.488628" y="139.149704" style="fill: #0b6e7a; fill-opacity: 0.9; stroke: #ffffff; stroke-opacity: 0.9; stroke-width: 0.6"/>
     <use xlink:href="#m0c3a564b2c" x="130.01554" y="243.051294" style="fill: #0b6e7a; fill-opacity: 0.9; stroke: #ffffff; stroke-opacity: 0.9; stroke-width: 0.6"/>
     <use xlink:href="#m0c3a564b2c" x="120.621791" y="234.160064" style="fill: #0b6e7a; fill-opacity: 0.9; stroke: #ffffff; stroke-opacity: 0.9; stroke-width: 0.6"/>
     <use xlink:href="#m0c3a564b2c" x="326.540929" y="70.380287" style="fill: #0b6e7a; fill-opacity: 0.9; stroke: #ffffff; stroke-opacity: 0.9; stroke-width: 0.6"/>
     <use xlink:href="#m0c3a564b2c" x="253.186125" y="143.615521" style="fill: #0b6e7a; fill-opacity: 0.9; stroke: #ffffff; stroke-opacity: 0.9; stroke-width: 0.6"/>
     <use xlink:href="#m0c3a564b2c" x="288.185504" y="131.968133" style="fill: #0b6e7a; fill-opacity: 0.9; stroke: #ffffff; stroke-opacity: 0.9; stroke-width: 0.6"/>
     <use xlink:href="#m0c3a564b2c" x="362.4534" y="113.692091" style="fill: #0b6e7a; fill-opacity: 0.9; stroke: #ffffff; stroke-opacity: 0.9; stroke-width: 0.6"/>
     <use xlink:href="#m0c3a564b2c" x="314.017636" y="163.257136" style="fill: #0b6e7a; fill-opacity: 0.9; stroke: #ffffff; stroke-opacity: 0.9; stroke-width: 0.6"/>
     <use xlink:href="#m0c3a564b2c" x="283.851768" y="144.811723" style="fill: #0b6e7a; fill-opacity: 0.9; stroke: #ffffff; stroke-opacity: 0.9; stroke-width: 0.6"/>
     <use xlink:href="#m0c3a564b2c" x="285.94406" y="130.083042" style="fill: #0b6e7a; fill-opacity: 0.9; stroke: #ffffff; stroke-opacity: 0.9; stroke-width: 0.6"/>
     <use xlink:href="#m0c3a564b2c" x="191.044462" y="131.642738" style="fill: #0b6e7a; fill-opacity: 0.9; stroke: #ffffff; stroke-opacity: 0.9; stroke-width: 0.6"/>
     <use xlink:href="#m0c3a564b2c" x="89.499213" y="244.817298" style="fill: #0b6e7a; fill-opacity: 0.9; stroke: #ffffff; stroke-opacity: 0.9; stroke-width: 0.6"/>
     <use xlink:href="#m0c3a564b2c" x="240.404752" y="125.784897" style="fill: #0b6e7a; fill-opacity: 0.9; stroke: #ffffff; stroke-opacity: 0.9; stroke-width: 0.6"/>
     <use xlink:href="#m0c3a564b2c" x="157.820139" y="222.495481" style="fill: #0b6e7a; fill-opacity: 0.9; stroke: #ffffff; stroke-opacity: 0.9; stroke-width: 0.6"/>
     <use xlink:href="#m0c3a564b2c" x="229.924726" y="199.596875" style="fill: #0b6e7a; fill-opacity: 0.9; stroke: #ffffff; stroke-opacity: 0.9; stroke-width: 0.6"/>
     <use xlink:href="#m0c3a564b2c" x="395.320363" y="91.345988" style="fill: #0b6e7a; fill-opacity: 0.9; stroke: #ffffff; stroke-opacity: 0.9; stroke-width: 0.6"/>
     <use xlink:href="#m0c3a564b2c" x="165.015882" y="225.106603" style="fill: #0b6e7a; fill-opacity: 0.9; stroke: #ffffff; stroke-opacity: 0.9; stroke-width: 0.6"/>
     <use xlink:href="#m0c3a564b2c" x="99.717565" y="176.434575" style="fill: #0b6e7a; fill-opacity: 0.9; stroke: #ffffff; stroke-opacity: 0.9; stroke-width: 0.6"/>
     <use xlink:href="#m0c3a564b2c" x="182.654787" y="217.280091" style="fill: #0b6e7a; fill-opacity: 0.9; stroke: #ffffff; stroke-opacity: 0.9; stroke-width: 0.6"/>
     <use xlink:href="#m0c3a564b2c" x="187.194176" y="162.89678" style="fill: #0b6e7a; fill-opacity: 0.9; stroke: #ffffff; stroke-opacity: 0.9; stroke-width: 0.6"/>
     <use xlink:href="#m0c3a564b2c" x="324.129395" y="133.065572" style="fill: #0b6e7a; fill-opacity: 0.9; stroke: #ffffff; stroke-opacity: 0.9; stroke-width: 0.6"/>
     <use xlink:href="#m0c3a564b2c" x="285.135434" y="99.947549" style="fill: #0b6e7a; fill-opacity: 0.9; stroke: #ffffff; stroke-opacity: 0.9; stroke-width: 0.6"/>
     <use xlink:href="#m0c3a564b2c" x="369.47981" y="65.22191" style="fill: #0b6e7a; fill-opacity: 0.9; stroke: #ffffff; stroke-opacity: 0.9; stroke-width: 0.6"/>
     <use xlink:href="#m0c3a564b2c" x="325.020562" y="109.319551" style="fill: #0b6e7a; fill-opacity: 0.9; stroke: #ffffff; stroke-opacity: 0.9; stroke-width: 0.6"/>
     <use xlink:href="#m0c3a564b2c" x="229.128453" y="164.516462" style="fill: #0b6e7a; fill-opacity: 0.9; stroke: #ffffff; stroke-opacity: 0.9; stroke-width: 0.6"/>
     <use xlink:href="#m0c3a564b2c" x="380.678647" y="90.676922" style="fill: #0b6e7a; fill-opacity: 0.9; stroke: #ffffff; stroke-opacity: 0.9; stroke-width: 0.6"/>
     <use xlink:href="#m0c3a564b2c" x="140.119018" y="203.961202" style="fill: #0b6e7a; fill-opacity: 0.9; stroke: #ffffff; stroke-opacity: 0.9; stroke-width: 0.6"/>
     <use xlink:href="#m0c3a564b2c" x="86.485649" y="264.858818" style="fill: #0b6e7a; fill-opacity: 0.9; stroke: #ffffff; stroke-opacity: 0.9; stroke-width: 0.6"/>
     <use xlink:href="#m0c3a564b2c" x="111.519781" y="273.464405" style="fill: #0b6e7a; fill-opacity: 0.9; stroke: #ffffff; stroke-opacity: 0.9; stroke-width: 0.6"/>
     <use xlink:href="#m0c3a564b2c" x="346.600862" y="130.944315" style="fill: #0b6e7a; fill-opacity: 0.9; stroke: #ffffff; stroke-opacity: 0.9; stroke-width: 0.6"/>
     <use xlink:href="#m0c3a564b2c" x="249.75869" y="145.234089" style="fill: #0b6e7a; fill-opacity: 0.9; stroke: #ffffff; stroke-opacity: 0.9; stroke-width: 0.6"/>
     <use xlink:href="#m0c3a564b2c" x="137.999445" y="170.039203" style="fill: #0b6e7a; fill-opacity: 0.9; stroke: #ffffff; stroke-opacity: 0.9; stroke-width: 0.6"/>
     <use xlink:href="#m0c3a564b2c" x="264.320419" y="136.69671" style="fill: #0b6e7a; fill-opacity: 0.9; stroke: #ffffff; stroke-opacity: 0.9; stroke-width: 0.6"/>
    </g>
   </g>
   <g id="line2d_29">
    <path d="M 44.243516 276.616953 
L 483.620469 7.2 
" clip-path="url(#pde4dd417cb)" style="fill: none; stroke-dasharray: 8.88,3.84; stroke-dashoffset: 0; stroke: #b26a00; stroke-width: 2.4"/>
   </g>
   <g id="legend_1">
    <g id="line2d_30">
     <path d="M 55.943516 24.227969 
L 68.943516 24.227969 
L 81.943516 24.227969 
" style="fill: none; stroke-dasharray: 8.88,3.84; stroke-dashoffset: 0; stroke: #b26a00; stroke-width: 2.4"/>
    </g>
    <g id="text_17">
     <!-- Perfect prediction -->
     <g style="fill: #1c2630" transform="translate(92.343516 28.777969) scale(0.13 -0.13)">
      <defs>
       <path id="DejaVuSans-49" d="M 2375 4863 
L 2375 4384 
L 1825 4384 
Q 1516 4384 1395 4259 
Q 1275 4134 1275 3809 
L 1275 3500 
L 2222 3500 
L 2222 3053 
L 1275 3053 
L 1275 0 
L 697 0 
L 697 3053 
L 147 3053 
L 147 3500 
L 697 3500 
L 697 3744 
Q 697 4328 969 4595 
Q 1241 4863 1831 4863 
L 2375 4863 
z
" transform="scale(0.015625)"/>
       <path id="DejaVuSans-53" d="M 1159 525 
L 1159 -1331 
L 581 -1331 
L 581 3500 
L 1159 3500 
L 1159 2969 
Q 1341 3281 1617 3432 
Q 1894 3584 2278 3584 
Q 2916 3584 3314 3078 
Q 3713 2572 3713 1747 
Q 3713 922 3314 415 
Q 2916 -91 2278 -91 
Q 1894 -91 1617 61 
Q 1341 213 1159 525 
z
M 3116 1747 
Q 3116 2381 2855 2742 
Q 2594 3103 2138 3103 
Q 1681 3103 1420 2742 
Q 1159 2381 1159 1747 
Q 1159 1113 1420 752 
Q 1681 391 2138 391 
Q 2594 391 2855 752 
Q 3116 1113 3116 1747 
z
" transform="scale(0.015625)"/>
      </defs>
      <use xlink:href="#DejaVuSans-33"/>
      <use xlink:href="#DejaVuSans-48" transform="translate(56.734375 0)"/>
      <use xlink:href="#DejaVuSans-55" transform="translate(118.265625 0)"/>
      <use xlink:href="#DejaVuSans-49" transform="translate(159.375 0)"/>
      <use xlink:href="#DejaVuSans-48" transform="translate(194.578125 0)"/>
      <use xlink:href="#DejaVuSans-46" transform="translate(256.109375 0)"/>
      <use xlink:href="#DejaVuSans-57" transform="translate(311.09375 0)"/>
      <use xlink:href="#DejaVuSans-3" transform="translate(350.296875 0)"/>
      <use xlink:href="#DejaVuSans-53" transform="translate(382.078125 0)"/>
      <use xlink:href="#DejaVuSans-55" transform="translate(445.5625 0)"/>
      <use xlink:href="#DejaVuSans-48" transform="translate(484.46875 0)"/>
      <use xlink:href="#DejaVuSans-47" transform="translate(546 0)"/>
      <use xlink:href="#DejaVuSans-4c" transform="translate(609.484375 0)"/>
      <use xlink:href="#DejaVuSans-46" transform="translate(637.265625 0)"/>
      <use xlink:href="#DejaVuSans-57" transform="translate(692.25 0)"/>
      <use xlink:href="#DejaVuSans-4c" transform="translate(731.453125 0)"/>
      <use xlink:href="#DejaVuSans-52" transform="translate(759.234375 0)"/>
      <use xlink:href="#DejaVuSans-51" transform="translate(820.421875 0)"/>
     </g>
    </g>
   </g>
  </g>
 </g>
 <defs>
  <clipPath id="pde4dd417cb">
   <rect x="44.243516" y="7.2" width="439.376953" height="269.416953"/>
  </clipPath>
 </defs>
</svg>
