<?xml version="1.0" encoding="utf-8" standalone="no"?>
<!DOCTYPE svg PUBLIC "-//W3C//DTD SVG 1.1//EN"
  "http://www.w3.org/Graphics/SVG/1.1/DTD/svg11.dtd">
<svg xmlns:xlink="http://www.w3.org/1999/xlink" width="521.623512pt" height="331.717969pt" viewBox="0 0 521.623512 331.717969" xmlns="http://www.w3.org/2000/svg" version="1.1">
 <metadata>
  <rdf:RDF xmlns:dc="http://purl.org/dc/elements/1.1/" xmlns:cc="http://creativecommons.org/ns#" xmlns:rdf="http://www.w3.org/1999/02/22-rdf-syntax-ns#">
   <cc:Work>
    <dc:type rdf:resource="http://purl.org/dc/dcmitype/StillImage"/>
    <dc:date>2026-06-17T18:46:59.571669</dc:date>
    <dc:format>image/svg+xml</dc:format>
    <dc:creator>
     <cc:Agent>
      <dc:title>Matplotlib v3.11.0, https://matplotlib.org/</dc:title>
     </cc:Agent>
    </dc:creator>
   </cc:Work>
  </rdf:RDF>
 </metadata>
 <defs>
  <style type="text/css">*{stroke-linejoin: round; stroke-linecap: butt}</style>
 </defs>
 <g id="figure_1">
  <g id="patch_1">
   <path d="M 0 331.717969 
L 521.623512 331.717969 
L 521.623512 0 
L 0 0 
L 0 331.717969 
z
" style="fill: none"/>
  </g>
  <g id="axes_1">
   <g id="patch_2">
    <path d="M 137.387031 291.016953 
L 512.388302 291.016953 
L 512.388302 7.2 
L 137.387031 7.2 
L 137.387031 291.016953 
z
" style="fill: none"/>
   </g>
   <g id="patch_3">
    <path d="M 137.387031 278.116183 
L 159.619315 278.116183 
L 159.619315 241.573227 
L 137.387031 241.573227 
z
" clip-path="url(#p0015876b6e)" style="fill: #36b6c9; stroke: #0c1116; stroke-linejoin: miter"/>
   </g>
   <g id="patch_4">
    <path d="M 137.387031 222.748068 
L 174.132776 222.748068 
L 174.132776 186.205113 
L 137.387031 186.205113 
z
" clip-path="url(#p0015876b6e)" style="fill: #36b6c9; stroke: #0c1116; stroke-linejoin: miter"/>
   </g>
   <g id="patch_5">
    <path d="M 137.387031 167.379954 
L 189.035636 167.379954 
L 189.035636 130.836999 
L 137.387031 130.836999 
z
" clip-path="url(#p0015876b6e)" style="fill: #36b6c9; stroke: #0c1116; stroke-linejoin: miter"/>
   </g>
   <g id="patch_6">
    <path d="M 137.387031 112.01184 
L 193.472685 112.01184 
L 193.472685 75.468885 
L 137.387031 75.468885 
z
" clip-path="url(#p0015876b6e)" style="fill: #36b6c9; stroke: #0c1116; stroke-linejoin: miter"/>
   </g>
   <g id="patch_7">
    <path d="M 137.387031 56.643726 
L 494.531099 56.643726 
L 494.531099 20.100771 
L 137.387031 20.100771 
z
" clip-path="url(#p0015876b6e)" style="fill: #36b6c9; stroke: #0c1116; stroke-linejoin: miter"/>
   </g>
   <g id="matplotlib.axis_1">
    <g id="xtick_1">
     <g id="line2d_1">
      <path d="M 137.387031 291.016953 
L 137.387031 7.2 
" clip-path="url(#p0015876b6e)" style="fill: none; stroke: #36b6c9; stroke-opacity: 0.16; stroke-width: 0.7; stroke-linecap: square"/>
     </g>
     <g id="line2d_2"/>
     <g id="text_1">
      <!-- 0.0 -->
      <g style="fill: #88a1b2" transform="translate(127.05 304.393906) scale(0.13 -0.13)">
       <defs>
        <path id="DejaVuSans-13" d="M 2034 4250 
Q 1547 4250 1301 3770 
Q 1056 3291 1056 2328 
Q 1056 1369 1301 889 
Q 1547 409 2034 409 
Q 2525 409 2770 889 
Q 3016 1369 3016 2328 
Q 3016 3291 2770 3770 
Q 2525 4250 2034 4250 
z
M 2034 4750 
Q 2819 4750 3233 4129 
Q 3647 3509 3647 2328 
Q 3647 1150 3233 529 
Q 2819 -91 2034 -91 
Q 1250 -91 836 529 
Q 422 1150 422 2328 
Q 422 3509 836 4129 
Q 1250 4750 2034 4750 
z
" transform="scale(0.015625)"/>
        <path id="DejaVuSans-11" d="M 684 794 
L 1344 794 
L 1344 0 
L 684 0 
L 684 794 
z
" transform="scale(0.015625)"/>
       </defs>
       <use xlink:href="#DejaVuSans-13"/>
       <use xlink:href="#DejaVuSans-11" transform="translate(63.625 0)"/>
       <use xlink:href="#DejaVuSans-13" transform="translate(95.40625 0)"/>
      </g>
     </g>
    </g>
    <g id="xtick_2">
     <g id="line2d_3">
      <path d="M 189.772667 291.016953 
L 189.772667 7.2 
" clip-path="url(#p0015876b6e)" style="fill: none; stroke: #36b6c9; stroke-opacity: 0.16; stroke-width: 0.7; stroke-linecap: square"/>
     </g>
     <g id="line2d_4"/>
     <g id="text_2">
      <!-- 0.1 -->
      <g style="fill: #88a1b2" transform="translate(179.435636 304.393906) scale(0.13 -0.13)">
       <defs>
        <path id="DejaVuSans-14" d="M 794 531 
L 1825 531 
L 1825 4091 
L 703 3866 
L 703 4441 
L 1819 4666 
L 2450 4666 
L 2450 531 
L 3481 531 
L 3481 0 
L 794 0 
L 794 531 
z
" transform="scale(0.015625)"/>
       </defs>
       <use xlink:href="#DejaVuSans-13"/>
       <use xlink:href="#DejaVuSans-11" transform="translate(63.625 0)"/>
       <use xlink:href="#DejaVuSans-14" transform="translate(95.40625 0)"/>
      </g>
     </g>
    </g>
    <g id="xtick_3">
     <g id="line2d_5">
      <path d="M 242.158302 291.016953 
L 242.158302 7.2 
" clip-path="url(#p0015876b6e)" style="fill: none; stroke: #36b6c9; stroke-opacity: 0.16; stroke-width: 0.7; stroke-linecap: square"/>
     </g>
     <g id="line2d_6"/>
     <g id="text_3">
      <!-- 0.2 -->
      <g style="fill: #88a1b2" transform="translate(231.821271 304.393906) scale(0.13 -0.13)">
       <defs>
        <path id="DejaVuSans-15" d="M 1228 531 
L 3431 531 
L 3431 0 
L 469 0 
L 469 531 
Q 828 903 1448 1529 
Q 2069 2156 2228 2338 
Q 2531 2678 2651 2914 
Q 2772 3150 2772 3378 
Q 2772 3750 2511 3984 
Q 2250 4219 1831 4219 
Q 1534 4219 1204 4116 
Q 875 4013 500 3803 
L 500 4441 
Q 881 4594 1212 4672 
Q 1544 4750 1819 4750 
Q 2544 4750 2975 4387 
Q 3406 4025 3406 3419 
Q 3406 3131 3298 2873 
Q 3191 2616 2906 2266 
Q 2828 2175 2409 1742 
Q 1991 1309 1228 531 
z
" transform="scale(0.015625)"/>
       </defs>
       <use xlink:href="#DejaVuSans-13"/>
       <use xlink:href="#DejaVuSans-11" transform="translate(63.625 0)"/>
       <use xlink:href="#DejaVuSans-15" transform="translate(95.40625 0)"/>
      </g>
     </g>
    </g>
    <g id="xtick_4">
     <g id="line2d_7">
      <path d="M 294.543938 291.016953 
L 294.543938 7.2 
" clip-path="url(#p0015876b6e)" style="fill: none; stroke: #36b6c9; stroke-opacity: 0.16; stroke-width: 0.7; stroke-linecap: square"/>
     </g>
     <g id="line2d_8"/>
     <g id="text_4">
      <!-- 0.3 -->
      <g style="fill: #88a1b2" transform="translate(284.206907 304.393906) scale(0.13 -0.13)">
       <defs>
        <path id="DejaVuSans-16" d="M 2597 2516 
Q 3050 2419 3304 2112 
Q 3559 1806 3559 1356 
Q 3559 666 3084 287 
Q 2609 -91 1734 -91 
Q 1441 -91 1130 -33 
Q 819 25 488 141 
L 488 750 
Q 750 597 1062 519 
Q 1375 441 1716 441 
Q 2309 441 2620 675 
Q 2931 909 2931 1356 
Q 2931 1769 2642 2001 
Q 2353 2234 1838 2234 
L 1294 2234 
L 1294 2753 
L 1863 2753 
Q 2328 2753 2575 2939 
Q 2822 3125 2822 3475 
Q 2822 3834 2567 4026 
Q 2313 4219 1838 4219 
Q 1578 4219 1281 4162 
Q 984 4106 628 3988 
L 628 4550 
Q 988 4650 1302 4700 
Q 1616 4750 1894 4750 
Q 2613 4750 3031 4423 
Q 3450 4097 3450 3541 
Q 3450 3153 3228 2886 
Q 3006 2619 2597 2516 
z
" transform="scale(0.015625)"/>
       </defs>
       <use xlink:href="#DejaVuSans-13"/>
       <use xlink:href="#DejaVuSans-11" transform="translate(63.625 0)"/>
       <use xlink:href="#DejaVuSans-16" transform="translate(95.40625 0)"/>
      </g>
     </g>
    </g>
    <g id="xtick_5">
     <g id="line2d_9">
      <path d="M 346.929574 291.016953 
L 346.929574 7.2 
" clip-path="url(#p0015876b6e)" style="fill: none; stroke: #36b6c9; stroke-opacity: 0.16; stroke-width: 0.7; stroke-linecap: square"/>
     </g>
     <g id="line2d_10"/>
     <g id="text_5">
      <!-- 0.4 -->
      <g style="fill: #88a1b2" transform="translate(336.592542 304.393906) scale(0.13 -0.13)">
       <defs>
        <path id="DejaVuSans-17" d="M 2419 4116 
L 825 1625 
L 2419 1625 
L 2419 4116 
z
M 2253 4666 
L 3047 4666 
L 3047 1625 
L 3713 1625 
L 3713 1100 
L 3047 1100 
L 3047 0 
L 2419 0 
L 2419 1100 
L 313 1100 
L 313 1709 
L 2253 4666 
z
" transform="scale(0.015625)"/>
       </defs>
       <use xlink:href="#DejaVuSans-13"/>
       <use xlink:href="#DejaVuSans-11" transform="translate(63.625 0)"/>
       <use xlink:href="#DejaVuSans-17" transform="translate(95.40625 0)"/>
      </g>
     </g>
    </g>
    <g id="xtick_6">
     <g id="line2d_11">
      <path d="M 399.315209 291.016953 
L 399.315209 7.2 
" clip-path="url(#p0015876b6e)" style="fill: none; stroke: #36b6c9; stroke-opacity: 0.16; stroke-width: 0.7; stroke-linecap: square"/>
     </g>
     <g id="line2d_12"/>
     <g id="text_6">
      <!-- 0.5 -->
      <g style="fill: #88a1b2" transform="translate(388.978178 304.393906) scale(0.13 -0.13)">
       <defs>
        <path id="DejaVuSans-18" d="M 691 4666 
L 3169 4666 
L 3169 4134 
L 1269 4134 
L 1269 2991 
Q 1406 3038 1543 3061 
Q 1681 3084 1819 3084 
Q 2600 3084 3056 2656 
Q 3513 2228 3513 1497 
Q 3513 744 3044 326 
Q 2575 -91 1722 -91 
Q 1428 -91 1123 -41 
Q 819 9 494 109 
L 494 744 
Q 775 591 1075 516 
Q 1375 441 1709 441 
Q 2250 441 2565 725 
Q 2881 1009 2881 1497 
Q 2881 1984 2565 2268 
Q 2250 2553 1709 2553 
Q 1456 2553 1204 2497 
Q 953 2441 691 2322 
L 691 4666 
z
" transform="scale(0.015625)"/>
       </defs>
       <use xlink:href="#DejaVuSans-13"/>
       <use xlink:href="#DejaVuSans-11" transform="translate(63.625 0)"/>
       <use xlink:href="#DejaVuSans-18" transform="translate(95.40625 0)"/>
      </g>
     </g>
    </g>
    <g id="xtick_7">
     <g id="line2d_13">
      <path d="M 451.700845 291.016953 
L 451.700845 7.2 
" clip-path="url(#p0015876b6e)" style="fill: none; stroke: #36b6c9; stroke-opacity: 0.16; stroke-width: 0.7; stroke-linecap: square"/>
     </g>
     <g id="line2d_14"/>
     <g id="text_7">
      <!-- 0.6 -->
      <g style="fill: #88a1b2" transform="translate(441.363814 304.393906) scale(0.13 -0.13)">
       <defs>
        <path id="DejaVuSans-19" d="M 2113 2584 
Q 1688 2584 1439 2293 
Q 1191 2003 1191 1497 
Q 1191 994 1439 701 
Q 1688 409 2113 409 
Q 2538 409 2786 701 
Q 3034 994 3034 1497 
Q 3034 2003 2786 2293 
Q 2538 2584 2113 2584 
z
M 3366 4563 
L 3366 3988 
Q 3128 4100 2886 4159 
Q 2644 4219 2406 4219 
Q 1781 4219 1451 3797 
Q 1122 3375 1075 2522 
Q 1259 2794 1537 2939 
Q 1816 3084 2150 3084 
Q 2853 3084 3261 2657 
Q 3669 2231 3669 1497 
Q 3669 778 3244 343 
Q 2819 -91 2113 -91 
Q 1303 -91 875 529 
Q 447 1150 447 2328 
Q 447 3434 972 4092 
Q 1497 4750 2381 4750 
Q 2619 4750 2861 4703 
Q 3103 4656 3366 4563 
z
" transform="scale(0.015625)"/>
       </defs>
       <use xlink:href="#DejaVuSans-13"/>
       <use xlink:href="#DejaVuSans-11" transform="translate(63.625 0)"/>
       <use xlink:href="#DejaVuSans-19" transform="translate(95.40625 0)"/>
      </g>
     </g>
    </g>
    <g id="xtick_8">
     <g id="line2d_15">
      <path d="M 504.08648 291.016953 
L 504.08648 7.2 
" clip-path="url(#p0015876b6e)" style="fill: none; stroke: #36b6c9; stroke-opacity: 0.16; stroke-width: 0.7; stroke-linecap: square"/>
     </g>
     <g id="line2d_16"/>
     <g id="text_8">
      <!-- 0.7 -->
      <g style="fill: #88a1b2" transform="translate(493.749449 304.393906) scale(0.13 -0.13)">
       <defs>
        <path id="DejaVuSans-1a" d="M 525 4666 
L 3525 4666 
L 3525 4397 
L 1831 0 
L 1172 0 
L 2766 4134 
L 525 4134 
L 525 4666 
z
" transform="scale(0.015625)"/>
       </defs>
       <use xlink:href="#DejaVuSans-13"/>
       <use xlink:href="#DejaVuSans-11" transform="translate(63.625 0)"/>
       <use xlink:href="#DejaVuSans-1a" transform="translate(95.40625 0)"/>
      </g>
     </g>
    </g>
    <g id="text_9">
     <!-- How much the model relied on each sensor -->
     <g style="fill: #cddde6" transform="translate(183.615245 321.394922) scale(0.13 -0.13)">
      <defs>
       <path id="DejaVuSans-2b" d="M 628 4666 
L 1259 4666 
L 1259 2753 
L 3553 2753 
L 3553 4666 
L 4184 4666 
L 4184 0 
L 3553 0 
L 3553 2222 
L 1259 2222 
L 1259 0 
L 628 0 
L 628 4666 
z
" transform="scale(0.015625)"/>
       <path id="DejaVuSans-52" d="M 1959 3097 
Q 1497 3097 1228 2736 
Q 959 2375 959 1747 
Q 959 1119 1226 758 
Q 1494 397 1959 397 
Q 2419 397 2687 759 
Q 2956 1122 2956 1747 
Q 2956 2369 2687 2733 
Q 2419 3097 1959 3097 
z
M 1959 3584 
Q 2709 3584 3137 3096 
Q 3566 2609 3566 1747 
Q 3566 888 3137 398 
Q 2709 -91 1959 -91 
Q 1206 -91 779 398 
Q 353 888 353 1747 
Q 353 2609 779 3096 
Q 1206 3584 1959 3584 
z
" transform="scale(0.015625)"/>
       <path id="DejaVuSans-5a" d="M 269 3500 
L 844 3500 
L 1563 769 
L 2278 3500 
L 2956 3500 
L 3675 769 
L 4391 3500 
L 4966 3500 
L 4050 0 
L 3372 0 
L 2619 2869 
L 1863 0 
L 1184 0 
L 269 3500 
z
" transform="scale(0.015625)"/>
       <path id="DejaVuSans-3" transform="scale(0.015625)"/>
       <path id="DejaVuSans-50" d="M 3328 2828 
Q 3544 3216 3844 3400 
Q 4144 3584 4550 3584 
Q 5097 3584 5394 3201 
Q 5691 2819 5691 2113 
L 5691 0 
L 5113 0 
L 5113 2094 
Q 5113 2597 4934 2840 
Q 4756 3084 4391 3084 
Q 3944 3084 3684 2787 
Q 3425 2491 3425 1978 
L 3425 0 
L 2847 0 
L 2847 2094 
Q 2847 2600 2669 2842 
Q 2491 3084 2119 3084 
Q 1678 3084 1418 2786 
Q 1159 2488 1159 1978 
L 1159 0 
L 581 0 
L 581 3500 
L 1159 3500 
L 1159 2956 
Q 1356 3278 1631 3431 
Q 1906 3584 2284 3584 
Q 2666 3584 2933 3390 
Q 3200 3197 3328 2828 
z
" transform="scale(0.015625)"/>
       <path id="DejaVuSans-58" d="M 544 1381 
L 544 3500 
L 1119 3500 
L 1119 1403 
Q 1119 906 1312 657 
Q 1506 409 1894 409 
Q 2359 409 2629 706 
Q 2900 1003 2900 1516 
L 2900 3500 
L 3475 3500 
L 3475 0 
L 2900 0 
L 2900 538 
Q 2691 219 2414 64 
Q 2138 -91 1772 -91 
Q 1169 -91 856 284 
Q 544 659 544 1381 
z
M 1991 3584 
L 1991 3584 
z
" transform="scale(0.015625)"/>
       <path id="DejaVuSans-46" d="M 3122 3366 
L 3122 2828 
Q 2878 2963 2633 3030 
Q 2388 3097 2138 3097 
Q 1578 3097 1268 2742 
Q 959 2388 959 1747 
Q 959 1106 1268 751 
Q 1578 397 2138 397 
Q 2388 397 2633 464 
Q 2878 531 3122 666 
L 3122 134 
Q 2881 22 2623 -34 
Q 2366 -91 2075 -91 
Q 1284 -91 818 406 
Q 353 903 353 1747 
Q 353 2603 823 3093 
Q 1294 3584 2113 3584 
Q 2378 3584 2631 3529 
Q 2884 3475 3122 3366 
z
" transform="scale(0.015625)"/>
       <path id="DejaVuSans-4b" d="M 3513 2113 
L 3513 0 
L 2938 0 
L 2938 2094 
Q 2938 2591 2744 2837 
Q 2550 3084 2163 3084 
Q 1697 3084 1428 2787 
Q 1159 2491 1159 1978 
L 1159 0 
L 581 0 
L 581 4863 
L 1159 4863 
L 1159 2956 
Q 1366 3272 1645 3428 
Q 1925 3584 2291 3584 
Q 2894 3584 3203 3211 
Q 3513 2838 3513 2113 
z
" transform="scale(0.015625)"/>
       <path id="DejaVuSans-57" d="M 1172 4494 
L 1172 3500 
L 2356 3500 
L 2356 3053 
L 1172 3053 
L 1172 1153 
Q 1172 725 1289 603 
Q 1406 481 1766 481 
L 2356 481 
L 2356 0 
L 1766 0 
Q 1100 0 847 248 
Q 594 497 594 1153 
L 594 3053 
L 172 3053 
L 172 3500 
L 594 3500 
L 594 4494 
L 1172 4494 
z
" transform="scale(0.015625)"/>
       <path id="DejaVuSans-48" d="M 3597 1894 
L 3597 1613 
L 953 1613 
Q 991 1019 1311 708 
Q 1631 397 2203 397 
Q 2534 397 2845 478 
Q 3156 559 3463 722 
L 3463 178 
Q 3153 47 2828 -22 
Q 2503 -91 2169 -91 
Q 1331 -91 842 396 
Q 353 884 353 1716 
Q 353 2575 817 3079 
Q 1281 3584 2069 3584 
Q 2775 3584 3186 3129 
Q 3597 2675 3597 1894 
z
M 3022 2063 
Q 3016 2534 2758 2815 
Q 2500 3097 2075 3097 
Q 1594 3097 1305 2825 
Q 1016 2553 972 2059 
L 3022 2063 
z
" transform="scale(0.015625)"/>
       <path id="DejaVuSans-47" d="M 2906 2969 
L 2906 4863 
L 3481 4863 
L 3481 0 
L 2906 0 
L 2906 525 
Q 2725 213 2448 61 
Q 2172 -91 1784 -91 
Q 1150 -91 751 415 
Q 353 922 353 1747 
Q 353 2572 751 3078 
Q 1150 3584 1784 3584 
Q 2172 3584 2448 3432 
Q 2725 3281 2906 2969 
z
M 947 1747 
Q 947 1113 1208 752 
Q 1469 391 1925 391 
Q 2381 391 2643 752 
Q 2906 1113 2906 1747 
Q 2906 2381 2643 2742 
Q 2381 3103 1925 3103 
Q 1469 3103 1208 2742 
Q 947 2381 947 1747 
z
" transform="scale(0.015625)"/>
       <path id="DejaVuSans-4f" d="M 603 4863 
L 1178 4863 
L 1178 0 
L 603 0 
L 603 4863 
z
" transform="scale(0.015625)"/>
       <path id="DejaVuSans-55" d="M 2631 2963 
Q 2534 3019 2420 3045 
Q 2306 3072 2169 3072 
Q 1681 3072 1420 2755 
Q 1159 2438 1159 1844 
L 1159 0 
L 581 0 
L 581 3500 
L 1159 3500 
L 1159 2956 
Q 1341 3275 1631 3429 
Q 1922 3584 2338 3584 
Q 2397 3584 2469 3576 
Q 2541 3569 2628 3553 
L 2631 2963 
z
" transform="scale(0.015625)"/>
       <path id="DejaVuSans-4c" d="M 603 3500 
L 1178 3500 
L 1178 0 
L 603 0 
L 603 3500 
z
M 603 4863 
L 1178 4863 
L 1178 4134 
L 603 4134 
L 603 4863 
z
" transform="scale(0.015625)"/>
       <path id="DejaVuSans-51" d="M 3513 2113 
L 3513 0 
L 2938 0 
L 2938 2094 
Q 2938 2591 2744 2837 
Q 2550 3084 2163 3084 
Q 1697 3084 1428 2787 
Q 1159 2491 1159 1978 
L 1159 0 
L 581 0 
L 581 3500 
L 1159 3500 
L 1159 2956 
Q 1366 3272 1645 3428 
Q 1925 3584 2291 3584 
Q 2894 3584 3203 3211 
Q 3513 2838 3513 2113 
z
" transform="scale(0.015625)"/>
       <path id="DejaVuSans-44" d="M 2194 1759 
Q 1497 1759 1228 1600 
Q 959 1441 959 1056 
Q 959 750 1161 570 
Q 1363 391 1709 391 
Q 2188 391 2477 730 
Q 2766 1069 2766 1631 
L 2766 1759 
L 2194 1759 
z
M 3341 1997 
L 3341 0 
L 2766 0 
L 2766 531 
Q 2569 213 2275 61 
Q 1981 -91 1556 -91 
Q 1019 -91 701 211 
Q 384 513 384 1019 
Q 384 1609 779 1909 
Q 1175 2209 1959 2209 
L 2766 2209 
L 2766 2266 
Q 2766 2663 2505 2880 
Q 2244 3097 1772 3097 
Q 1472 3097 1187 3025 
Q 903 2953 641 2809 
L 641 3341 
Q 956 3463 1253 3523 
Q 1550 3584 1831 3584 
Q 2591 3584 2966 3190 
Q 3341 2797 3341 1997 
z
" transform="scale(0.015625)"/>
       <path id="DejaVuSans-56" d="M 2834 3397 
L 2834 2853 
Q 2591 2978 2328 3040 
Q 2066 3103 1784 3103 
Q 1356 3103 1142 2972 
Q 928 2841 928 2578 
Q 928 2378 1081 2264 
Q 1234 2150 1697 2047 
L 1894 2003 
Q 2506 1872 2764 1633 
Q 3022 1394 3022 966 
Q 3022 478 2636 193 
Q 2250 -91 1575 -91 
Q 1294 -91 989 -36 
Q 684 19 347 128 
L 347 722 
Q 666 556 975 473 
Q 1284 391 1588 391 
Q 1994 391 2212 530 
Q 2431 669 2431 922 
Q 2431 1156 2273 1281 
Q 2116 1406 1581 1522 
L 1381 1569 
Q 847 1681 609 1914 
Q 372 2147 372 2553 
Q 372 3047 722 3315 
Q 1072 3584 1716 3584 
Q 2034 3584 2315 3537 
Q 2597 3491 2834 3397 
z
" transform="scale(0.015625)"/>
      </defs>
      <use xlink:href="#DejaVuSans-2b"/>
      <use xlink:href="#DejaVuSans-52" transform="translate(75.203125 0)"/>
      <use xlink:href="#DejaVuSans-5a" transform="translate(136.390625 0)"/>
      <use xlink:href="#DejaVuSans-3" transform="translate(218.171875 0)"/>
      <use xlink:href="#DejaVuSans-50" transform="translate(249.953125 0)"/>
      <use xlink:href="#DejaVuSans-58" transform="translate(347.359375 0)"/>
      <use xlink:href="#DejaVuSans-46" transform="translate(410.734375 0)"/>
      <use xlink:href="#DejaVuSans-4b" transform="translate(465.71875 0)"/>
      <use xlink:href="#DejaVuSans-3" transform="translate(529.09375 0)"/>
      <use xlink:href="#DejaVuSans-57" transform="translate(560.875 0)"/>
      <use xlink:href="#DejaVuSans-4b" transform="translate(600.078125 0)"/>
      <use xlink:href="#DejaVuSans-48" transform="translate(663.453125 0)"/>
      <use xlink:href="#DejaVuSans-3" transform="translate(724.984375 0)"/>
      <use xlink:href="#DejaVuSans-50" transform="translate(756.765625 0)"/>
      <use xlink:href="#DejaVuSans-52" transform="translate(854.171875 0)"/>
      <use xlink:href="#DejaVuSans-47" transform="translate(915.359375 0)"/>
      <use xlink:href="#DejaVuSans-48" transform="translate(978.84375 0)"/>
      <use xlink:href="#DejaVuSans-4f" transform="translate(1040.375 0)"/>
      <use xlink:href="#DejaVuSans-3" transform="translate(1068.15625 0)"/>
      <use xlink:href="#DejaVuSans-55" transform="translate(1099.9375 0)"/>
      <use xlink:href="#DejaVuSans-48" transform="translate(1138.84375 0)"/>
      <use xlink:href="#DejaVuSans-4f" transform="translate(1200.375 0)"/>
      <use xlink:href="#DejaVuSans-4c" transform="translate(1228.15625 0)"/>
      <use xlink:href="#DejaVuSans-48" transform="translate(1255.9375 0)"/>
      <use xlink:href="#DejaVuSans-47" transform="translate(1317.46875 0)"/>
      <use xlink:href="#DejaVuSans-3" transform="translate(1380.953125 0)"/>
      <use xlink:href="#DejaVuSans-52" transform="translate(1412.734375 0)"/>
      <use xlink:href="#DejaVuSans-51" transform="translate(1473.921875 0)"/>
      <use xlink:href="#DejaVuSans-3" transform="translate(1537.296875 0)"/>
      <use xlink:href="#DejaVuSans-48" transform="translate(1569.078125 0)"/>
      <use xlink:href="#DejaVuSans-44" transform="translate(1630.609375 0)"/>
      <use xlink:href="#DejaVuSans-46" transform="translate(1691.890625 0)"/>
      <use xlink:href="#DejaVuSans-4b" transform="translate(1746.875 0)"/>
      <use xlink:href="#DejaVuSans-3" transform="translate(1810.25 0)"/>
      <use xlink:href="#DejaVuSans-56" transform="translate(1842.03125 0)"/>
      <use xlink:href="#DejaVuSans-48" transform="translate(1894.125 0)"/>
      <use xlink:href="#DejaVuSans-51" transform="translate(1955.65625 0)"/>
      <use xlink:href="#DejaVuSans-56" transform="translate(2019.03125 0)"/>
      <use xlink:href="#DejaVuSans-52" transform="translate(2071.125 0)"/>
      <use xlink:href="#DejaVuSans-55" transform="translate(2132.3125 0)"/>
     </g>
    </g>
   </g>
   <g id="matplotlib.axis_2">
    <g id="ytick_1">
     <g id="line2d_17">
      <path d="M 137.387031 259.844705 
L 512.388302 259.844705 
" clip-path="url(#p0015876b6e)" style="fill: none; stroke: #36b6c9; stroke-opacity: 0; stroke-width: 0.7; stroke-linecap: square"/>
     </g>
     <g id="line2d_18"/>
     <g id="text_10">
      <!-- Pressure -->
      <g style="fill: #88a1b2" transform="translate(78.379063 264.783181) scale(0.13 -0.13)">
       <defs>
        <path id="DejaVuSans-33" d="M 1259 4147 
L 1259 2394 
L 2053 2394 
Q 2494 2394 2734 2622 
Q 2975 2850 2975 3272 
Q 2975 3691 2734 3919 
Q 2494 4147 2053 4147 
L 1259 4147 
z
M 628 4666 
L 2053 4666 
Q 2838 4666 3239 4311 
Q 3641 3956 3641 3272 
Q 3641 2581 3239 2228 
Q 2838 1875 2053 1875 
L 1259 1875 
L 1259 0 
L 628 0 
L 628 4666 
z
" transform="scale(0.015625)"/>
       </defs>
       <use xlink:href="#DejaVuSans-33"/>
       <use xlink:href="#DejaVuSans-55" transform="translate(58.546875 0)"/>
       <use xlink:href="#DejaVuSans-48" transform="translate(97.453125 0)"/>
       <use xlink:href="#DejaVuSans-56" transform="translate(158.984375 0)"/>
       <use xlink:href="#DejaVuSans-56" transform="translate(211.078125 0)"/>
       <use xlink:href="#DejaVuSans-58" transform="translate(263.171875 0)"/>
       <use xlink:href="#DejaVuSans-55" transform="translate(326.546875 0)"/>
       <use xlink:href="#DejaVuSans-48" transform="translate(365.453125 0)"/>
      </g>
     </g>
    </g>
    <g id="ytick_2">
     <g id="line2d_19">
      <path d="M 137.387031 204.476591 
L 512.388302 204.476591 
" clip-path="url(#p0015876b6e)" style="fill: none; stroke: #36b6c9; stroke-opacity: 0; stroke-width: 0.7; stroke-linecap: square"/>
     </g>
     <g id="line2d_20"/>
     <g id="text_11">
      <!-- Oil quality -->
      <g style="fill: #88a1b2" transform="translate(67.826719 209.415575) scale(0.13 -0.13)">
       <defs>
        <path id="DejaVuSans-32" d="M 2522 4238 
Q 1834 4238 1429 3725 
Q 1025 3213 1025 2328 
Q 1025 1447 1429 934 
Q 1834 422 2522 422 
Q 3209 422 3611 934 
Q 4013 1447 4013 2328 
Q 4013 3213 3611 3725 
Q 3209 4238 2522 4238 
z
M 2522 4750 
Q 3503 4750 4090 4092 
Q 4678 3434 4678 2328 
Q 4678 1225 4090 567 
Q 3503 -91 2522 -91 
Q 1538 -91 948 565 
Q 359 1222 359 2328 
Q 359 3434 948 4092 
Q 1538 4750 2522 4750 
z
" transform="scale(0.015625)"/>
        <path id="DejaVuSans-54" d="M 947 1747 
Q 947 1113 1208 752 
Q 1469 391 1925 391 
Q 2381 391 2643 752 
Q 2906 1113 2906 1747 
Q 2906 2381 2643 2742 
Q 2381 3103 1925 3103 
Q 1469 3103 1208 2742 
Q 947 2381 947 1747 
z
M 2906 525 
Q 2725 213 2448 61 
Q 2172 -91 1784 -91 
Q 1150 -91 751 415 
Q 353 922 353 1747 
Q 353 2572 751 3078 
Q 1150 3584 1784 3584 
Q 2172 3584 2448 3432 
Q 2725 3281 2906 2969 
L 2906 3500 
L 3481 3500 
L 3481 -1331 
L 2906 -1331 
L 2906 525 
z
" transform="scale(0.015625)"/>
        <path id="DejaVuSans-5c" d="M 2059 -325 
Q 1816 -950 1584 -1140 
Q 1353 -1331 966 -1331 
L 506 -1331 
L 506 -850 
L 844 -850 
Q 1081 -850 1212 -737 
Q 1344 -625 1503 -206 
L 1606 56 
L 191 3500 
L 800 3500 
L 1894 763 
L 2988 3500 
L 3597 3500 
L 2059 -325 
z
" transform="scale(0.015625)"/>
       </defs>
       <use xlink:href="#DejaVuSans-32"/>
       <use xlink:href="#DejaVuSans-4c" transform="translate(78.71875 0)"/>
       <use xlink:href="#DejaVuSans-4f" transform="translate(106.5 0)"/>
       <use xlink:href="#DejaVuSans-3" transform="translate(134.28125 0)"/>
       <use xlink:href="#DejaVuSans-54" transform="translate(166.0625 0)"/>
       <use xlink:href="#DejaVuSans-58" transform="translate(229.546875 0)"/>
       <use xlink:href="#DejaVuSans-44" transform="translate(292.921875 0)"/>
       <use xlink:href="#DejaVuSans-4f" transform="translate(354.203125 0)"/>
       <use xlink:href="#DejaVuSans-4c" transform="translate(381.984375 0)"/>
       <use xlink:href="#DejaVuSans-57" transform="translate(409.765625 0)"/>
       <use xlink:href="#DejaVuSans-5c" transform="translate(448.96875 0)"/>
      </g>
     </g>
    </g>
    <g id="ytick_3">
     <g id="line2d_21">
      <path d="M 137.387031 149.108477 
L 512.388302 149.108477 
" clip-path="url(#p0015876b6e)" style="fill: none; stroke: #36b6c9; stroke-opacity: 0; stroke-width: 0.7; stroke-linecap: square"/>
     </g>
     <g id="line2d_22"/>
     <g id="text_12">
      <!-- Hours since service -->
      <g style="fill: #88a1b2" transform="translate(7.2 154.047461) scale(0.13 -0.13)">
       <defs>
        <path id="DejaVuSans-59" d="M 191 3500 
L 800 3500 
L 1894 563 
L 2988 3500 
L 3597 3500 
L 2284 0 
L 1503 0 
L 191 3500 
z
" transform="scale(0.015625)"/>
       </defs>
       <use xlink:href="#DejaVuSans-2b"/>
       <use xlink:href="#DejaVuSans-52" transform="translate(75.203125 0)"/>
       <use xlink:href="#DejaVuSans-58" transform="translate(136.390625 0)"/>
       <use xlink:href="#DejaVuSans-55" transform="translate(199.765625 0)"/>
       <use xlink:href="#DejaVuSans-56" transform="translate(240.875 0)"/>
       <use xlink:href="#DejaVuSans-3" transform="translate(292.96875 0)"/>
       <use xlink:href="#DejaVuSans-56" transform="translate(324.75 0)"/>
       <use xlink:href="#DejaVuSans-4c" transform="translate(376.84375 0)"/>
       <use xlink:href="#DejaVuSans-51" transform="translate(404.625 0)"/>
       <use xlink:href="#DejaVuSans-46" transform="translate(468 0)"/>
       <use xlink:href="#DejaVuSans-48" transform="translate(522.984375 0)"/>
       <use xlink:href="#DejaVuSans-3" transform="translate(584.515625 0)"/>
       <use xlink:href="#DejaVuSans-56" transform="translate(616.296875 0)"/>
       <use xlink:href="#DejaVuSans-48" transform="translate(668.390625 0)"/>
       <use xlink:href="#DejaVuSans-55" transform="translate(729.921875 0)"/>
       <use xlink:href="#DejaVuSans-59" transform="translate(771.03125 0)"/>
       <use xlink:href="#DejaVuSans-4c" transform="translate(830.21875 0)"/>
       <use xlink:href="#DejaVuSans-46" transform="translate(858 0)"/>
       <use xlink:href="#DejaVuSans-48" transform="translate(912.984375 0)"/>
      </g>
     </g>
    </g>
    <g id="ytick_4">
     <g id="line2d_23">
      <path d="M 137.387031 93.740362 
L 512.388302 93.740362 
" clip-path="url(#p0015876b6e)" style="fill: none; stroke: #36b6c9; stroke-opacity: 0; stroke-width: 0.7; stroke-linecap: square"/>
     </g>
     <g id="line2d_24"/>
     <g id="text_13">
      <!-- Temperature -->
      <g style="fill: #88a1b2" transform="translate(51.538125 98.678839) scale(0.13 -0.13)">
       <defs>
        <path id="DejaVuSans-37" d="M -19 4666 
L 3928 4666 
L 3928 4134 
L 2272 4134 
L 2272 0 
L 1638 0 
L 1638 4134 
L -19 4134 
L -19 4666 
z
" transform="scale(0.015625)"/>
        <path id="DejaVuSans-53" d="M 1159 525 
L 1159 -1331 
L 581 -1331 
L 581 3500 
L 1159 3500 
L 1159 2969 
Q 1341 3281 1617 3432 
Q 1894 3584 2278 3584 
Q 2916 3584 3314 3078 
Q 3713 2572 3713 1747 
Q 3713 922 3314 415 
Q 2916 -91 2278 -91 
Q 1894 -91 1617 61 
Q 1341 213 1159 525 
z
M 3116 1747 
Q 3116 2381 2855 2742 
Q 2594 3103 2138 3103 
Q 1681 3103 1420 2742 
Q 1159 2381 1159 1747 
Q 1159 1113 1420 752 
Q 1681 391 2138 391 
Q 2594 391 2855 752 
Q 3116 1113 3116 1747 
z
" transform="scale(0.015625)"/>
       </defs>
       <use xlink:href="#DejaVuSans-37"/>
       <use xlink:href="#DejaVuSans-48" transform="translate(44.09375 0)"/>
       <use xlink:href="#DejaVuSans-50" transform="translate(105.625 0)"/>
       <use xlink:href="#DejaVuSans-53" transform="translate(203.03125 0)"/>
       <use xlink:href="#DejaVuSans-48" transform="translate(266.515625 0)"/>
       <use xlink:href="#DejaVuSans-55" transform="translate(328.046875 0)"/>
       <use xlink:href="#DejaVuSans-44" transform="translate(369.15625 0)"/>
       <use xlink:href="#DejaVuSans-57" transform="translate(430.4375 0)"/>
       <use xlink:href="#DejaVuSans-58" transform="translate(469.640625 0)"/>
       <use xlink:href="#DejaVuSans-55" transform="translate(533.015625 0)"/>
       <use xlink:href="#DejaVuSans-48" transform="translate(571.921875 0)"/>
      </g>
     </g>
    </g>
    <g id="ytick_5">
     <g id="line2d_25">
      <path d="M 137.387031 38.372248 
L 512.388302 38.372248 
" clip-path="url(#p0015876b6e)" style="fill: none; stroke: #36b6c9; stroke-opacity: 0; stroke-width: 0.7; stroke-linecap: square"/>
     </g>
     <g id="line2d_26"/>
     <g id="text_14">
      <!-- Vibration -->
      <g style="fill: #88a1b2" transform="translate(75.204219 43.311233) scale(0.13 -0.13)">
       <defs>
        <path id="DejaVuSans-39" d="M 1831 0 
L 50 4666 
L 709 4666 
L 2188 738 
L 3669 4666 
L 4325 4666 
L 2547 0 
L 1831 0 
z
" transform="scale(0.015625)"/>
        <path id="DejaVuSans-45" d="M 3116 1747 
Q 3116 2381 2855 2742 
Q 2594 3103 2138 3103 
Q 1681 3103 1420 2742 
Q 1159 2381 1159 1747 
Q 1159 1113 1420 752 
Q 1681 391 2138 391 
Q 2594 391 2855 752 
Q 3116 1113 3116 1747 
z
M 1159 2969 
Q 1341 3281 1617 3432 
Q 1894 3584 2278 3584 
Q 2916 3584 3314 3078 
Q 3713 2572 3713 1747 
Q 3713 922 3314 415 
Q 2916 -91 2278 -91 
Q 1894 -91 1617 61 
Q 1341 213 1159 525 
L 1159 0 
L 581 0 
L 581 4863 
L 1159 4863 
L 1159 2969 
z
" transform="scale(0.015625)"/>
       </defs>
       <use xlink:href="#DejaVuSans-39"/>
       <use xlink:href="#DejaVuSans-4c" transform="translate(66.203125 0)"/>
       <use xlink:href="#DejaVuSans-45" transform="translate(93.984375 0)"/>
       <use xlink:href="#DejaVuSans-55" transform="translate(157.46875 0)"/>
       <use xlink:href="#DejaVuSans-44" transform="translate(198.578125 0)"/>
       <use xlink:href="#DejaVuSans-57" transform="translate(259.859375 0)"/>
       <use xlink:href="#DejaVuSans-4c" transform="translate(299.0625 0)"/>
       <use xlink:href="#DejaVuSans-52" transform="translate(326.84375 0)"/>
       <use xlink:href="#DejaVuSans-51" transform="translate(388.03125 0)"/>
      </g>
     </g>
    </g>
   </g>
   <g id="patch_8">
    <path d="M 137.387031 291.016953 
L 137.387031 7.2 
" style="fill: none; stroke: #2b3f4f; stroke-width: 1.1; stroke-linejoin: miter; stroke-linecap: square"/>
   </g>
   <g id="patch_9">
    <path d="M 137.387031 291.016953 
L 512.388302 291.016953 
" style="fill: none; stroke: #2b3f4f; stroke-width: 1.1; stroke-linejoin: miter; stroke-linecap: square"/>
   </g>
  </g>
 </g>
 <defs>
  <clipPath id="p0015876b6e">
   <rect x="137.387031" y="7.2" width="375.001271" height="283.816953"/>
  </clipPath>
 </defs>
</svg>
