<?xml version="1.0" encoding="utf-8" standalone="no"?>
<!DOCTYPE svg PUBLIC "-//W3C//DTD SVG 1.1//EN"
  "http://www.w3.org/Graphics/SVG/1.1/DTD/svg11.dtd">
<svg xmlns:xlink="http://www.w3.org/1999/xlink" width="505.571719pt" height="317.317969pt" viewBox="0 0 505.571719 317.317969" xmlns="http://www.w3.org/2000/svg" version="1.1">
 <metadata>
  <rdf:RDF xmlns:dc="http://purl.org/dc/elements/1.1/" xmlns:cc="http://creativecommons.org/ns#" xmlns:rdf="http://www.w3.org/1999/02/22-rdf-syntax-ns#">
   <cc:Work>
    <dc:type rdf:resource="http://purl.org/dc/dcmitype/StillImage"/>
    <dc:date>2026-06-17T23:00:30.226504</dc:date>
    <dc:format>image/svg+xml</dc:format>
    <dc:creator>
     <cc:Agent>
      <dc:title>Matplotlib v3.11.0, https://matplotlib.org/</dc:title>
     </cc:Agent>
    </dc:creator>
   </cc:Work>
  </rdf:RDF>
 </metadata>
 <defs>
  <style type="text/css">*{stroke-linejoin: round; stroke-linecap: butt}</style>
 </defs>
 <g id="figure_1">
  <g id="patch_1">
   <path d="M 0 317.317969 
L 505.571719 317.317969 
L 505.571719 0 
L 0 0 
L 0 317.317969 
z
" style="fill: none"/>
  </g>
  <g id="axes_1">
   <g id="patch_2">
    <path d="M 52.514766 276.616953 
L 498.371719 276.616953 
L 498.371719 7.2 
L 52.514766 7.2 
L 52.514766 276.616953 
z
" style="fill: none"/>
   </g>
   <g id="matplotlib.axis_1">
    <g id="xtick_1">
     <g id="line2d_1">
      <path d="M 72.780991 276.616953 
L 72.780991 7.2 
" clip-path="url(#p399dab2709)" style="fill: none; stroke: #d7dee5; stroke-opacity: 0.5; stroke-width: 0.8; stroke-linecap: square"/>
     </g>
     <g id="line2d_2"/>
     <g id="text_1">
      <!-- 0 -->
      <g style="fill: #56657a" transform="translate(68.645366 289.993906) scale(0.13 -0.13)">
       <defs>
        <path id="DejaVuSans-13" d="M 2034 4250 
Q 1547 4250 1301 3770 
Q 1056 3291 1056 2328 
Q 1056 1369 1301 889 
Q 1547 409 2034 409 
Q 2525 409 2770 889 
Q 3016 1369 3016 2328 
Q 3016 3291 2770 3770 
Q 2525 4250 2034 4250 
z
M 2034 4750 
Q 2819 4750 3233 4129 
Q 3647 3509 3647 2328 
Q 3647 1150 3233 529 
Q 2819 -91 2034 -91 
Q 1250 -91 836 529 
Q 422 1150 422 2328 
Q 422 3509 836 4129 
Q 1250 4750 2034 4750 
z
" transform="scale(0.015625)"/>
       </defs>
       <use xlink:href="#DejaVuSans-13"/>
      </g>
     </g>
    </g>
    <g id="xtick_2">
     <g id="line2d_3">
      <path d="M 167.042503 276.616953 
L 167.042503 7.2 
" clip-path="url(#p399dab2709)" style="fill: none; stroke: #d7dee5; stroke-opacity: 0.5; stroke-width: 0.8; stroke-linecap: square"/>
     </g>
     <g id="line2d_4"/>
     <g id="text_2">
      <!-- 10 -->
      <g style="fill: #56657a" transform="translate(158.771253 289.993906) scale(0.13 -0.13)">
       <defs>
        <path id="DejaVuSans-14" d="M 794 531 
L 1825 531 
L 1825 4091 
L 703 3866 
L 703 4441 
L 1819 4666 
L 2450 4666 
L 2450 531 
L 3481 531 
L 3481 0 
L 794 0 
L 794 531 
z
" transform="scale(0.015625)"/>
       </defs>
       <use xlink:href="#DejaVuSans-14"/>
       <use xlink:href="#DejaVuSans-13" transform="translate(63.625 0)"/>
      </g>
     </g>
    </g>
    <g id="xtick_3">
     <g id="line2d_5">
      <path d="M 261.304015 276.616953 
L 261.304015 7.2 
" clip-path="url(#p399dab2709)" style="fill: none; stroke: #d7dee5; stroke-opacity: 0.5; stroke-width: 0.8; stroke-linecap: square"/>
     </g>
     <g id="line2d_6"/>
     <g id="text_3">
      <!-- 20 -->
      <g style="fill: #56657a" transform="translate(253.032765 289.993906) scale(0.13 -0.13)">
       <defs>
        <path id="DejaVuSans-15" d="M 1228 531 
L 3431 531 
L 3431 0 
L 469 0 
L 469 531 
Q 828 903 1448 1529 
Q 2069 2156 2228 2338 
Q 2531 2678 2651 2914 
Q 2772 3150 2772 3378 
Q 2772 3750 2511 3984 
Q 2250 4219 1831 4219 
Q 1534 4219 1204 4116 
Q 875 4013 500 3803 
L 500 4441 
Q 881 4594 1212 4672 
Q 1544 4750 1819 4750 
Q 2544 4750 2975 4387 
Q 3406 4025 3406 3419 
Q 3406 3131 3298 2873 
Q 3191 2616 2906 2266 
Q 2828 2175 2409 1742 
Q 1991 1309 1228 531 
z
" transform="scale(0.015625)"/>
       </defs>
       <use xlink:href="#DejaVuSans-15"/>
       <use xlink:href="#DejaVuSans-13" transform="translate(63.625 0)"/>
      </g>
     </g>
    </g>
    <g id="xtick_4">
     <g id="line2d_7">
      <path d="M 355.565528 276.616953 
L 355.565528 7.2 
" clip-path="url(#p399dab2709)" style="fill: none; stroke: #d7dee5; stroke-opacity: 0.5; stroke-width: 0.8; stroke-linecap: square"/>
     </g>
     <g id="line2d_8"/>
     <g id="text_4">
      <!-- 30 -->
      <g style="fill: #56657a" transform="translate(347.294278 289.993906) scale(0.13 -0.13)">
       <defs>
        <path id="DejaVuSans-16" d="M 2597 2516 
Q 3050 2419 3304 2112 
Q 3559 1806 3559 1356 
Q 3559 666 3084 287 
Q 2609 -91 1734 -91 
Q 1441 -91 1130 -33 
Q 819 25 488 141 
L 488 750 
Q 750 597 1062 519 
Q 1375 441 1716 441 
Q 2309 441 2620 675 
Q 2931 909 2931 1356 
Q 2931 1769 2642 2001 
Q 2353 2234 1838 2234 
L 1294 2234 
L 1294 2753 
L 1863 2753 
Q 2328 2753 2575 2939 
Q 2822 3125 2822 3475 
Q 2822 3834 2567 4026 
Q 2313 4219 1838 4219 
Q 1578 4219 1281 4162 
Q 984 4106 628 3988 
L 628 4550 
Q 988 4650 1302 4700 
Q 1616 4750 1894 4750 
Q 2613 4750 3031 4423 
Q 3450 4097 3450 3541 
Q 3450 3153 3228 2886 
Q 3006 2619 2597 2516 
z
" transform="scale(0.015625)"/>
       </defs>
       <use xlink:href="#DejaVuSans-16"/>
       <use xlink:href="#DejaVuSans-13" transform="translate(63.625 0)"/>
      </g>
     </g>
    </g>
    <g id="xtick_5">
     <g id="line2d_9">
      <path d="M 449.82704 276.616953 
L 449.82704 7.2 
" clip-path="url(#p399dab2709)" style="fill: none; stroke: #d7dee5; stroke-opacity: 0.5; stroke-width: 0.8; stroke-linecap: square"/>
     </g>
     <g id="line2d_10"/>
     <g id="text_5">
      <!-- 40 -->
      <g style="fill: #56657a" transform="translate(441.55579 289.993906) scale(0.13 -0.13)">
       <defs>
        <path id="DejaVuSans-17" d="M 2419 4116 
L 825 1625 
L 2419 1625 
L 2419 4116 
z
M 2253 4666 
L 3047 4666 
L 3047 1625 
L 3713 1625 
L 3713 1100 
L 3047 1100 
L 3047 0 
L 2419 0 
L 2419 1100 
L 313 1100 
L 313 1709 
L 2253 4666 
z
" transform="scale(0.015625)"/>
       </defs>
       <use xlink:href="#DejaVuSans-17"/>
       <use xlink:href="#DejaVuSans-13" transform="translate(63.625 0)"/>
      </g>
     </g>
    </g>
    <g id="text_6">
     <!-- Month -->
     <g style="fill: #1c2630" transform="translate(255.07082 306.994922) scale(0.13 -0.13)">
      <defs>
       <path id="DejaVuSans-30" d="M 628 4666 
L 1569 4666 
L 2759 1491 
L 3956 4666 
L 4897 4666 
L 4897 0 
L 4281 0 
L 4281 4097 
L 3078 897 
L 2444 897 
L 1241 4097 
L 1241 0 
L 628 0 
L 628 4666 
z
" transform="scale(0.015625)"/>
       <path id="DejaVuSans-52" d="M 1959 3097 
Q 1497 3097 1228 2736 
Q 959 2375 959 1747 
Q 959 1119 1226 758 
Q 1494 397 1959 397 
Q 2419 397 2687 759 
Q 2956 1122 2956 1747 
Q 2956 2369 2687 2733 
Q 2419 3097 1959 3097 
z
M 1959 3584 
Q 2709 3584 3137 3096 
Q 3566 2609 3566 1747 
Q 3566 888 3137 398 
Q 2709 -91 1959 -91 
Q 1206 -91 779 398 
Q 353 888 353 1747 
Q 353 2609 779 3096 
Q 1206 3584 1959 3584 
z
" transform="scale(0.015625)"/>
       <path id="DejaVuSans-51" d="M 3513 2113 
L 3513 0 
L 2938 0 
L 2938 2094 
Q 2938 2591 2744 2837 
Q 2550 3084 2163 3084 
Q 1697 3084 1428 2787 
Q 1159 2491 1159 1978 
L 1159 0 
L 581 0 
L 581 3500 
L 1159 3500 
L 1159 2956 
Q 1366 3272 1645 3428 
Q 1925 3584 2291 3584 
Q 2894 3584 3203 3211 
Q 3513 2838 3513 2113 
z
" transform="scale(0.015625)"/>
       <path id="DejaVuSans-57" d="M 1172 4494 
L 1172 3500 
L 2356 3500 
L 2356 3053 
L 1172 3053 
L 1172 1153 
Q 1172 725 1289 603 
Q 1406 481 1766 481 
L 2356 481 
L 2356 0 
L 1766 0 
Q 1100 0 847 248 
Q 594 497 594 1153 
L 594 3053 
L 172 3053 
L 172 3500 
L 594 3500 
L 594 4494 
L 1172 4494 
z
" transform="scale(0.015625)"/>
       <path id="DejaVuSans-4b" d="M 3513 2113 
L 3513 0 
L 2938 0 
L 2938 2094 
Q 2938 2591 2744 2837 
Q 2550 3084 2163 3084 
Q 1697 3084 1428 2787 
Q 1159 2491 1159 1978 
L 1159 0 
L 581 0 
L 581 4863 
L 1159 4863 
L 1159 2956 
Q 1366 3272 1645 3428 
Q 1925 3584 2291 3584 
Q 2894 3584 3203 3211 
Q 3513 2838 3513 2113 
z
" transform="scale(0.015625)"/>
      </defs>
      <use xlink:href="#DejaVuSans-30"/>
      <use xlink:href="#DejaVuSans-52" transform="translate(86.28125 0)"/>
      <use xlink:href="#DejaVuSans-51" transform="translate(147.46875 0)"/>
      <use xlink:href="#DejaVuSans-57" transform="translate(210.84375 0)"/>
      <use xlink:href="#DejaVuSans-4b" transform="translate(250.046875 0)"/>
     </g>
    </g>
   </g>
   <g id="matplotlib.axis_2">
    <g id="ytick_1">
     <g id="line2d_11">
      <path d="M 52.514766 264.348833 
L 498.371719 264.348833 
" clip-path="url(#p399dab2709)" style="fill: none; stroke: #d7dee5; stroke-opacity: 0.5; stroke-width: 0.8; stroke-linecap: square"/>
     </g>
     <g id="line2d_12"/>
     <g id="text_7">
      <!-- 140 -->
      <g style="fill: #56657a" transform="translate(24.201016 269.287309) scale(0.13 -0.13)">
       <use xlink:href="#DejaVuSans-14"/>
       <use xlink:href="#DejaVuSans-17" transform="translate(63.625 0)"/>
       <use xlink:href="#DejaVuSans-13" transform="translate(127.25 0)"/>
      </g>
     </g>
    </g>
    <g id="ytick_2">
     <g id="line2d_13">
      <path d="M 52.514766 231.764093 
L 498.371719 231.764093 
" clip-path="url(#p399dab2709)" style="fill: none; stroke: #d7dee5; stroke-opacity: 0.5; stroke-width: 0.8; stroke-linecap: square"/>
     </g>
     <g id="line2d_14"/>
     <g id="text_8">
      <!-- 160 -->
      <g style="fill: #56657a" transform="translate(24.201016 236.70257) scale(0.13 -0.13)">
       <defs>
        <path id="DejaVuSans-19" d="M 2113 2584 
Q 1688 2584 1439 2293 
Q 1191 2003 1191 1497 
Q 1191 994 1439 701 
Q 1688 409 2113 409 
Q 2538 409 2786 701 
Q 3034 994 3034 1497 
Q 3034 2003 2786 2293 
Q 2538 2584 2113 2584 
z
M 3366 4563 
L 3366 3988 
Q 3128 4100 2886 4159 
Q 2644 4219 2406 4219 
Q 1781 4219 1451 3797 
Q 1122 3375 1075 2522 
Q 1259 2794 1537 2939 
Q 1816 3084 2150 3084 
Q 2853 3084 3261 2657 
Q 3669 2231 3669 1497 
Q 3669 778 3244 343 
Q 2819 -91 2113 -91 
Q 1303 -91 875 529 
Q 447 1150 447 2328 
Q 447 3434 972 4092 
Q 1497 4750 2381 4750 
Q 2619 4750 2861 4703 
Q 3103 4656 3366 4563 
z
" transform="scale(0.015625)"/>
       </defs>
       <use xlink:href="#DejaVuSans-14"/>
       <use xlink:href="#DejaVuSans-19" transform="translate(63.625 0)"/>
       <use xlink:href="#DejaVuSans-13" transform="translate(127.25 0)"/>
      </g>
     </g>
    </g>
    <g id="ytick_3">
     <g id="line2d_15">
      <path d="M 52.514766 199.179354 
L 498.371719 199.179354 
" clip-path="url(#p399dab2709)" style="fill: none; stroke: #d7dee5; stroke-opacity: 0.5; stroke-width: 0.8; stroke-linecap: square"/>
     </g>
     <g id="line2d_16"/>
     <g id="text_9">
      <!-- 180 -->
      <g style="fill: #56657a" transform="translate(24.201016 204.11783) scale(0.13 -0.13)">
       <defs>
        <path id="DejaVuSans-1b" d="M 2034 2216 
Q 1584 2216 1326 1975 
Q 1069 1734 1069 1313 
Q 1069 891 1326 650 
Q 1584 409 2034 409 
Q 2484 409 2743 651 
Q 3003 894 3003 1313 
Q 3003 1734 2745 1975 
Q 2488 2216 2034 2216 
z
M 1403 2484 
Q 997 2584 770 2862 
Q 544 3141 544 3541 
Q 544 4100 942 4425 
Q 1341 4750 2034 4750 
Q 2731 4750 3128 4425 
Q 3525 4100 3525 3541 
Q 3525 3141 3298 2862 
Q 3072 2584 2669 2484 
Q 3125 2378 3379 2068 
Q 3634 1759 3634 1313 
Q 3634 634 3220 271 
Q 2806 -91 2034 -91 
Q 1263 -91 848 271 
Q 434 634 434 1313 
Q 434 1759 690 2068 
Q 947 2378 1403 2484 
z
M 1172 3481 
Q 1172 3119 1398 2916 
Q 1625 2713 2034 2713 
Q 2441 2713 2670 2916 
Q 2900 3119 2900 3481 
Q 2900 3844 2670 4047 
Q 2441 4250 2034 4250 
Q 1625 4250 1398 4047 
Q 1172 3844 1172 3481 
z
" transform="scale(0.015625)"/>
       </defs>
       <use xlink:href="#DejaVuSans-14"/>
       <use xlink:href="#DejaVuSans-1b" transform="translate(63.625 0)"/>
       <use xlink:href="#DejaVuSans-13" transform="translate(127.25 0)"/>
      </g>
     </g>
    </g>
    <g id="ytick_4">
     <g id="line2d_17">
      <path d="M 52.514766 166.594614 
L 498.371719 166.594614 
" clip-path="url(#p399dab2709)" style="fill: none; stroke: #d7dee5; stroke-opacity: 0.5; stroke-width: 0.8; stroke-linecap: square"/>
     </g>
     <g id="line2d_18"/>
     <g id="text_10">
      <!-- 200 -->
      <g style="fill: #56657a" transform="translate(24.201016 171.533091) scale(0.13 -0.13)">
       <use xlink:href="#DejaVuSans-15"/>
       <use xlink:href="#DejaVuSans-13" transform="translate(63.625 0)"/>
       <use xlink:href="#DejaVuSans-13" transform="translate(127.25 0)"/>
      </g>
     </g>
    </g>
    <g id="ytick_5">
     <g id="line2d_19">
      <path d="M 52.514766 134.009875 
L 498.371719 134.009875 
" clip-path="url(#p399dab2709)" style="fill: none; stroke: #d7dee5; stroke-opacity: 0.5; stroke-width: 0.8; stroke-linecap: square"/>
     </g>
     <g id="line2d_20"/>
     <g id="text_11">
      <!-- 220 -->
      <g style="fill: #56657a" transform="translate(24.201016 138.948351) scale(0.13 -0.13)">
       <use xlink:href="#DejaVuSans-15"/>
       <use xlink:href="#DejaVuSans-15" transform="translate(63.625 0)"/>
       <use xlink:href="#DejaVuSans-13" transform="translate(127.25 0)"/>
      </g>
     </g>
    </g>
    <g id="ytick_6">
     <g id="line2d_21">
      <path d="M 52.514766 101.425135 
L 498.371719 101.425135 
" clip-path="url(#p399dab2709)" style="fill: none; stroke: #d7dee5; stroke-opacity: 0.5; stroke-width: 0.8; stroke-linecap: square"/>
     </g>
     <g id="line2d_22"/>
     <g id="text_12">
      <!-- 240 -->
      <g style="fill: #56657a" transform="translate(24.201016 106.363612) scale(0.13 -0.13)">
       <use xlink:href="#DejaVuSans-15"/>
       <use xlink:href="#DejaVuSans-17" transform="translate(63.625 0)"/>
       <use xlink:href="#DejaVuSans-13" transform="translate(127.25 0)"/>
      </g>
     </g>
    </g>
    <g id="ytick_7">
     <g id="line2d_23">
      <path d="M 52.514766 68.840396 
L 498.371719 68.840396 
" clip-path="url(#p399dab2709)" style="fill: none; stroke: #d7dee5; stroke-opacity: 0.5; stroke-width: 0.8; stroke-linecap: square"/>
     </g>
     <g id="line2d_24"/>
     <g id="text_13">
      <!-- 260 -->
      <g style="fill: #56657a" transform="translate(24.201016 73.778873) scale(0.13 -0.13)">
       <use xlink:href="#DejaVuSans-15"/>
       <use xlink:href="#DejaVuSans-19" transform="translate(63.625 0)"/>
       <use xlink:href="#DejaVuSans-13" transform="translate(127.25 0)"/>
      </g>
     </g>
    </g>
    <g id="ytick_8">
     <g id="line2d_25">
      <path d="M 52.514766 36.255657 
L 498.371719 36.255657 
" clip-path="url(#p399dab2709)" style="fill: none; stroke: #d7dee5; stroke-opacity: 0.5; stroke-width: 0.8; stroke-linecap: square"/>
     </g>
     <g id="line2d_26"/>
     <g id="text_14">
      <!-- 280 -->
      <g style="fill: #56657a" transform="translate(24.201016 41.194133) scale(0.13 -0.13)">
       <use xlink:href="#DejaVuSans-15"/>
       <use xlink:href="#DejaVuSans-1b" transform="translate(63.625 0)"/>
       <use xlink:href="#DejaVuSans-13" transform="translate(127.25 0)"/>
      </g>
     </g>
    </g>
    <g id="text_15">
     <!-- Spare-parts demand  (units) -->
     <g style="fill: #1c2630" transform="translate(17.077969 233.66918) rotate(-90) scale(0.13 -0.13)">
      <defs>
       <path id="DejaVuSans-36" d="M 3425 4513 
L 3425 3897 
Q 3066 4069 2747 4153 
Q 2428 4238 2131 4238 
Q 1616 4238 1336 4038 
Q 1056 3838 1056 3469 
Q 1056 3159 1242 3001 
Q 1428 2844 1947 2747 
L 2328 2669 
Q 3034 2534 3370 2195 
Q 3706 1856 3706 1288 
Q 3706 609 3251 259 
Q 2797 -91 1919 -91 
Q 1588 -91 1214 -16 
Q 841 59 441 206 
L 441 856 
Q 825 641 1194 531 
Q 1563 422 1919 422 
Q 2459 422 2753 634 
Q 3047 847 3047 1241 
Q 3047 1584 2836 1778 
Q 2625 1972 2144 2069 
L 1759 2144 
Q 1053 2284 737 2584 
Q 422 2884 422 3419 
Q 422 4038 858 4394 
Q 1294 4750 2059 4750 
Q 2388 4750 2728 4690 
Q 3069 4631 3425 4513 
z
" transform="scale(0.015625)"/>
       <path id="DejaVuSans-53" d="M 1159 525 
L 1159 -1331 
L 581 -1331 
L 581 3500 
L 1159 3500 
L 1159 2969 
Q 1341 3281 1617 3432 
Q 1894 3584 2278 3584 
Q 2916 3584 3314 3078 
Q 3713 2572 3713 1747 
Q 3713 922 3314 415 
Q 2916 -91 2278 -91 
Q 1894 -91 1617 61 
Q 1341 213 1159 525 
z
M 3116 1747 
Q 3116 2381 2855 2742 
Q 2594 3103 2138 3103 
Q 1681 3103 1420 2742 
Q 1159 2381 1159 1747 
Q 1159 1113 1420 752 
Q 1681 391 2138 391 
Q 2594 391 2855 752 
Q 3116 1113 3116 1747 
z
" transform="scale(0.015625)"/>
       <path id="DejaVuSans-44" d="M 2194 1759 
Q 1497 1759 1228 1600 
Q 959 1441 959 1056 
Q 959 750 1161 570 
Q 1363 391 1709 391 
Q 2188 391 2477 730 
Q 2766 1069 2766 1631 
L 2766 1759 
L 2194 1759 
z
M 3341 1997 
L 3341 0 
L 2766 0 
L 2766 531 
Q 2569 213 2275 61 
Q 1981 -91 1556 -91 
Q 1019 -91 701 211 
Q 384 513 384 1019 
Q 384 1609 779 1909 
Q 1175 2209 1959 2209 
L 2766 2209 
L 2766 2266 
Q 2766 2663 2505 2880 
Q 2244 3097 1772 3097 
Q 1472 3097 1187 3025 
Q 903 2953 641 2809 
L 641 3341 
Q 956 3463 1253 3523 
Q 1550 3584 1831 3584 
Q 2591 3584 2966 3190 
Q 3341 2797 3341 1997 
z
" transform="scale(0.015625)"/>
       <path id="DejaVuSans-55" d="M 2631 2963 
Q 2534 3019 2420 3045 
Q 2306 3072 2169 3072 
Q 1681 3072 1420 2755 
Q 1159 2438 1159 1844 
L 1159 0 
L 581 0 
L 581 3500 
L 1159 3500 
L 1159 2956 
Q 1341 3275 1631 3429 
Q 1922 3584 2338 3584 
Q 2397 3584 2469 3576 
Q 2541 3569 2628 3553 
L 2631 2963 
z
" transform="scale(0.015625)"/>
       <path id="DejaVuSans-48" d="M 3597 1894 
L 3597 1613 
L 953 1613 
Q 991 1019 1311 708 
Q 1631 397 2203 397 
Q 2534 397 2845 478 
Q 3156 559 3463 722 
L 3463 178 
Q 3153 47 2828 -22 
Q 2503 -91 2169 -91 
Q 1331 -91 842 396 
Q 353 884 353 1716 
Q 353 2575 817 3079 
Q 1281 3584 2069 3584 
Q 2775 3584 3186 3129 
Q 3597 2675 3597 1894 
z
M 3022 2063 
Q 3016 2534 2758 2815 
Q 2500 3097 2075 3097 
Q 1594 3097 1305 2825 
Q 1016 2553 972 2059 
L 3022 2063 
z
" transform="scale(0.015625)"/>
       <path id="DejaVuSans-10" d="M 313 2009 
L 1997 2009 
L 1997 1497 
L 313 1497 
L 313 2009 
z
" transform="scale(0.015625)"/>
       <path id="DejaVuSans-56" d="M 2834 3397 
L 2834 2853 
Q 2591 2978 2328 3040 
Q 2066 3103 1784 3103 
Q 1356 3103 1142 2972 
Q 928 2841 928 2578 
Q 928 2378 1081 2264 
Q 1234 2150 1697 2047 
L 1894 2003 
Q 2506 1872 2764 1633 
Q 3022 1394 3022 966 
Q 3022 478 2636 193 
Q 2250 -91 1575 -91 
Q 1294 -91 989 -36 
Q 684 19 347 128 
L 347 722 
Q 666 556 975 473 
Q 1284 391 1588 391 
Q 1994 391 2212 530 
Q 2431 669 2431 922 
Q 2431 1156 2273 1281 
Q 2116 1406 1581 1522 
L 1381 1569 
Q 847 1681 609 1914 
Q 372 2147 372 2553 
Q 372 3047 722 3315 
Q 1072 3584 1716 3584 
Q 2034 3584 2315 3537 
Q 2597 3491 2834 3397 
z
" transform="scale(0.015625)"/>
       <path id="DejaVuSans-3" transform="scale(0.015625)"/>
       <path id="DejaVuSans-47" d="M 2906 2969 
L 2906 4863 
L 3481 4863 
L 3481 0 
L 2906 0 
L 2906 525 
Q 2725 213 2448 61 
Q 2172 -91 1784 -91 
Q 1150 -91 751 415 
Q 353 922 353 1747 
Q 353 2572 751 3078 
Q 1150 3584 1784 3584 
Q 2172 3584 2448 3432 
Q 2725 3281 2906 2969 
z
M 947 1747 
Q 947 1113 1208 752 
Q 1469 391 1925 391 
Q 2381 391 2643 752 
Q 2906 1113 2906 1747 
Q 2906 2381 2643 2742 
Q 2381 3103 1925 3103 
Q 1469 3103 1208 2742 
Q 947 2381 947 1747 
z
" transform="scale(0.015625)"/>
       <path id="DejaVuSans-50" d="M 3328 2828 
Q 3544 3216 3844 3400 
Q 4144 3584 4550 3584 
Q 5097 3584 5394 3201 
Q 5691 2819 5691 2113 
L 5691 0 
L 5113 0 
L 5113 2094 
Q 5113 2597 4934 2840 
Q 4756 3084 4391 3084 
Q 3944 3084 3684 2787 
Q 3425 2491 3425 1978 
L 3425 0 
L 2847 0 
L 2847 2094 
Q 2847 2600 2669 2842 
Q 2491 3084 2119 3084 
Q 1678 3084 1418 2786 
Q 1159 2488 1159 1978 
L 1159 0 
L 581 0 
L 581 3500 
L 1159 3500 
L 1159 2956 
Q 1356 3278 1631 3431 
Q 1906 3584 2284 3584 
Q 2666 3584 2933 3390 
Q 3200 3197 3328 2828 
z
" transform="scale(0.015625)"/>
       <path id="DejaVuSans-b" d="M 1984 4856 
Q 1566 4138 1362 3434 
Q 1159 2731 1159 2009 
Q 1159 1288 1364 580 
Q 1569 -128 1984 -844 
L 1484 -844 
Q 1016 -109 783 600 
Q 550 1309 550 2009 
Q 550 2706 781 3412 
Q 1013 4119 1484 4856 
L 1984 4856 
z
" transform="scale(0.015625)"/>
       <path id="DejaVuSans-58" d="M 544 1381 
L 544 3500 
L 1119 3500 
L 1119 1403 
Q 1119 906 1312 657 
Q 1506 409 1894 409 
Q 2359 409 2629 706 
Q 2900 1003 2900 1516 
L 2900 3500 
L 3475 3500 
L 3475 0 
L 2900 0 
L 2900 538 
Q 2691 219 2414 64 
Q 2138 -91 1772 -91 
Q 1169 -91 856 284 
Q 544 659 544 1381 
z
M 1991 3584 
L 1991 3584 
z
" transform="scale(0.015625)"/>
       <path id="DejaVuSans-4c" d="M 603 3500 
L 1178 3500 
L 1178 0 
L 603 0 
L 603 3500 
z
M 603 4863 
L 1178 4863 
L 1178 4134 
L 603 4134 
L 603 4863 
z
" transform="scale(0.015625)"/>
       <path id="DejaVuSans-c" d="M 513 4856 
L 1013 4856 
Q 1481 4119 1714 3412 
Q 1947 2706 1947 2009 
Q 1947 1309 1714 600 
Q 1481 -109 1013 -844 
L 513 -844 
Q 928 -128 1133 580 
Q 1338 1288 1338 2009 
Q 1338 2731 1133 3434 
Q 928 4138 513 4856 
z
" transform="scale(0.015625)"/>
      </defs>
      <use xlink:href="#DejaVuSans-36"/>
      <use xlink:href="#DejaVuSans-53" transform="translate(63.484375 0)"/>
      <use xlink:href="#DejaVuSans-44" transform="translate(126.96875 0)"/>
      <use xlink:href="#DejaVuSans-55" transform="translate(188.25 0)"/>
      <use xlink:href="#DejaVuSans-48" transform="translate(227.15625 0)"/>
      <use xlink:href="#DejaVuSans-10" transform="translate(288.6875 0)"/>
      <use xlink:href="#DejaVuSans-53" transform="translate(324.765625 0)"/>
      <use xlink:href="#DejaVuSans-44" transform="translate(388.25 0)"/>
      <use xlink:href="#DejaVuSans-55" transform="translate(449.53125 0)"/>
      <use xlink:href="#DejaVuSans-57" transform="translate(490.640625 0)"/>
      <use xlink:href="#DejaVuSans-56" transform="translate(529.84375 0)"/>
      <use xlink:href="#DejaVuSans-3" transform="translate(581.9375 0)"/>
      <use xlink:href="#DejaVuSans-47" transform="translate(613.71875 0)"/>
      <use xlink:href="#DejaVuSans-48" transform="translate(677.203125 0)"/>
      <use xlink:href="#DejaVuSans-50" transform="translate(738.734375 0)"/>
      <use xlink:href="#DejaVuSans-44" transform="translate(836.140625 0)"/>
      <use xlink:href="#DejaVuSans-51" transform="translate(897.421875 0)"/>
      <use xlink:href="#DejaVuSans-47" transform="translate(960.796875 0)"/>
      <use xlink:href="#DejaVuSans-3" transform="translate(1024.28125 0)"/>
      <use xlink:href="#DejaVuSans-3" transform="translate(1056.0625 0)"/>
      <use xlink:href="#DejaVuSans-b" transform="translate(1087.84375 0)"/>
      <use xlink:href="#DejaVuSans-58" transform="translate(1126.859375 0)"/>
      <use xlink:href="#DejaVuSans-51" transform="translate(1190.234375 0)"/>
      <use xlink:href="#DejaVuSans-4c" transform="translate(1253.609375 0)"/>
      <use xlink:href="#DejaVuSans-57" transform="translate(1281.390625 0)"/>
      <use xlink:href="#DejaVuSans-56" transform="translate(1320.59375 0)"/>
      <use xlink:href="#DejaVuSans-c" transform="translate(1372.6875 0)"/>
     </g>
    </g>
   </g>
   <g id="line2d_27">
    <path d="M 407.409359 276.616953 
L 407.409359 7.2 
" clip-path="url(#p399dab2709)" style="fill: none; stroke-dasharray: 1.2,1.98; stroke-dashoffset: 0; stroke: #9fb0bd; stroke-width: 1.2"/>
   </g>
   <g id="patch_3">
    <path d="M 52.514766 276.616953 
L 52.514766 7.2 
" style="fill: none; stroke: #9fb0bd; stroke-width: 1.1; stroke-linejoin: miter; stroke-linecap: square"/>
   </g>
   <g id="patch_4">
    <path d="M 52.514766 276.616953 
L 498.371719 276.616953 
" style="fill: none; stroke: #9fb0bd; stroke-width: 1.1; stroke-linejoin: miter; stroke-linecap: square"/>
   </g>
   <g id="line2d_28">
    <path d="M 72.780991 264.370728 
L 82.207142 236.560154 
L 91.633293 204.440682 
L 101.059444 211.370625 
L 110.485596 223.884857 
L 119.911747 221.610839 
L 129.337898 233.473611 
L 138.764049 261.339944 
L 148.190201 256.599177 
L 157.616352 261.734469 
L 167.042503 232.712398 
L 176.468654 224.526561 
L 185.894806 205.011322 
L 195.320957 179.861937 
L 204.747108 157.773253 
L 214.173259 143.267689 
L 223.59941 161.292143 
L 233.025562 169.675686 
L 242.451713 157.906294 
L 251.877864 187.915393 
L 261.304015 207.2774 
L 270.730167 185.645789 
L 280.156318 175.407109 
L 289.582469 179.815883 
L 299.00862 136.606273 
L 308.434771 107.699194 
L 317.860923 93.485434 
L 327.287074 80.532012 
L 336.713225 103.343277 
L 346.139376 91.458635 
L 355.565528 111.393358 
L 364.991679 126.156189 
L 374.41783 118.62771 
L 383.843981 111.274001 
L 393.270133 97.664805 
L 402.696284 84.800963 
" clip-path="url(#p399dab2709)" style="fill: none; stroke: #0b6e7a; stroke-width: 2.4; stroke-linecap: square"/>
    <defs>
     <path id="m290fdab9bf" d="M 0 2 
C 0.530406 2 1.03916 1.789267 1.414214 1.414214 
C 1.789267 1.03916 2 0.530406 2 0 
C 2 -0.530406 1.789267 -1.03916 1.414214 -1.414214 
C 1.03916 -1.789267 0.530406 -2 0 -2 
C -0.530406 -2 -1.03916 -1.789267 -1.414214 -1.414214 
C -1.789267 -1.03916 -2 -0.530406 -2 0 
C -2 0.530406 -1.789267 1.03916 -1.414214 1.414214 
C -1.03916 1.789267 -0.530406 2 0 2 
z
" style="stroke: #0b6e7a"/>
    </defs>
    <g clip-path="url(#p399dab2709)">
     <use xlink:href="#m290fdab9bf" x="72.780991" y="264.370728" style="fill: #0b6e7a; stroke: #0b6e7a"/>
     <use xlink:href="#m290fdab9bf" x="82.207142" y="236.560154" style="fill: #0b6e7a; stroke: #0b6e7a"/>
     <use xlink:href="#m290fdab9bf" x="91.633293" y="204.440682" style="fill: #0b6e7a; stroke: #0b6e7a"/>
     <use xlink:href="#m290fdab9bf" x="101.059444" y="211.370625" style="fill: #0b6e7a; stroke: #0b6e7a"/>
     <use xlink:href="#m290fdab9bf" x="110.485596" y="223.884857" style="fill: #0b6e7a; stroke: #0b6e7a"/>
     <use xlink:href="#m290fdab9bf" x="119.911747" y="221.610839" style="fill: #0b6e7a; stroke: #0b6e7a"/>
     <use xlink:href="#m290fdab9bf" x="129.337898" y="233.473611" style="fill: #0b6e7a; stroke: #0b6e7a"/>
     <use xlink:href="#m290fdab9bf" x="138.764049" y="261.339944" style="fill: #0b6e7a; stroke: #0b6e7a"/>
     <use xlink:href="#m290fdab9bf" x="148.190201" y="256.599177" style="fill: #0b6e7a; stroke: #0b6e7a"/>
     <use xlink:href="#m290fdab9bf" x="157.616352" y="261.734469" style="fill: #0b6e7a; stroke: #0b6e7a"/>
     <use xlink:href="#m290fdab9bf" x="167.042503" y="232.712398" style="fill: #0b6e7a; stroke: #0b6e7a"/>
     <use xlink:href="#m290fdab9bf" x="176.468654" y="224.526561" style="fill: #0b6e7a; stroke: #0b6e7a"/>
     <use xlink:href="#m290fdab9bf" x="185.894806" y="205.011322" style="fill: #0b6e7a; stroke: #0b6e7a"/>
     <use xlink:href="#m290fdab9bf" x="195.320957" y="179.861937" style="fill: #0b6e7a; stroke: #0b6e7a"/>
     <use xlink:href="#m290fdab9bf" x="204.747108" y="157.773253" style="fill: #0b6e7a; stroke: #0b6e7a"/>
     <use xlink:href="#m290fdab9bf" x="214.173259" y="143.267689" style="fill: #0b6e7a; stroke: #0b6e7a"/>
     <use xlink:href="#m290fdab9bf" x="223.59941" y="161.292143" style="fill: #0b6e7a; stroke: #0b6e7a"/>
     <use xlink:href="#m290fdab9bf" x="233.025562" y="169.675686" style="fill: #0b6e7a; stroke: #0b6e7a"/>
     <use xlink:href="#m290fdab9bf" x="242.451713" y="157.906294" style="fill: #0b6e7a; stroke: #0b6e7a"/>
     <use xlink:href="#m290fdab9bf" x="251.877864" y="187.915393" style="fill: #0b6e7a; stroke: #0b6e7a"/>
     <use xlink:href="#m290fdab9bf" x="261.304015" y="207.2774" style="fill: #0b6e7a; stroke: #0b6e7a"/>
     <use xlink:href="#m290fdab9bf" x="270.730167" y="185.645789" style="fill: #0b6e7a; stroke: #0b6e7a"/>
     <use xlink:href="#m290fdab9bf" x="280.156318" y="175.407109" style="fill: #0b6e7a; stroke: #0b6e7a"/>
     <use xlink:href="#m290fdab9bf" x="289.582469" y="179.815883" style="fill: #0b6e7a; stroke: #0b6e7a"/>
     <use xlink:href="#m290fdab9bf" x="299.00862" y="136.606273" style="fill: #0b6e7a; stroke: #0b6e7a"/>
     <use xlink:href="#m290fdab9bf" x="308.434771" y="107.699194" style="fill: #0b6e7a; stroke: #0b6e7a"/>
     <use xlink:href="#m290fdab9bf" x="317.860923" y="93.485434" style="fill: #0b6e7a; stroke: #0b6e7a"/>
     <use xlink:href="#m290fdab9bf" x="327.287074" y="80.532012" style="fill: #0b6e7a; stroke: #0b6e7a"/>
     <use xlink:href="#m290fdab9bf" x="336.713225" y="103.343277" style="fill: #0b6e7a; stroke: #0b6e7a"/>
     <use xlink:href="#m290fdab9bf" x="346.139376" y="91.458635" style="fill: #0b6e7a; stroke: #0b6e7a"/>
     <use xlink:href="#m290fdab9bf" x="355.565528" y="111.393358" style="fill: #0b6e7a; stroke: #0b6e7a"/>
     <use xlink:href="#m290fdab9bf" x="364.991679" y="126.156189" style="fill: #0b6e7a; stroke: #0b6e7a"/>
     <use xlink:href="#m290fdab9bf" x="374.41783" y="118.62771" style="fill: #0b6e7a; stroke: #0b6e7a"/>
     <use xlink:href="#m290fdab9bf" x="383.843981" y="111.274001" style="fill: #0b6e7a; stroke: #0b6e7a"/>
     <use xlink:href="#m290fdab9bf" x="393.270133" y="97.664805" style="fill: #0b6e7a; stroke: #0b6e7a"/>
     <use xlink:href="#m290fdab9bf" x="402.696284" y="84.800963" style="fill: #0b6e7a; stroke: #0b6e7a"/>
    </g>
   </g>
   <g id="text_16">
    <!--   today -->
    <g style="fill: #56657a" transform="translate(407.409359 25.263121) scale(0.11 -0.11)">
     <defs>
      <path id="DejaVuSans-5c" d="M 2059 -325 
Q 1816 -950 1584 -1140 
Q 1353 -1331 966 -1331 
L 506 -1331 
L 506 -850 
L 844 -850 
Q 1081 -850 1212 -737 
Q 1344 -625 1503 -206 
L 1606 56 
L 191 3500 
L 800 3500 
L 1894 763 
L 2988 3500 
L 3597 3500 
L 2059 -325 
z
" transform="scale(0.015625)"/>
     </defs>
     <use xlink:href="#DejaVuSans-3"/>
     <use xlink:href="#DejaVuSans-3" transform="translate(31.78125 0)"/>
     <use xlink:href="#DejaVuSans-57" transform="translate(63.5625 0)"/>
     <use xlink:href="#DejaVuSans-52" transform="translate(102.765625 0)"/>
     <use xlink:href="#DejaVuSans-47" transform="translate(163.953125 0)"/>
     <use xlink:href="#DejaVuSans-44" transform="translate(227.4375 0)"/>
     <use xlink:href="#DejaVuSans-5c" transform="translate(288.71875 0)"/>
    </g>
   </g>
   <g id="line2d_29">
    <path d="M 402.696284 84.800963 
L 412.122435 66.622531 
L 421.548586 43.959338 
L 430.974737 27.226314 
L 440.400889 19.446225 
L 449.82704 21.242906 
L 459.253191 30.674104 
L 468.679342 43.751902 
L 478.105494 55.511281 
" clip-path="url(#p399dab2709)" style="fill: none; stroke-dasharray: 9.62,4.16; stroke-dashoffset: 0; stroke: #b26a00; stroke-width: 2.6"/>
    <defs>
     <path id="me89f205e46" d="M 0 2 
C 0.530406 2 1.03916 1.789267 1.414214 1.414214 
C 1.789267 1.03916 2 0.530406 2 0 
C 2 -0.530406 1.789267 -1.03916 1.414214 -1.414214 
C 1.03916 -1.789267 0.530406 -2 0 -2 
C -0.530406 -2 -1.03916 -1.789267 -1.414214 -1.414214 
C -1.789267 -1.03916 -2 -0.530406 -2 0 
C -2 0.530406 -1.789267 1.03916 -1.414214 1.414214 
C -1.03916 1.789267 -0.530406 2 0 2 
z
" style="stroke: #b26a00"/>
    </defs>
    <g clip-path="url(#p399dab2709)">
     <use xlink:href="#me89f205e46" x="402.696284" y="84.800963" style="fill: #b26a00; stroke: #b26a00"/>
     <use xlink:href="#me89f205e46" x="412.122435" y="66.622531" style="fill: #b26a00; stroke: #b26a00"/>
     <use xlink:href="#me89f205e46" x="421.548586" y="43.959338" style="fill: #b26a00; stroke: #b26a00"/>
     <use xlink:href="#me89f205e46" x="430.974737" y="27.226314" style="fill: #b26a00; stroke: #b26a00"/>
     <use xlink:href="#me89f205e46" x="440.400889" y="19.446225" style="fill: #b26a00; stroke: #b26a00"/>
     <use xlink:href="#me89f205e46" x="449.82704" y="21.242906" style="fill: #b26a00; stroke: #b26a00"/>
     <use xlink:href="#me89f205e46" x="459.253191" y="30.674104" style="fill: #b26a00; stroke: #b26a00"/>
     <use xlink:href="#me89f205e46" x="468.679342" y="43.751902" style="fill: #b26a00; stroke: #b26a00"/>
     <use xlink:href="#me89f205e46" x="478.105494" y="55.511281" style="fill: #b26a00; stroke: #b26a00"/>
    </g>
   </g>
   <g id="legend_1">
    <g id="line2d_30">
     <path d="M 64.214766 24.227969 
L 77.214766 24.227969 
L 90.214766 24.227969 
" style="fill: none; stroke: #0b6e7a; stroke-width: 2.4; stroke-linecap: square"/>
     <g>
      <use xlink:href="#m290fdab9bf" x="77.214766" y="24.227969" style="fill: #0b6e7a; stroke: #0b6e7a"/>
     </g>
    </g>
    <g id="text_17">
     <!-- History -->
     <g style="fill: #1c2630" transform="translate(100.614766 28.777969) scale(0.13 -0.13)">
      <defs>
       <path id="DejaVuSans-2b" d="M 628 4666 
L 1259 4666 
L 1259 2753 
L 3553 2753 
L 3553 4666 
L 4184 4666 
L 4184 0 
L 3553 0 
L 3553 2222 
L 1259 2222 
L 1259 0 
L 628 0 
L 628 4666 
z
" transform="scale(0.015625)"/>
      </defs>
      <use xlink:href="#DejaVuSans-2b"/>
      <use xlink:href="#DejaVuSans-4c" transform="translate(75.203125 0)"/>
      <use xlink:href="#DejaVuSans-56" transform="translate(102.984375 0)"/>
      <use xlink:href="#DejaVuSans-57" transform="translate(155.078125 0)"/>
      <use xlink:href="#DejaVuSans-52" transform="translate(194.28125 0)"/>
      <use xlink:href="#DejaVuSans-55" transform="translate(255.46875 0)"/>
      <use xlink:href="#DejaVuSans-5c" transform="translate(296.578125 0)"/>
     </g>
    </g>
    <g id="line2d_31">
     <path d="M 64.214766 43.728984 
L 77.214766 43.728984 
L 90.214766 43.728984 
" style="fill: none; stroke-dasharray: 9.62,4.16; stroke-dashoffset: 0; stroke: #b26a00; stroke-width: 2.6"/>
     <g>
      <use xlink:href="#me89f205e46" x="77.214766" y="43.728984" style="fill: #b26a00; stroke: #b26a00"/>
     </g>
    </g>
    <g id="text_18">
     <!-- Forecast -->
     <g style="fill: #1c2630" transform="translate(100.614766 48.278984) scale(0.13 -0.13)">
      <defs>
       <path id="DejaVuSans-29" d="M 628 4666 
L 3309 4666 
L 3309 4134 
L 1259 4134 
L 1259 2759 
L 3109 2759 
L 3109 2228 
L 1259 2228 
L 1259 0 
L 628 0 
L 628 4666 
z
" transform="scale(0.015625)"/>
       <path id="DejaVuSans-46" d="M 3122 3366 
L 3122 2828 
Q 2878 2963 2633 3030 
Q 2388 3097 2138 3097 
Q 1578 3097 1268 2742 
Q 959 2388 959 1747 
Q 959 1106 1268 751 
Q 1578 397 2138 397 
Q 2388 397 2633 464 
Q 2878 531 3122 666 
L 3122 134 
Q 2881 22 2623 -34 
Q 2366 -91 2075 -91 
Q 1284 -91 818 406 
Q 353 903 353 1747 
Q 353 2603 823 3093 
Q 1294 3584 2113 3584 
Q 2378 3584 2631 3529 
Q 2884 3475 3122 3366 
z
" transform="scale(0.015625)"/>
      </defs>
      <use xlink:href="#DejaVuSans-29"/>
      <use xlink:href="#DejaVuSans-52" transform="translate(53.953125 0)"/>
      <use xlink:href="#DejaVuSans-55" transform="translate(115.140625 0)"/>
      <use xlink:href="#DejaVuSans-48" transform="translate(154.046875 0)"/>
      <use xlink:href="#DejaVuSans-46" transform="translate(215.578125 0)"/>
      <use xlink:href="#DejaVuSans-44" transform="translate(270.5625 0)"/>
      <use xlink:href="#DejaVuSans-56" transform="translate(331.84375 0)"/>
      <use xlink:href="#DejaVuSans-57" transform="translate(383.9375 0)"/>
     </g>
    </g>
   </g>
  </g>
 </g>
 <defs>
  <clipPath id="p399dab2709">
   <rect x="52.514766" y="7.2" width="445.856953" height="269.416953"/>
  </clipPath>
 </defs>
</svg>
