<?xml version="1.0" encoding="utf-8" standalone="no"?>
<!DOCTYPE svg PUBLIC "-//W3C//DTD SVG 1.1//EN"
  "http://www.w3.org/Graphics/SVG/1.1/DTD/svg11.dtd">
<svg xmlns:xlink="http://www.w3.org/1999/xlink" width="505.632109pt" height="346.117969pt" viewBox="0 0 505.632109 346.117969" xmlns="http://www.w3.org/2000/svg" version="1.1">
 <metadata>
  <rdf:RDF xmlns:dc="http://purl.org/dc/elements/1.1/" xmlns:cc="http://creativecommons.org/ns#" xmlns:rdf="http://www.w3.org/1999/02/22-rdf-syntax-ns#">
   <cc:Work>
    <dc:type rdf:resource="http://purl.org/dc/dcmitype/StillImage"/>
    <dc:date>2026-06-21T14:53:17.555766</dc:date>
    <dc:format>image/svg+xml</dc:format>
    <dc:creator>
     <cc:Agent>
      <dc:title>Matplotlib v3.11.0, https://matplotlib.org/</dc:title>
     </cc:Agent>
    </dc:creator>
   </cc:Work>
  </rdf:RDF>
 </metadata>
 <defs>
  <style type="text/css">*{stroke-linejoin: round; stroke-linecap: butt}</style>
 </defs>
 <g id="figure_1">
  <g id="patch_1">
   <path d="M 0 346.117969 
L 505.632109 346.117969 
L 505.632109 0 
L 0 0 
L 0 346.117969 
z
" style="fill: none"/>
  </g>
  <g id="axes_1">
   <g id="patch_2">
    <path d="M 27.119453 305.416953 
L 483.959453 305.416953 
L 483.959453 7.2 
L 27.119453 7.2 
L 27.119453 305.416953 
z
" style="fill: none"/>
   </g>
   <g id="patch_3">
    <path d="M 255.539453 39.24246 
L 465.685853 39.24246 
L 465.685853 19.572831 
L 255.539453 19.572831 
z
" clip-path="url(#pbbe9e740d4)" style="fill: #e7a657; stroke: #0c1116; stroke-linejoin: miter"/>
   </g>
   <g id="patch_4">
    <path d="M 255.539453 70.967668 
L 433.707053 70.967668 
L 433.707053 51.298039 
L 255.539453 51.298039 
z
" clip-path="url(#pbbe9e740d4)" style="fill: #36b6c9; stroke: #0c1116; stroke-linejoin: miter"/>
   </g>
   <g id="patch_5">
    <path d="M 255.539453 102.692875 
L 417.717653 102.692875 
L 417.717653 83.023247 
L 255.539453 83.023247 
z
" clip-path="url(#pbbe9e740d4)" style="fill: #36b6c9; stroke: #0c1116; stroke-linejoin: miter"/>
   </g>
   <g id="patch_6">
    <path d="M 255.539453 134.418083 
L 401.728253 134.418083 
L 401.728253 114.748454 
L 255.539453 114.748454 
z
" clip-path="url(#pbbe9e740d4)" style="fill: #36b6c9; stroke: #0c1116; stroke-linejoin: miter"/>
   </g>
   <g id="patch_7">
    <path d="M 255.539453 166.143291 
L 349.191653 166.143291 
L 349.191653 146.473662 
L 255.539453 146.473662 
z
" clip-path="url(#pbbe9e740d4)" style="fill: #36b6c9; stroke: #0c1116; stroke-linejoin: miter"/>
   </g>
   <g id="patch_8">
    <path d="M 255.539453 197.868499 
L 180.160853 197.868499 
L 180.160853 178.19887 
L 255.539453 178.19887 
z
" clip-path="url(#pbbe9e740d4)" style="fill: #88a1b2; stroke: #0c1116; stroke-linejoin: miter"/>
   </g>
   <g id="patch_9">
    <path d="M 255.539453 229.593707 
L 136.761053 229.593707 
L 136.761053 209.924078 
L 255.539453 209.924078 
z
" clip-path="url(#pbbe9e740d4)" style="fill: #88a1b2; stroke: #0c1116; stroke-linejoin: miter"/>
   </g>
   <g id="patch_10">
    <path d="M 255.539453 261.318914 
L 104.782253 261.318914 
L 104.782253 241.649285 
L 255.539453 241.649285 
z
" clip-path="url(#pbbe9e740d4)" style="fill: #88a1b2; stroke: #0c1116; stroke-linejoin: miter"/>
   </g>
   <g id="patch_11">
    <path d="M 255.539453 293.044122 
L 75.087653 293.044122 
L 75.087653 273.374493 
L 255.539453 273.374493 
z
" clip-path="url(#pbbe9e740d4)" style="fill: #88a1b2; stroke: #0c1116; stroke-linejoin: miter"/>
   </g>
   <g id="matplotlib.axis_1">
    <g id="xtick_1">
     <g id="line2d_1">
      <path d="M 27.119453 305.416953 
L 27.119453 7.2 
" clip-path="url(#pbbe9e740d4)" style="fill: none; stroke: #36b6c9; stroke-opacity: 0.16; stroke-width: 0.7; stroke-linecap: square"/>
     </g>
     <g id="line2d_2"/>
     <g id="text_1">
      <!-- −1.00 -->
      <g style="fill: #88a1b2" transform="translate(7.2 318.793906) scale(0.13 -0.13)">
       <defs>
        <path id="DejaVuSans-c9c" d="M 678 2272 
L 4684 2272 
L 4684 1741 
L 678 1741 
L 678 2272 
z
" transform="scale(0.015625)"/>
        <path id="DejaVuSans-14" d="M 794 531 
L 1825 531 
L 1825 4091 
L 703 3866 
L 703 4441 
L 1819 4666 
L 2450 4666 
L 2450 531 
L 3481 531 
L 3481 0 
L 794 0 
L 794 531 
z
" transform="scale(0.015625)"/>
        <path id="DejaVuSans-11" d="M 684 794 
L 1344 794 
L 1344 0 
L 684 0 
L 684 794 
z
" transform="scale(0.015625)"/>
        <path id="DejaVuSans-13" d="M 2034 4250 
Q 1547 4250 1301 3770 
Q 1056 3291 1056 2328 
Q 1056 1369 1301 889 
Q 1547 409 2034 409 
Q 2525 409 2770 889 
Q 3016 1369 3016 2328 
Q 3016 3291 2770 3770 
Q 2525 4250 2034 4250 
z
M 2034 4750 
Q 2819 4750 3233 4129 
Q 3647 3509 3647 2328 
Q 3647 1150 3233 529 
Q 2819 -91 2034 -91 
Q 1250 -91 836 529 
Q 422 1150 422 2328 
Q 422 3509 836 4129 
Q 1250 4750 2034 4750 
z
" transform="scale(0.015625)"/>
       </defs>
       <use xlink:href="#DejaVuSans-c9c"/>
       <use xlink:href="#DejaVuSans-14" transform="translate(83.796875 0)"/>
       <use xlink:href="#DejaVuSans-11" transform="translate(147.421875 0)"/>
       <use xlink:href="#DejaVuSans-13" transform="translate(179.203125 0)"/>
       <use xlink:href="#DejaVuSans-13" transform="translate(242.828125 0)"/>
      </g>
     </g>
    </g>
    <g id="xtick_2">
     <g id="line2d_3">
      <path d="M 84.224453 305.416953 
L 84.224453 7.2 
" clip-path="url(#pbbe9e740d4)" style="fill: none; stroke: #36b6c9; stroke-opacity: 0.16; stroke-width: 0.7; stroke-linecap: square"/>
     </g>
     <g id="line2d_4"/>
     <g id="text_2">
      <!-- −0.75 -->
      <g style="fill: #88a1b2" transform="translate(64.305 318.793906) scale(0.13 -0.13)">
       <defs>
        <path id="DejaVuSans-1a" d="M 525 4666 
L 3525 4666 
L 3525 4397 
L 1831 0 
L 1172 0 
L 2766 4134 
L 525 4134 
L 525 4666 
z
" transform="scale(0.015625)"/>
        <path id="DejaVuSans-18" d="M 691 4666 
L 3169 4666 
L 3169 4134 
L 1269 4134 
L 1269 2991 
Q 1406 3038 1543 3061 
Q 1681 3084 1819 3084 
Q 2600 3084 3056 2656 
Q 3513 2228 3513 1497 
Q 3513 744 3044 326 
Q 2575 -91 1722 -91 
Q 1428 -91 1123 -41 
Q 819 9 494 109 
L 494 744 
Q 775 591 1075 516 
Q 1375 441 1709 441 
Q 2250 441 2565 725 
Q 2881 1009 2881 1497 
Q 2881 1984 2565 2268 
Q 2250 2553 1709 2553 
Q 1456 2553 1204 2497 
Q 953 2441 691 2322 
L 691 4666 
z
" transform="scale(0.015625)"/>
       </defs>
       <use xlink:href="#DejaVuSans-c9c"/>
       <use xlink:href="#DejaVuSans-13" transform="translate(83.796875 0)"/>
       <use xlink:href="#DejaVuSans-11" transform="translate(147.421875 0)"/>
       <use xlink:href="#DejaVuSans-1a" transform="translate(179.203125 0)"/>
       <use xlink:href="#DejaVuSans-18" transform="translate(242.828125 0)"/>
      </g>
     </g>
    </g>
    <g id="xtick_3">
     <g id="line2d_5">
      <path d="M 141.329453 305.416953 
L 141.329453 7.2 
" clip-path="url(#pbbe9e740d4)" style="fill: none; stroke: #36b6c9; stroke-opacity: 0.16; stroke-width: 0.7; stroke-linecap: square"/>
     </g>
     <g id="line2d_6"/>
     <g id="text_3">
      <!-- −0.50 -->
      <g style="fill: #88a1b2" transform="translate(121.41 318.793906) scale(0.13 -0.13)">
       <use xlink:href="#DejaVuSans-c9c"/>
       <use xlink:href="#DejaVuSans-13" transform="translate(83.796875 0)"/>
       <use xlink:href="#DejaVuSans-11" transform="translate(147.421875 0)"/>
       <use xlink:href="#DejaVuSans-18" transform="translate(179.203125 0)"/>
       <use xlink:href="#DejaVuSans-13" transform="translate(242.828125 0)"/>
      </g>
     </g>
    </g>
    <g id="xtick_4">
     <g id="line2d_7">
      <path d="M 198.434453 305.416953 
L 198.434453 7.2 
" clip-path="url(#pbbe9e740d4)" style="fill: none; stroke: #36b6c9; stroke-opacity: 0.16; stroke-width: 0.7; stroke-linecap: square"/>
     </g>
     <g id="line2d_8"/>
     <g id="text_4">
      <!-- −0.25 -->
      <g style="fill: #88a1b2" transform="translate(178.515 318.793906) scale(0.13 -0.13)">
       <defs>
        <path id="DejaVuSans-15" d="M 1228 531 
L 3431 531 
L 3431 0 
L 469 0 
L 469 531 
Q 828 903 1448 1529 
Q 2069 2156 2228 2338 
Q 2531 2678 2651 2914 
Q 2772 3150 2772 3378 
Q 2772 3750 2511 3984 
Q 2250 4219 1831 4219 
Q 1534 4219 1204 4116 
Q 875 4013 500 3803 
L 500 4441 
Q 881 4594 1212 4672 
Q 1544 4750 1819 4750 
Q 2544 4750 2975 4387 
Q 3406 4025 3406 3419 
Q 3406 3131 3298 2873 
Q 3191 2616 2906 2266 
Q 2828 2175 2409 1742 
Q 1991 1309 1228 531 
z
" transform="scale(0.015625)"/>
       </defs>
       <use xlink:href="#DejaVuSans-c9c"/>
       <use xlink:href="#DejaVuSans-13" transform="translate(83.796875 0)"/>
       <use xlink:href="#DejaVuSans-11" transform="translate(147.421875 0)"/>
       <use xlink:href="#DejaVuSans-15" transform="translate(179.203125 0)"/>
       <use xlink:href="#DejaVuSans-18" transform="translate(242.828125 0)"/>
      </g>
     </g>
    </g>
    <g id="xtick_5">
     <g id="line2d_9">
      <path d="M 255.539453 305.416953 
L 255.539453 7.2 
" clip-path="url(#pbbe9e740d4)" style="fill: none; stroke: #36b6c9; stroke-opacity: 0.16; stroke-width: 0.7; stroke-linecap: square"/>
     </g>
     <g id="line2d_10"/>
     <g id="text_5">
      <!-- 0.00 -->
      <g style="fill: #88a1b2" transform="translate(241.066797 318.793906) scale(0.13 -0.13)">
       <use xlink:href="#DejaVuSans-13"/>
       <use xlink:href="#DejaVuSans-11" transform="translate(63.625 0)"/>
       <use xlink:href="#DejaVuSans-13" transform="translate(95.40625 0)"/>
       <use xlink:href="#DejaVuSans-13" transform="translate(159.03125 0)"/>
      </g>
     </g>
    </g>
    <g id="xtick_6">
     <g id="line2d_11">
      <path d="M 312.644453 305.416953 
L 312.644453 7.2 
" clip-path="url(#pbbe9e740d4)" style="fill: none; stroke: #36b6c9; stroke-opacity: 0.16; stroke-width: 0.7; stroke-linecap: square"/>
     </g>
     <g id="line2d_12"/>
     <g id="text_6">
      <!-- 0.25 -->
      <g style="fill: #88a1b2" transform="translate(298.171797 318.793906) scale(0.13 -0.13)">
       <use xlink:href="#DejaVuSans-13"/>
       <use xlink:href="#DejaVuSans-11" transform="translate(63.625 0)"/>
       <use xlink:href="#DejaVuSans-15" transform="translate(95.40625 0)"/>
       <use xlink:href="#DejaVuSans-18" transform="translate(159.03125 0)"/>
      </g>
     </g>
    </g>
    <g id="xtick_7">
     <g id="line2d_13">
      <path d="M 369.749453 305.416953 
L 369.749453 7.2 
" clip-path="url(#pbbe9e740d4)" style="fill: none; stroke: #36b6c9; stroke-opacity: 0.16; stroke-width: 0.7; stroke-linecap: square"/>
     </g>
     <g id="line2d_14"/>
     <g id="text_7">
      <!-- 0.50 -->
      <g style="fill: #88a1b2" transform="translate(355.276797 318.793906) scale(0.13 -0.13)">
       <use xlink:href="#DejaVuSans-13"/>
       <use xlink:href="#DejaVuSans-11" transform="translate(63.625 0)"/>
       <use xlink:href="#DejaVuSans-18" transform="translate(95.40625 0)"/>
       <use xlink:href="#DejaVuSans-13" transform="translate(159.03125 0)"/>
      </g>
     </g>
    </g>
    <g id="xtick_8">
     <g id="line2d_15">
      <path d="M 426.854453 305.416953 
L 426.854453 7.2 
" clip-path="url(#pbbe9e740d4)" style="fill: none; stroke: #36b6c9; stroke-opacity: 0.16; stroke-width: 0.7; stroke-linecap: square"/>
     </g>
     <g id="line2d_16"/>
     <g id="text_8">
      <!-- 0.75 -->
      <g style="fill: #88a1b2" transform="translate(412.381797 318.793906) scale(0.13 -0.13)">
       <use xlink:href="#DejaVuSans-13"/>
       <use xlink:href="#DejaVuSans-11" transform="translate(63.625 0)"/>
       <use xlink:href="#DejaVuSans-1a" transform="translate(95.40625 0)"/>
       <use xlink:href="#DejaVuSans-18" transform="translate(159.03125 0)"/>
      </g>
     </g>
    </g>
    <g id="xtick_9">
     <g id="line2d_17">
      <path d="M 483.959453 305.416953 
L 483.959453 7.2 
" clip-path="url(#pbbe9e740d4)" style="fill: none; stroke: #36b6c9; stroke-opacity: 0.16; stroke-width: 0.7; stroke-linecap: square"/>
     </g>
     <g id="line2d_18"/>
     <g id="text_9">
      <!-- 1.00 -->
      <g style="fill: #88a1b2" transform="translate(469.486797 318.793906) scale(0.13 -0.13)">
       <use xlink:href="#DejaVuSans-14"/>
       <use xlink:href="#DejaVuSans-11" transform="translate(63.625 0)"/>
       <use xlink:href="#DejaVuSans-13" transform="translate(95.40625 0)"/>
       <use xlink:href="#DejaVuSans-13" transform="translate(159.03125 0)"/>
      </g>
     </g>
    </g>
    <g id="text_10">
     <!-- Learned weight toward  URGENT  (right)  vs  ROUTINE  (left) -->
     <g style="fill: #cddde6" transform="translate(60.355625 335.794922) scale(0.13 -0.13)">
      <defs>
       <path id="DejaVuSans-2f" d="M 628 4666 
L 1259 4666 
L 1259 531 
L 3531 531 
L 3531 0 
L 628 0 
L 628 4666 
z
" transform="scale(0.015625)"/>
       <path id="DejaVuSans-48" d="M 3597 1894 
L 3597 1613 
L 953 1613 
Q 991 1019 1311 708 
Q 1631 397 2203 397 
Q 2534 397 2845 478 
Q 3156 559 3463 722 
L 3463 178 
Q 3153 47 2828 -22 
Q 2503 -91 2169 -91 
Q 1331 -91 842 396 
Q 353 884 353 1716 
Q 353 2575 817 3079 
Q 1281 3584 2069 3584 
Q 2775 3584 3186 3129 
Q 3597 2675 3597 1894 
z
M 3022 2063 
Q 3016 2534 2758 2815 
Q 2500 3097 2075 3097 
Q 1594 3097 1305 2825 
Q 1016 2553 972 2059 
L 3022 2063 
z
" transform="scale(0.015625)"/>
       <path id="DejaVuSans-44" d="M 2194 1759 
Q 1497 1759 1228 1600 
Q 959 1441 959 1056 
Q 959 750 1161 570 
Q 1363 391 1709 391 
Q 2188 391 2477 730 
Q 2766 1069 2766 1631 
L 2766 1759 
L 2194 1759 
z
M 3341 1997 
L 3341 0 
L 2766 0 
L 2766 531 
Q 2569 213 2275 61 
Q 1981 -91 1556 -91 
Q 1019 -91 701 211 
Q 384 513 384 1019 
Q 384 1609 779 1909 
Q 1175 2209 1959 2209 
L 2766 2209 
L 2766 2266 
Q 2766 2663 2505 2880 
Q 2244 3097 1772 3097 
Q 1472 3097 1187 3025 
Q 903 2953 641 2809 
L 641 3341 
Q 956 3463 1253 3523 
Q 1550 3584 1831 3584 
Q 2591 3584 2966 3190 
Q 3341 2797 3341 1997 
z
" transform="scale(0.015625)"/>
       <path id="DejaVuSans-55" d="M 2631 2963 
Q 2534 3019 2420 3045 
Q 2306 3072 2169 3072 
Q 1681 3072 1420 2755 
Q 1159 2438 1159 1844 
L 1159 0 
L 581 0 
L 581 3500 
L 1159 3500 
L 1159 2956 
Q 1341 3275 1631 3429 
Q 1922 3584 2338 3584 
Q 2397 3584 2469 3576 
Q 2541 3569 2628 3553 
L 2631 2963 
z
" transform="scale(0.015625)"/>
       <path id="DejaVuSans-51" d="M 3513 2113 
L 3513 0 
L 2938 0 
L 2938 2094 
Q 2938 2591 2744 2837 
Q 2550 3084 2163 3084 
Q 1697 3084 1428 2787 
Q 1159 2491 1159 1978 
L 1159 0 
L 581 0 
L 581 3500 
L 1159 3500 
L 1159 2956 
Q 1366 3272 1645 3428 
Q 1925 3584 2291 3584 
Q 2894 3584 3203 3211 
Q 3513 2838 3513 2113 
z
" transform="scale(0.015625)"/>
       <path id="DejaVuSans-47" d="M 2906 2969 
L 2906 4863 
L 3481 4863 
L 3481 0 
L 2906 0 
L 2906 525 
Q 2725 213 2448 61 
Q 2172 -91 1784 -91 
Q 1150 -91 751 415 
Q 353 922 353 1747 
Q 353 2572 751 3078 
Q 1150 3584 1784 3584 
Q 2172 3584 2448 3432 
Q 2725 3281 2906 2969 
z
M 947 1747 
Q 947 1113 1208 752 
Q 1469 391 1925 391 
Q 2381 391 2643 752 
Q 2906 1113 2906 1747 
Q 2906 2381 2643 2742 
Q 2381 3103 1925 3103 
Q 1469 3103 1208 2742 
Q 947 2381 947 1747 
z
" transform="scale(0.015625)"/>
       <path id="DejaVuSans-3" transform="scale(0.015625)"/>
       <path id="DejaVuSans-5a" d="M 269 3500 
L 844 3500 
L 1563 769 
L 2278 3500 
L 2956 3500 
L 3675 769 
L 4391 3500 
L 4966 3500 
L 4050 0 
L 3372 0 
L 2619 2869 
L 1863 0 
L 1184 0 
L 269 3500 
z
" transform="scale(0.015625)"/>
       <path id="DejaVuSans-4c" d="M 603 3500 
L 1178 3500 
L 1178 0 
L 603 0 
L 603 3500 
z
M 603 4863 
L 1178 4863 
L 1178 4134 
L 603 4134 
L 603 4863 
z
" transform="scale(0.015625)"/>
       <path id="DejaVuSans-4a" d="M 2906 1791 
Q 2906 2416 2648 2759 
Q 2391 3103 1925 3103 
Q 1463 3103 1205 2759 
Q 947 2416 947 1791 
Q 947 1169 1205 825 
Q 1463 481 1925 481 
Q 2391 481 2648 825 
Q 2906 1169 2906 1791 
z
M 3481 434 
Q 3481 -459 3084 -895 
Q 2688 -1331 1869 -1331 
Q 1566 -1331 1297 -1286 
Q 1028 -1241 775 -1147 
L 775 -588 
Q 1028 -725 1275 -790 
Q 1522 -856 1778 -856 
Q 2344 -856 2625 -561 
Q 2906 -266 2906 331 
L 2906 616 
Q 2728 306 2450 153 
Q 2172 0 1784 0 
Q 1141 0 747 490 
Q 353 981 353 1791 
Q 353 2603 747 3093 
Q 1141 3584 1784 3584 
Q 2172 3584 2450 3431 
Q 2728 3278 2906 2969 
L 2906 3500 
L 3481 3500 
L 3481 434 
z
" transform="scale(0.015625)"/>
       <path id="DejaVuSans-4b" d="M 3513 2113 
L 3513 0 
L 2938 0 
L 2938 2094 
Q 2938 2591 2744 2837 
Q 2550 3084 2163 3084 
Q 1697 3084 1428 2787 
Q 1159 2491 1159 1978 
L 1159 0 
L 581 0 
L 581 4863 
L 1159 4863 
L 1159 2956 
Q 1366 3272 1645 3428 
Q 1925 3584 2291 3584 
Q 2894 3584 3203 3211 
Q 3513 2838 3513 2113 
z
" transform="scale(0.015625)"/>
       <path id="DejaVuSans-57" d="M 1172 4494 
L 1172 3500 
L 2356 3500 
L 2356 3053 
L 1172 3053 
L 1172 1153 
Q 1172 725 1289 603 
Q 1406 481 1766 481 
L 2356 481 
L 2356 0 
L 1766 0 
Q 1100 0 847 248 
Q 594 497 594 1153 
L 594 3053 
L 172 3053 
L 172 3500 
L 594 3500 
L 594 4494 
L 1172 4494 
z
" transform="scale(0.015625)"/>
       <path id="DejaVuSans-52" d="M 1959 3097 
Q 1497 3097 1228 2736 
Q 959 2375 959 1747 
Q 959 1119 1226 758 
Q 1494 397 1959 397 
Q 2419 397 2687 759 
Q 2956 1122 2956 1747 
Q 2956 2369 2687 2733 
Q 2419 3097 1959 3097 
z
M 1959 3584 
Q 2709 3584 3137 3096 
Q 3566 2609 3566 1747 
Q 3566 888 3137 398 
Q 2709 -91 1959 -91 
Q 1206 -91 779 398 
Q 353 888 353 1747 
Q 353 2609 779 3096 
Q 1206 3584 1959 3584 
z
" transform="scale(0.015625)"/>
       <path id="DejaVuSans-38" d="M 556 4666 
L 1191 4666 
L 1191 1831 
Q 1191 1081 1462 751 
Q 1734 422 2344 422 
Q 2950 422 3222 751 
Q 3494 1081 3494 1831 
L 3494 4666 
L 4128 4666 
L 4128 1753 
Q 4128 841 3676 375 
Q 3225 -91 2344 -91 
Q 1459 -91 1007 375 
Q 556 841 556 1753 
L 556 4666 
z
" transform="scale(0.015625)"/>
       <path id="DejaVuSans-35" d="M 2841 2188 
Q 3044 2119 3236 1894 
Q 3428 1669 3622 1275 
L 4263 0 
L 3584 0 
L 2988 1197 
Q 2756 1666 2539 1819 
Q 2322 1972 1947 1972 
L 1259 1972 
L 1259 0 
L 628 0 
L 628 4666 
L 2053 4666 
Q 2853 4666 3247 4331 
Q 3641 3997 3641 3322 
Q 3641 2881 3436 2590 
Q 3231 2300 2841 2188 
z
M 1259 4147 
L 1259 2491 
L 2053 2491 
Q 2509 2491 2742 2702 
Q 2975 2913 2975 3322 
Q 2975 3731 2742 3939 
Q 2509 4147 2053 4147 
L 1259 4147 
z
" transform="scale(0.015625)"/>
       <path id="DejaVuSans-2a" d="M 3809 666 
L 3809 1919 
L 2778 1919 
L 2778 2438 
L 4434 2438 
L 4434 434 
Q 4069 175 3628 42 
Q 3188 -91 2688 -91 
Q 1594 -91 976 548 
Q 359 1188 359 2328 
Q 359 3472 976 4111 
Q 1594 4750 2688 4750 
Q 3144 4750 3555 4637 
Q 3966 4525 4313 4306 
L 4313 3634 
Q 3963 3931 3569 4081 
Q 3175 4231 2741 4231 
Q 1884 4231 1454 3753 
Q 1025 3275 1025 2328 
Q 1025 1384 1454 906 
Q 1884 428 2741 428 
Q 3075 428 3337 486 
Q 3600 544 3809 666 
z
" transform="scale(0.015625)"/>
       <path id="DejaVuSans-28" d="M 628 4666 
L 3578 4666 
L 3578 4134 
L 1259 4134 
L 1259 2753 
L 3481 2753 
L 3481 2222 
L 1259 2222 
L 1259 531 
L 3634 531 
L 3634 0 
L 628 0 
L 628 4666 
z
" transform="scale(0.015625)"/>
       <path id="DejaVuSans-31" d="M 628 4666 
L 1478 4666 
L 3547 763 
L 3547 4666 
L 4159 4666 
L 4159 0 
L 3309 0 
L 1241 3903 
L 1241 0 
L 628 0 
L 628 4666 
z
" transform="scale(0.015625)"/>
       <path id="DejaVuSans-37" d="M -19 4666 
L 3928 4666 
L 3928 4134 
L 2272 4134 
L 2272 0 
L 1638 0 
L 1638 4134 
L -19 4134 
L -19 4666 
z
" transform="scale(0.015625)"/>
       <path id="DejaVuSans-b" d="M 1984 4856 
Q 1566 4138 1362 3434 
Q 1159 2731 1159 2009 
Q 1159 1288 1364 580 
Q 1569 -128 1984 -844 
L 1484 -844 
Q 1016 -109 783 600 
Q 550 1309 550 2009 
Q 550 2706 781 3412 
Q 1013 4119 1484 4856 
L 1984 4856 
z
" transform="scale(0.015625)"/>
       <path id="DejaVuSans-c" d="M 513 4856 
L 1013 4856 
Q 1481 4119 1714 3412 
Q 1947 2706 1947 2009 
Q 1947 1309 1714 600 
Q 1481 -109 1013 -844 
L 513 -844 
Q 928 -128 1133 580 
Q 1338 1288 1338 2009 
Q 1338 2731 1133 3434 
Q 928 4138 513 4856 
z
" transform="scale(0.015625)"/>
       <path id="DejaVuSans-59" d="M 191 3500 
L 800 3500 
L 1894 563 
L 2988 3500 
L 3597 3500 
L 2284 0 
L 1503 0 
L 191 3500 
z
" transform="scale(0.015625)"/>
       <path id="DejaVuSans-56" d="M 2834 3397 
L 2834 2853 
Q 2591 2978 2328 3040 
Q 2066 3103 1784 3103 
Q 1356 3103 1142 2972 
Q 928 2841 928 2578 
Q 928 2378 1081 2264 
Q 1234 2150 1697 2047 
L 1894 2003 
Q 2506 1872 2764 1633 
Q 3022 1394 3022 966 
Q 3022 478 2636 193 
Q 2250 -91 1575 -91 
Q 1294 -91 989 -36 
Q 684 19 347 128 
L 347 722 
Q 666 556 975 473 
Q 1284 391 1588 391 
Q 1994 391 2212 530 
Q 2431 669 2431 922 
Q 2431 1156 2273 1281 
Q 2116 1406 1581 1522 
L 1381 1569 
Q 847 1681 609 1914 
Q 372 2147 372 2553 
Q 372 3047 722 3315 
Q 1072 3584 1716 3584 
Q 2034 3584 2315 3537 
Q 2597 3491 2834 3397 
z
" transform="scale(0.015625)"/>
       <path id="DejaVuSans-32" d="M 2522 4238 
Q 1834 4238 1429 3725 
Q 1025 3213 1025 2328 
Q 1025 1447 1429 934 
Q 1834 422 2522 422 
Q 3209 422 3611 934 
Q 4013 1447 4013 2328 
Q 4013 3213 3611 3725 
Q 3209 4238 2522 4238 
z
M 2522 4750 
Q 3503 4750 4090 4092 
Q 4678 3434 4678 2328 
Q 4678 1225 4090 567 
Q 3503 -91 2522 -91 
Q 1538 -91 948 565 
Q 359 1222 359 2328 
Q 359 3434 948 4092 
Q 1538 4750 2522 4750 
z
" transform="scale(0.015625)"/>
       <path id="DejaVuSans-2c" d="M 628 4666 
L 1259 4666 
L 1259 0 
L 628 0 
L 628 4666 
z
" transform="scale(0.015625)"/>
       <path id="DejaVuSans-4f" d="M 603 4863 
L 1178 4863 
L 1178 0 
L 603 0 
L 603 4863 
z
" transform="scale(0.015625)"/>
       <path id="DejaVuSans-49" d="M 2375 4863 
L 2375 4384 
L 1825 4384 
Q 1516 4384 1395 4259 
Q 1275 4134 1275 3809 
L 1275 3500 
L 2222 3500 
L 2222 3053 
L 1275 3053 
L 1275 0 
L 697 0 
L 697 3053 
L 147 3053 
L 147 3500 
L 697 3500 
L 697 3744 
Q 697 4328 969 4595 
Q 1241 4863 1831 4863 
L 2375 4863 
z
" transform="scale(0.015625)"/>
      </defs>
      <use xlink:href="#DejaVuSans-2f"/>
      <use xlink:href="#DejaVuSans-48" transform="translate(53.96875 0)"/>
      <use xlink:href="#DejaVuSans-44" transform="translate(115.5 0)"/>
      <use xlink:href="#DejaVuSans-55" transform="translate(176.78125 0)"/>
      <use xlink:href="#DejaVuSans-51" transform="translate(216.140625 0)"/>
      <use xlink:href="#DejaVuSans-48" transform="translate(279.515625 0)"/>
      <use xlink:href="#DejaVuSans-47" transform="translate(341.046875 0)"/>
      <use xlink:href="#DejaVuSans-3" transform="translate(404.53125 0)"/>
      <use xlink:href="#DejaVuSans-5a" transform="translate(436.3125 0)"/>
      <use xlink:href="#DejaVuSans-48" transform="translate(518.09375 0)"/>
      <use xlink:href="#DejaVuSans-4c" transform="translate(579.625 0)"/>
      <use xlink:href="#DejaVuSans-4a" transform="translate(607.40625 0)"/>
      <use xlink:href="#DejaVuSans-4b" transform="translate(670.890625 0)"/>
      <use xlink:href="#DejaVuSans-57" transform="translate(734.265625 0)"/>
      <use xlink:href="#DejaVuSans-3" transform="translate(773.46875 0)"/>
      <use xlink:href="#DejaVuSans-57" transform="translate(805.25 0)"/>
      <use xlink:href="#DejaVuSans-52" transform="translate(844.453125 0)"/>
      <use xlink:href="#DejaVuSans-5a" transform="translate(905.640625 0)"/>
      <use xlink:href="#DejaVuSans-44" transform="translate(987.421875 0)"/>
      <use xlink:href="#DejaVuSans-55" transform="translate(1048.703125 0)"/>
      <use xlink:href="#DejaVuSans-47" transform="translate(1088.0625 0)"/>
      <use xlink:href="#DejaVuSans-3" transform="translate(1151.546875 0)"/>
      <use xlink:href="#DejaVuSans-3" transform="translate(1183.328125 0)"/>
      <use xlink:href="#DejaVuSans-38" transform="translate(1215.109375 0)"/>
      <use xlink:href="#DejaVuSans-35" transform="translate(1288.296875 0)"/>
      <use xlink:href="#DejaVuSans-2a" transform="translate(1357.78125 0)"/>
      <use xlink:href="#DejaVuSans-28" transform="translate(1435.265625 0)"/>
      <use xlink:href="#DejaVuSans-31" transform="translate(1498.453125 0)"/>
      <use xlink:href="#DejaVuSans-37" transform="translate(1573.265625 0)"/>
      <use xlink:href="#DejaVuSans-3" transform="translate(1634.34375 0)"/>
      <use xlink:href="#DejaVuSans-3" transform="translate(1666.125 0)"/>
      <use xlink:href="#DejaVuSans-b" transform="translate(1697.90625 0)"/>
      <use xlink:href="#DejaVuSans-55" transform="translate(1736.921875 0)"/>
      <use xlink:href="#DejaVuSans-4c" transform="translate(1778.03125 0)"/>
      <use xlink:href="#DejaVuSans-4a" transform="translate(1805.8125 0)"/>
      <use xlink:href="#DejaVuSans-4b" transform="translate(1869.296875 0)"/>
      <use xlink:href="#DejaVuSans-57" transform="translate(1932.671875 0)"/>
      <use xlink:href="#DejaVuSans-c" transform="translate(1971.875 0)"/>
      <use xlink:href="#DejaVuSans-3" transform="translate(2010.890625 0)"/>
      <use xlink:href="#DejaVuSans-3" transform="translate(2042.671875 0)"/>
      <use xlink:href="#DejaVuSans-59" transform="translate(2074.453125 0)"/>
      <use xlink:href="#DejaVuSans-56" transform="translate(2133.640625 0)"/>
      <use xlink:href="#DejaVuSans-3" transform="translate(2185.734375 0)"/>
      <use xlink:href="#DejaVuSans-3" transform="translate(2217.515625 0)"/>
      <use xlink:href="#DejaVuSans-35" transform="translate(2249.296875 0)"/>
      <use xlink:href="#DejaVuSans-32" transform="translate(2318.78125 0)"/>
      <use xlink:href="#DejaVuSans-38" transform="translate(2397.5 0)"/>
      <use xlink:href="#DejaVuSans-37" transform="translate(2470.6875 0)"/>
      <use xlink:href="#DejaVuSans-2c" transform="translate(2531.765625 0)"/>
      <use xlink:href="#DejaVuSans-31" transform="translate(2561.265625 0)"/>
      <use xlink:href="#DejaVuSans-28" transform="translate(2636.078125 0)"/>
      <use xlink:href="#DejaVuSans-3" transform="translate(2699.265625 0)"/>
      <use xlink:href="#DejaVuSans-3" transform="translate(2731.046875 0)"/>
      <use xlink:href="#DejaVuSans-b" transform="translate(2762.828125 0)"/>
      <use xlink:href="#DejaVuSans-4f" transform="translate(2801.84375 0)"/>
      <use xlink:href="#DejaVuSans-48" transform="translate(2829.625 0)"/>
      <use xlink:href="#DejaVuSans-49" transform="translate(2891.15625 0)"/>
      <use xlink:href="#DejaVuSans-57" transform="translate(2924.609375 0)"/>
      <use xlink:href="#DejaVuSans-c" transform="translate(2963.8125 0)"/>
     </g>
    </g>
   </g>
   <g id="matplotlib.axis_2"/>
   <g id="line2d_19">
    <path d="M 255.539453 305.416953 
L 255.539453 7.2 
" clip-path="url(#pbbe9e740d4)" style="fill: none; stroke: #cddde6; stroke-opacity: 0.55; stroke-width: 1.2; stroke-linecap: square"/>
   </g>
   <g id="patch_12">
    <path d="M 27.119453 305.416953 
L 483.959453 305.416953 
" style="fill: none; stroke: #2b3f4f; stroke-width: 1.1; stroke-linejoin: miter; stroke-linecap: square"/>
   </g>
   <g id="text_11">
    <!-- crack -->
    <g style="fill: #e7a657" transform="translate(262.392053 32.655204) scale(0.125 -0.125)">
     <defs>
      <path id="DejaVuSans-Bold-46" d="M 3366 3391 
L 3366 2478 
Q 3138 2634 2908 2709 
Q 2678 2784 2431 2784 
Q 1963 2784 1702 2511 
Q 1441 2238 1441 1747 
Q 1441 1256 1702 982 
Q 1963 709 2431 709 
Q 2694 709 2930 787 
Q 3166 866 3366 1019 
L 3366 103 
Q 3103 6 2833 -42 
Q 2563 -91 2291 -91 
Q 1344 -91 809 395 
Q 275 881 275 1747 
Q 275 2613 809 3098 
Q 1344 3584 2291 3584 
Q 2566 3584 2833 3536 
Q 3100 3488 3366 3391 
z
" transform="scale(0.015625)"/>
      <path id="DejaVuSans-Bold-55" d="M 3138 2547 
Q 2991 2616 2845 2648 
Q 2700 2681 2553 2681 
Q 2122 2681 1889 2404 
Q 1656 2128 1656 1613 
L 1656 0 
L 538 0 
L 538 3500 
L 1656 3500 
L 1656 2925 
Q 1872 3269 2151 3426 
Q 2431 3584 2822 3584 
Q 2878 3584 2943 3579 
Q 3009 3575 3134 3559 
L 3138 2547 
z
" transform="scale(0.015625)"/>
      <path id="DejaVuSans-Bold-44" d="M 2106 1575 
Q 1756 1575 1579 1456 
Q 1403 1338 1403 1106 
Q 1403 894 1545 773 
Q 1688 653 1941 653 
Q 2256 653 2472 879 
Q 2688 1106 2688 1447 
L 2688 1575 
L 2106 1575 
z
M 3816 1997 
L 3816 0 
L 2688 0 
L 2688 519 
Q 2463 200 2181 54 
Q 1900 -91 1497 -91 
Q 953 -91 614 226 
Q 275 544 275 1050 
Q 275 1666 698 1953 
Q 1122 2241 2028 2241 
L 2688 2241 
L 2688 2328 
Q 2688 2594 2478 2717 
Q 2269 2841 1825 2841 
Q 1466 2841 1156 2769 
Q 847 2697 581 2553 
L 581 3406 
Q 941 3494 1303 3539 
Q 1666 3584 2028 3584 
Q 2975 3584 3395 3211 
Q 3816 2838 3816 1997 
z
" transform="scale(0.015625)"/>
      <path id="DejaVuSans-Bold-4e" d="M 538 4863 
L 1656 4863 
L 1656 2216 
L 2944 3500 
L 4244 3500 
L 2534 1894 
L 4378 0 
L 3022 0 
L 1656 1459 
L 1656 0 
L 538 0 
L 538 4863 
z
" transform="scale(0.015625)"/>
     </defs>
     <use xlink:href="#DejaVuSans-Bold-46"/>
     <use xlink:href="#DejaVuSans-Bold-55" transform="translate(59.28125 0)"/>
     <use xlink:href="#DejaVuSans-Bold-44" transform="translate(108.59375 0)"/>
     <use xlink:href="#DejaVuSans-Bold-46" transform="translate(176.078125 0)"/>
     <use xlink:href="#DejaVuSans-Bold-4e" transform="translate(235.359375 0)"/>
    </g>
   </g>
   <g id="text_12">
    <!-- smoke -->
    <g style="fill: #cddde6" transform="translate(262.392053 64.380412) scale(0.125 -0.125)">
     <defs>
      <path id="DejaVuSans-50" d="M 3328 2828 
Q 3544 3216 3844 3400 
Q 4144 3584 4550 3584 
Q 5097 3584 5394 3201 
Q 5691 2819 5691 2113 
L 5691 0 
L 5113 0 
L 5113 2094 
Q 5113 2597 4934 2840 
Q 4756 3084 4391 3084 
Q 3944 3084 3684 2787 
Q 3425 2491 3425 1978 
L 3425 0 
L 2847 0 
L 2847 2094 
Q 2847 2600 2669 2842 
Q 2491 3084 2119 3084 
Q 1678 3084 1418 2786 
Q 1159 2488 1159 1978 
L 1159 0 
L 581 0 
L 581 3500 
L 1159 3500 
L 1159 2956 
Q 1356 3278 1631 3431 
Q 1906 3584 2284 3584 
Q 2666 3584 2933 3390 
Q 3200 3197 3328 2828 
z
" transform="scale(0.015625)"/>
      <path id="DejaVuSans-4e" d="M 581 4863 
L 1159 4863 
L 1159 1991 
L 2875 3500 
L 3609 3500 
L 1753 1863 
L 3688 0 
L 2938 0 
L 1159 1709 
L 1159 0 
L 581 0 
L 581 4863 
z
" transform="scale(0.015625)"/>
     </defs>
     <use xlink:href="#DejaVuSans-56"/>
     <use xlink:href="#DejaVuSans-50" transform="translate(52.09375 0)"/>
     <use xlink:href="#DejaVuSans-52" transform="translate(149.5 0)"/>
     <use xlink:href="#DejaVuSans-4e" transform="translate(210.6875 0)"/>
     <use xlink:href="#DejaVuSans-48" transform="translate(265.03125 0)"/>
    </g>
   </g>
   <g id="text_13">
    <!-- grounding -->
    <g style="fill: #cddde6" transform="translate(262.392053 96.10562) scale(0.125 -0.125)">
     <defs>
      <path id="DejaVuSans-58" d="M 544 1381 
L 544 3500 
L 1119 3500 
L 1119 1403 
Q 1119 906 1312 657 
Q 1506 409 1894 409 
Q 2359 409 2629 706 
Q 2900 1003 2900 1516 
L 2900 3500 
L 3475 3500 
L 3475 0 
L 2900 0 
L 2900 538 
Q 2691 219 2414 64 
Q 2138 -91 1772 -91 
Q 1169 -91 856 284 
Q 544 659 544 1381 
z
M 1991 3584 
L 1991 3584 
z
" transform="scale(0.015625)"/>
     </defs>
     <use xlink:href="#DejaVuSans-4a"/>
     <use xlink:href="#DejaVuSans-55" transform="translate(63.484375 0)"/>
     <use xlink:href="#DejaVuSans-52" transform="translate(102.390625 0)"/>
     <use xlink:href="#DejaVuSans-58" transform="translate(163.578125 0)"/>
     <use xlink:href="#DejaVuSans-51" transform="translate(226.953125 0)"/>
     <use xlink:href="#DejaVuSans-47" transform="translate(290.328125 0)"/>
     <use xlink:href="#DejaVuSans-4c" transform="translate(353.8125 0)"/>
     <use xlink:href="#DejaVuSans-51" transform="translate(381.59375 0)"/>
     <use xlink:href="#DejaVuSans-4a" transform="translate(444.96875 0)"/>
    </g>
   </g>
   <g id="text_14">
    <!-- fire -->
    <g style="fill: #cddde6" transform="translate(262.392053 127.830827) scale(0.125 -0.125)">
     <defs>
      <path id="DejaVuSans-13af" d="M 3431 3500 
L 3431 0 
L 2853 0 
L 2853 3053 
L 1275 3053 
L 1275 0 
L 697 0 
L 697 3053 
L 147 3053 
L 147 3500 
L 697 3500 
L 697 3744 
Q 697 4316 967 4589 
Q 1238 4863 1797 4863 
L 2375 4863 
L 2375 4384 
L 1825 4384 
Q 1516 4384 1395 4259 
Q 1275 4134 1275 3809 
L 1275 3500 
L 3431 3500 
z
M 2853 4856 
L 3431 4856 
L 3431 4128 
L 2853 4128 
L 2853 4856 
z
" transform="scale(0.015625)"/>
     </defs>
     <use xlink:href="#DejaVuSans-13af"/>
     <use xlink:href="#DejaVuSans-55" transform="translate(62.984375 0)"/>
     <use xlink:href="#DejaVuSans-48" transform="translate(101.890625 0)"/>
    </g>
   </g>
   <g id="text_15">
    <!-- fail -->
    <g style="fill: #cddde6" transform="translate(262.392053 159.556035) scale(0.125 -0.125)">
     <use xlink:href="#DejaVuSans-49"/>
     <use xlink:href="#DejaVuSans-44" transform="translate(35.203125 0)"/>
     <use xlink:href="#DejaVuSans-4c" transform="translate(96.484375 0)"/>
     <use xlink:href="#DejaVuSans-4f" transform="translate(124.265625 0)"/>
    </g>
   </g>
   <g id="text_16">
    <!-- monitor -->
    <g style="fill: #cddde6" transform="translate(199.780603 191.281243) scale(0.125 -0.125)">
     <use xlink:href="#DejaVuSans-50"/>
     <use xlink:href="#DejaVuSans-52" transform="translate(97.40625 0)"/>
     <use xlink:href="#DejaVuSans-51" transform="translate(158.59375 0)"/>
     <use xlink:href="#DejaVuSans-4c" transform="translate(221.96875 0)"/>
     <use xlink:href="#DejaVuSans-57" transform="translate(249.75 0)"/>
     <use xlink:href="#DejaVuSans-52" transform="translate(288.953125 0)"/>
     <use xlink:href="#DejaVuSans-55" transform="translate(350.140625 0)"/>
    </g>
   </g>
   <g id="text_17">
    <!-- within limits -->
    <g style="fill: #cddde6" transform="translate(172.796228 223.006451) scale(0.125 -0.125)">
     <use xlink:href="#DejaVuSans-5a"/>
     <use xlink:href="#DejaVuSans-4c" transform="translate(81.78125 0)"/>
     <use xlink:href="#DejaVuSans-57" transform="translate(109.5625 0)"/>
     <use xlink:href="#DejaVuSans-4b" transform="translate(148.765625 0)"/>
     <use xlink:href="#DejaVuSans-4c" transform="translate(212.140625 0)"/>
     <use xlink:href="#DejaVuSans-51" transform="translate(239.921875 0)"/>
     <use xlink:href="#DejaVuSans-3" transform="translate(303.296875 0)"/>
     <use xlink:href="#DejaVuSans-4f" transform="translate(335.078125 0)"/>
     <use xlink:href="#DejaVuSans-4c" transform="translate(362.859375 0)"/>
     <use xlink:href="#DejaVuSans-50" transform="translate(390.640625 0)"/>
     <use xlink:href="#DejaVuSans-4c" transform="translate(488.046875 0)"/>
     <use xlink:href="#DejaVuSans-57" transform="translate(515.828125 0)"/>
     <use xlink:href="#DejaVuSans-56" transform="translate(555.03125 0)"/>
    </g>
   </g>
   <g id="text_18">
    <!-- complete -->
    <g style="fill: #cddde6" transform="translate(190.298181 254.731658) scale(0.125 -0.125)">
     <defs>
      <path id="DejaVuSans-46" d="M 3122 3366 
L 3122 2828 
Q 2878 2963 2633 3030 
Q 2388 3097 2138 3097 
Q 1578 3097 1268 2742 
Q 959 2388 959 1747 
Q 959 1106 1268 751 
Q 1578 397 2138 397 
Q 2388 397 2633 464 
Q 2878 531 3122 666 
L 3122 134 
Q 2881 22 2623 -34 
Q 2366 -91 2075 -91 
Q 1284 -91 818 406 
Q 353 903 353 1747 
Q 353 2603 823 3093 
Q 1294 3584 2113 3584 
Q 2378 3584 2631 3529 
Q 2884 3475 3122 3366 
z
" transform="scale(0.015625)"/>
      <path id="DejaVuSans-53" d="M 1159 525 
L 1159 -1331 
L 581 -1331 
L 581 3500 
L 1159 3500 
L 1159 2969 
Q 1341 3281 1617 3432 
Q 1894 3584 2278 3584 
Q 2916 3584 3314 3078 
Q 3713 2572 3713 1747 
Q 3713 922 3314 415 
Q 2916 -91 2278 -91 
Q 1894 -91 1617 61 
Q 1341 213 1159 525 
z
M 3116 1747 
Q 3116 2381 2855 2742 
Q 2594 3103 2138 3103 
Q 1681 3103 1420 2742 
Q 1159 2381 1159 1747 
Q 1159 1113 1420 752 
Q 1681 391 2138 391 
Q 2594 391 2855 752 
Q 3116 1113 3116 1747 
z
" transform="scale(0.015625)"/>
     </defs>
     <use xlink:href="#DejaVuSans-46"/>
     <use xlink:href="#DejaVuSans-52" transform="translate(54.984375 0)"/>
     <use xlink:href="#DejaVuSans-50" transform="translate(116.171875 0)"/>
     <use xlink:href="#DejaVuSans-53" transform="translate(213.578125 0)"/>
     <use xlink:href="#DejaVuSans-4f" transform="translate(277.0625 0)"/>
     <use xlink:href="#DejaVuSans-48" transform="translate(304.84375 0)"/>
     <use xlink:href="#DejaVuSans-57" transform="translate(366.375 0)"/>
     <use xlink:href="#DejaVuSans-48" transform="translate(405.578125 0)"/>
    </g>
   </g>
   <g id="text_19">
    <!-- routine -->
    <g style="fill: #cddde6" transform="translate(204.266931 286.456866) scale(0.125 -0.125)">
     <use xlink:href="#DejaVuSans-55"/>
     <use xlink:href="#DejaVuSans-52" transform="translate(38.90625 0)"/>
     <use xlink:href="#DejaVuSans-58" transform="translate(100.09375 0)"/>
     <use xlink:href="#DejaVuSans-57" transform="translate(163.46875 0)"/>
     <use xlink:href="#DejaVuSans-4c" transform="translate(202.671875 0)"/>
     <use xlink:href="#DejaVuSans-51" transform="translate(230.453125 0)"/>
     <use xlink:href="#DejaVuSans-48" transform="translate(293.828125 0)"/>
    </g>
   </g>
   <g id="text_20">
    <!-- → pushes URGENT -->
    <g style="fill: #36b6c9" transform="translate(33.972053 32.395399) scale(0.115 -0.115)">
     <defs>
      <path id="DejaVuSans-Bold-c1c" d="M 5050 2225 
L 5050 1788 
L 3822 559 
L 3369 1013 
L 3988 1631 
L 366 1631 
L 366 2381 
L 3988 2381 
L 3369 3000 
L 3822 3453 
L 5050 2225 
z
" transform="scale(0.015625)"/>
      <path id="DejaVuSans-Bold-3" transform="scale(0.015625)"/>
      <path id="DejaVuSans-Bold-53" d="M 1656 506 
L 1656 -1331 
L 538 -1331 
L 538 3500 
L 1656 3500 
L 1656 2988 
Q 1888 3294 2169 3439 
Q 2450 3584 2816 3584 
Q 3463 3584 3878 3070 
Q 4294 2556 4294 1747 
Q 4294 938 3878 423 
Q 3463 -91 2816 -91 
Q 2450 -91 2169 54 
Q 1888 200 1656 506 
z
M 2400 2772 
Q 2041 2772 1848 2508 
Q 1656 2244 1656 1747 
Q 1656 1250 1848 986 
Q 2041 722 2400 722 
Q 2759 722 2948 984 
Q 3138 1247 3138 1747 
Q 3138 2247 2948 2509 
Q 2759 2772 2400 2772 
z
" transform="scale(0.015625)"/>
      <path id="DejaVuSans-Bold-58" d="M 500 1363 
L 500 3500 
L 1625 3500 
L 1625 3150 
Q 1625 2866 1622 2436 
Q 1619 2006 1619 1863 
Q 1619 1441 1641 1255 
Q 1663 1069 1716 984 
Q 1784 875 1895 815 
Q 2006 756 2150 756 
Q 2500 756 2700 1025 
Q 2900 1294 2900 1772 
L 2900 3500 
L 4019 3500 
L 4019 0 
L 2900 0 
L 2900 506 
Q 2647 200 2364 54 
Q 2081 -91 1741 -91 
Q 1134 -91 817 281 
Q 500 653 500 1363 
z
" transform="scale(0.015625)"/>
      <path id="DejaVuSans-Bold-56" d="M 3272 3391 
L 3272 2541 
Q 2913 2691 2578 2766 
Q 2244 2841 1947 2841 
Q 1628 2841 1473 2761 
Q 1319 2681 1319 2516 
Q 1319 2381 1436 2309 
Q 1553 2238 1856 2203 
L 2053 2175 
Q 2913 2066 3209 1816 
Q 3506 1566 3506 1031 
Q 3506 472 3093 190 
Q 2681 -91 1863 -91 
Q 1516 -91 1145 -36 
Q 775 19 384 128 
L 384 978 
Q 719 816 1070 734 
Q 1422 653 1784 653 
Q 2113 653 2278 743 
Q 2444 834 2444 1013 
Q 2444 1163 2330 1236 
Q 2216 1309 1875 1350 
L 1678 1375 
Q 931 1469 631 1722 
Q 331 1975 331 2491 
Q 331 3047 712 3315 
Q 1094 3584 1881 3584 
Q 2191 3584 2531 3537 
Q 2872 3491 3272 3391 
z
" transform="scale(0.015625)"/>
      <path id="DejaVuSans-Bold-4b" d="M 4056 2131 
L 4056 0 
L 2931 0 
L 2931 347 
L 2931 1625 
Q 2931 2084 2911 2256 
Q 2891 2428 2841 2509 
Q 2775 2619 2662 2680 
Q 2550 2741 2406 2741 
Q 2056 2741 1856 2470 
Q 1656 2200 1656 1722 
L 1656 0 
L 538 0 
L 538 4863 
L 1656 4863 
L 1656 2988 
Q 1909 3294 2193 3439 
Q 2478 3584 2822 3584 
Q 3428 3584 3742 3212 
Q 4056 2841 4056 2131 
z
" transform="scale(0.015625)"/>
      <path id="DejaVuSans-Bold-48" d="M 4031 1759 
L 4031 1441 
L 1416 1441 
Q 1456 1047 1700 850 
Q 1944 653 2381 653 
Q 2734 653 3104 758 
Q 3475 863 3866 1075 
L 3866 213 
Q 3469 63 3072 -14 
Q 2675 -91 2278 -91 
Q 1328 -91 801 392 
Q 275 875 275 1747 
Q 275 2603 792 3093 
Q 1309 3584 2216 3584 
Q 3041 3584 3536 3087 
Q 4031 2591 4031 1759 
z
M 2881 2131 
Q 2881 2450 2695 2645 
Q 2509 2841 2209 2841 
Q 1884 2841 1681 2658 
Q 1478 2475 1428 2131 
L 2881 2131 
z
" transform="scale(0.015625)"/>
      <path id="DejaVuSans-Bold-38" d="M 588 4666 
L 1791 4666 
L 1791 1869 
Q 1791 1291 1980 1042 
Q 2169 794 2597 794 
Q 3028 794 3217 1042 
Q 3406 1291 3406 1869 
L 3406 4666 
L 4609 4666 
L 4609 1869 
Q 4609 878 4112 393 
Q 3616 -91 2597 -91 
Q 1581 -91 1084 393 
Q 588 878 588 1869 
L 588 4666 
z
" transform="scale(0.015625)"/>
      <path id="DejaVuSans-Bold-35" d="M 2297 2597 
Q 2675 2597 2839 2737 
Q 3003 2878 3003 3200 
Q 3003 3519 2839 3656 
Q 2675 3794 2297 3794 
L 1791 3794 
L 1791 2597 
L 2297 2597 
z
M 1791 1766 
L 1791 0 
L 588 0 
L 588 4666 
L 2425 4666 
Q 3347 4666 3776 4356 
Q 4206 4047 4206 3378 
Q 4206 2916 3982 2619 
Q 3759 2322 3309 2181 
Q 3556 2125 3751 1926 
Q 3947 1728 4147 1325 
L 4800 0 
L 3519 0 
L 2950 1159 
Q 2778 1509 2601 1637 
Q 2425 1766 2131 1766 
L 1791 1766 
z
" transform="scale(0.015625)"/>
      <path id="DejaVuSans-Bold-2a" d="M 4781 347 
Q 4331 128 3847 18 
Q 3363 -91 2847 -91 
Q 1681 -91 1000 561 
Q 319 1213 319 2328 
Q 319 3456 1012 4103 
Q 1706 4750 2913 4750 
Q 3378 4750 3804 4662 
Q 4231 4575 4609 4403 
L 4609 3438 
Q 4219 3659 3833 3768 
Q 3447 3878 3059 3878 
Q 2341 3878 1952 3476 
Q 1563 3075 1563 2328 
Q 1563 1588 1938 1184 
Q 2313 781 3003 781 
Q 3191 781 3352 804 
Q 3513 828 3641 878 
L 3641 1784 
L 2906 1784 
L 2906 2591 
L 4781 2591 
L 4781 347 
z
" transform="scale(0.015625)"/>
      <path id="DejaVuSans-Bold-28" d="M 588 4666 
L 3834 4666 
L 3834 3756 
L 1791 3756 
L 1791 2888 
L 3713 2888 
L 3713 1978 
L 1791 1978 
L 1791 909 
L 3903 909 
L 3903 0 
L 588 0 
L 588 4666 
z
" transform="scale(0.015625)"/>
      <path id="DejaVuSans-Bold-31" d="M 588 4666 
L 1931 4666 
L 3628 1466 
L 3628 4666 
L 4769 4666 
L 4769 0 
L 3425 0 
L 1728 3200 
L 1728 0 
L 588 0 
L 588 4666 
z
" transform="scale(0.015625)"/>
      <path id="DejaVuSans-Bold-37" d="M 31 4666 
L 4331 4666 
L 4331 3756 
L 2784 3756 
L 2784 0 
L 1581 0 
L 1581 3756 
L 31 3756 
L 31 4666 
z
" transform="scale(0.015625)"/>
     </defs>
     <use xlink:href="#DejaVuSans-Bold-c1c"/>
     <use xlink:href="#DejaVuSans-Bold-3" transform="translate(83.796875 0)"/>
     <use xlink:href="#DejaVuSans-Bold-53" transform="translate(118.609375 0)"/>
     <use xlink:href="#DejaVuSans-Bold-58" transform="translate(190.1875 0)"/>
     <use xlink:href="#DejaVuSans-Bold-56" transform="translate(261.375 0)"/>
     <use xlink:href="#DejaVuSans-Bold-4b" transform="translate(320.890625 0)"/>
     <use xlink:href="#DejaVuSans-Bold-48" transform="translate(392.078125 0)"/>
     <use xlink:href="#DejaVuSans-Bold-56" transform="translate(459.90625 0)"/>
     <use xlink:href="#DejaVuSans-Bold-3" transform="translate(519.421875 0)"/>
     <use xlink:href="#DejaVuSans-Bold-38" transform="translate(554.234375 0)"/>
     <use xlink:href="#DejaVuSans-Bold-35" transform="translate(635.4375 0)"/>
     <use xlink:href="#DejaVuSans-Bold-2a" transform="translate(712.4375 0)"/>
     <use xlink:href="#DejaVuSans-Bold-28" transform="translate(794.515625 0)"/>
     <use xlink:href="#DejaVuSans-Bold-31" transform="translate(862.828125 0)"/>
     <use xlink:href="#DejaVuSans-Bold-37" transform="translate(946.515625 0)"/>
    </g>
   </g>
   <g id="text_21">
    <!-- pulls ROUTINE ← -->
    <g style="fill: #88a1b2" transform="translate(370.742634 286.197062) scale(0.115 -0.115)">
     <defs>
      <path id="DejaVuSans-Bold-4f" d="M 538 4863 
L 1656 4863 
L 1656 0 
L 538 0 
L 538 4863 
z
" transform="scale(0.015625)"/>
      <path id="DejaVuSans-Bold-32" d="M 2719 3878 
Q 2169 3878 1866 3472 
Q 1563 3066 1563 2328 
Q 1563 1594 1866 1187 
Q 2169 781 2719 781 
Q 3272 781 3575 1187 
Q 3878 1594 3878 2328 
Q 3878 3066 3575 3472 
Q 3272 3878 2719 3878 
z
M 2719 4750 
Q 3844 4750 4481 4106 
Q 5119 3463 5119 2328 
Q 5119 1197 4481 553 
Q 3844 -91 2719 -91 
Q 1597 -91 958 553 
Q 319 1197 319 2328 
Q 319 3463 958 4106 
Q 1597 4750 2719 4750 
z
" transform="scale(0.015625)"/>
      <path id="DejaVuSans-Bold-2c" d="M 588 4666 
L 1791 4666 
L 1791 0 
L 588 0 
L 588 4666 
z
" transform="scale(0.015625)"/>
      <path id="DejaVuSans-Bold-c1a" d="M 313 1788 
L 313 2225 
L 1541 3453 
L 1994 3000 
L 1375 2381 
L 4997 2381 
L 4997 1631 
L 1375 1631 
L 1994 1013 
L 1541 559 
L 313 1788 
z
" transform="scale(0.015625)"/>
     </defs>
     <use xlink:href="#DejaVuSans-Bold-53"/>
     <use xlink:href="#DejaVuSans-Bold-58" transform="translate(71.578125 0)"/>
     <use xlink:href="#DejaVuSans-Bold-4f" transform="translate(142.765625 0)"/>
     <use xlink:href="#DejaVuSans-Bold-4f" transform="translate(177.046875 0)"/>
     <use xlink:href="#DejaVuSans-Bold-56" transform="translate(211.328125 0)"/>
     <use xlink:href="#DejaVuSans-Bold-3" transform="translate(270.84375 0)"/>
     <use xlink:href="#DejaVuSans-Bold-35" transform="translate(305.65625 0)"/>
     <use xlink:href="#DejaVuSans-Bold-32" transform="translate(382.65625 0)"/>
     <use xlink:href="#DejaVuSans-Bold-38" transform="translate(467.671875 0)"/>
     <use xlink:href="#DejaVuSans-Bold-37" transform="translate(548.875 0)"/>
     <use xlink:href="#DejaVuSans-Bold-2c" transform="translate(617.09375 0)"/>
     <use xlink:href="#DejaVuSans-Bold-31" transform="translate(654.296875 0)"/>
     <use xlink:href="#DejaVuSans-Bold-28" transform="translate(737.984375 0)"/>
     <use xlink:href="#DejaVuSans-Bold-3" transform="translate(806.296875 0)"/>
     <use xlink:href="#DejaVuSans-Bold-c1a" transform="translate(841.109375 0)"/>
    </g>
   </g>
  </g>
 </g>
 <defs>
  <clipPath id="pbbe9e740d4">
   <rect x="27.119453" y="7.2" width="456.84" height="298.216953"/>
  </clipPath>
 </defs>
</svg>
